<svg width="1600" height="1000" viewBox="0 0 1600 1000" xmlns="http://www.w3.org/2000/svg" role="img" aria-labelledby="ti de" font-family="ui-sans-serif, -apple-system, 'SF Pro Text', 'Segoe UI', sans-serif"><title id="ti">Combining files by dragging pages across documents</title><desc id="de">A page being dragged from one document into another document&#x27;s position in the Orifold sidebar, with an insertion line marking where it will drop — merging happens by arranging pages, then exporting once.</desc><defs>
  <linearGradient id="appGrad" x1="0" y1="0" x2="1" y2="1">
    <stop offset="0" stop-color="#7ADEF4"/><stop offset="1" stop-color="#4FC3E8"/></linearGradient>
  <linearGradient id="accentGrad" x1="0" y1="0" x2="1" y2="1">
    <stop offset="0" stop-color="#7ADEF4"/><stop offset="1" stop-color="#4FC3E8"/></linearGradient>
  <linearGradient id="winGrad" x1="0" y1="0" x2="0" y2="1">
    <stop offset="0" stop-color="#0C1524"/><stop offset="1" stop-color="#0A101C"/></linearGradient>
  <linearGradient id="paperGrad" x1="0" y1="0" x2="0" y2="1">
    <stop offset="0" stop-color="#FFFFFF"/><stop offset="1" stop-color="#F4F1EA"/></linearGradient>
  <filter id="winShadow" x="-20%" y="-20%" width="140%" height="140%">
    <feDropShadow dx="0" dy="14" stdDeviation="26" flood-color="#000000" flood-opacity="0.5"/></filter>
  <filter id="softShadow" x="-40%" y="-40%" width="180%" height="180%">
    <feDropShadow dx="0" dy="6" stdDeviation="12" flood-color="#000000" flood-opacity="0.35"/></filter>
  <radialGradient id="glow" cx="0.5" cy="0.5" r="0.5">
    <stop offset="0" stop-color="#4FC3E8" stop-opacity="0.14"/>
    <stop offset="0.55" stop-color="#4FC3E8" stop-opacity="0.05"/>
    <stop offset="1" stop-color="#4FC3E8" stop-opacity="0"/></radialGradient>
  
</defs><rect width="1600" height="1000" fill="none"/><g filter="url(#winShadow)"><rect x="40.00" y="36.00" width="1520.00" height="928.00" rx="13.00" fill="url(#winGrad)"/><rect x="40.00" y="36.00" width="1520.00" height="928.00" rx="13.00" fill="none" stroke="#EDF3FA" stroke-width="1" stroke-opacity="0.1"/></g><line x1="40.00" y1="82.00" x2="1560.00" y2="82.00" stroke="#EDF3FA" stroke-width="1" stroke-linecap="round" opacity="0.1"/><circle cx="62.00" cy="59.00" r="6.20" fill="#FF5F57"/><circle cx="82.00" cy="59.00" r="6.20" fill="#FEBC2E"/><circle cx="102.00" cy="59.00" r="6.20" fill="#28C840"/><circle cx="62.00" cy="59.00" r="6.20" fill="none" stroke="#000" stroke-width="0.5" opacity="0.15"/><circle cx="82.00" cy="59.00" r="6.20" fill="none" stroke="#000" stroke-width="0.5" opacity="0.15"/><circle cx="102.00" cy="59.00" r="6.20" fill="none" stroke="#000" stroke-width="0.5" opacity="0.15"/><text x="126.00" y="63.00" font-family="ui-sans-serif, -apple-system, 'SF Pro Text', 'Segoe UI', sans-serif" font-size="13" font-weight="600" fill="#EDF3FA" text-anchor="start">Contract Packet</text><g transform="translate(276.50,50.50) scale(0.7083)" stroke="#AFC2D6" stroke-width="2.400" fill="none" stroke-linecap="round" stroke-linejoin="round"><circle cx="12" cy="12" r="8.5"/><path d="M12 8.2V15.8M8.2 12H15.8"/></g><g transform="translate(306.50,50.50) scale(0.7083)" stroke="#AFC2D6" stroke-width="2.400" fill="none" stroke-linecap="round" stroke-linejoin="round"><rect x="5" y="4.5" width="14" height="15" rx="2"/><path d="M8.5 9h7M8.5 12h7M8.5 15h4.5"/></g><rect x="658.00" y="44.00" width="284.00" height="30.00" rx="9.00" fill="#182434" fill-opacity="0.7" stroke="#EDF3FA" stroke-width="1" stroke-opacity="0.14"/><g transform="translate(668.00,51.00) scale(0.6667)" stroke="#AFC2D6" stroke-width="2.550" fill="none" stroke-linecap="round" stroke-linejoin="round"><path d="M7 5l11 6.5-4.7 1.2 2.7 5-2.2 1.1-2.7-5-3.4 3.4z" fill="#AFC2D6" fill-opacity="0.85"/></g><g transform="translate(698.00,51.00) scale(0.6667)" stroke="#AFC2D6" stroke-width="2.550" fill="none" stroke-linecap="round" stroke-linejoin="round"><path d="M6 18.5l1.5-3 7.8-7.8 3 3-7.8 7.8-3 1.5z"/><path d="M13.5 6.2l2.3-2.3a1.4 1.4 0 0 1 2 0l1.5 1.5a1.4 1.4 0 0 1 0 2l-2.3 2.3"/><path d="M6 18.5l3 -1.5" stroke-width="3.600"/></g><g transform="translate(728.00,51.00) scale(0.6667)" stroke="#AFC2D6" stroke-width="2.550" fill="none" stroke-linecap="round" stroke-linejoin="round"><path d="M7 5v6a5 5 0 0 0 10 0V5"/><path d="M6 19.5h12"/></g><g transform="translate(758.00,51.00) scale(0.6667)" stroke="#AFC2D6" stroke-width="2.550" fill="none" stroke-linecap="round" stroke-linejoin="round"><path d="M8 7.5a4 4 0 0 1 8 .5M8.5 16a4 4 0 0 0 7.7-.8"/><path d="M4.5 12h15"/></g><g transform="translate(788.00,51.00) scale(0.6667)" stroke="#AFC2D6" stroke-width="2.550" fill="none" stroke-linecap="round" stroke-linejoin="round"><rect x="5" y="5" width="14" height="14" rx="2.4"/><path d="M8.5 9.5h7M8.5 12.5h7M8.5 15.5h4"/></g><g transform="translate(818.00,51.00) scale(0.6667)" stroke="#AFC2D6" stroke-width="2.550" fill="none" stroke-linecap="round" stroke-linejoin="round"><path d="M4.5 19c3-1 4-6 7-9s5.5-4 6.5-2.5-1.5 3-1 5 2 1.5 2.5 3"/></g><g transform="translate(848.00,51.00) scale(0.6667)" stroke="#AFC2D6" stroke-width="2.550" fill="none" stroke-linecap="round" stroke-linejoin="round"><path d="M5 17l4-10 4 10M6.5 13.5h5"/><path d="M14.5 17l3-7 3 7M15.6 14.6h3.8" stroke-width="2.100"/></g><g transform="translate(878.00,51.00) scale(0.6667)" stroke="#AFC2D6" stroke-width="2.550" fill="none" stroke-linecap="round" stroke-linejoin="round"><path d="M4.5 15.5c2 .3 3-1.2 3.6-3.4C8.8 9.4 9 6 10.4 6c1.1 0 .9 2.6 1.3 5s1 4.2 2.2 4.2c1.6 0 2-3.3 3.4-3.3.9 0 1.1 1.1 2.2 1.1"/><path d="M4.5 18.5h15" opacity="0.5"/></g><g transform="translate(908.00,51.00) scale(0.6667)" stroke="#AFC2D6" stroke-width="2.550" fill="none" stroke-linecap="round" stroke-linejoin="round"><path d="M12 4l1.9 1.4 2.3-.3 .9 2.2 2 1.2-.7 2.3.7 2.3-2 1.2-.9 2.2-2.3-.3L12 20l-1.9-1.4-2.3.3-.9-2.2-2-1.2.7-2.3-.7-2.3 2-1.2.9-2.2 2.3.3z"/><path d="M9.5 12l1.8 1.8 3.4-3.6"/></g><circle cx="958.00" cy="59.00" r="6.50" fill="#FBE382"/><circle cx="958.00" cy="59.00" r="6.50" fill="none" stroke="#EDF3FA" stroke-width="1" opacity="0.2"/><g transform="translate(1377.50,50.50) scale(0.7083)" stroke="#AFC2D6" stroke-width="2.400" fill="none" stroke-linecap="round" stroke-linejoin="round"><path d="M12 6.5C10.5 5.3 8 5 5.5 5.4V17.6C8 17.2 10.5 17.5 12 18.6M12 6.5C13.5 5.3 16 5 18.5 5.4V17.6C16 17.2 13.5 17.5 12 18.6M12 6.5V18.6"/></g><g transform="translate(1407.50,50.50) scale(0.7083)" stroke="#AFC2D6" stroke-width="2.400" fill="none" stroke-linecap="round" stroke-linejoin="round"><circle cx="10.5" cy="10.5" r="5.5"/><path d="M14.6 14.6L19 19"/></g><g transform="translate(1437.50,50.50) scale(0.7083)" stroke="#AFC2D6" stroke-width="2.400" fill="none" stroke-linecap="round" stroke-linejoin="round"><path d="M12 4.5L12 14.5M8.4 8L12 4.4L15.6 8"/><path d="M6 13v5.5a1 1 0 0 0 1 1h10a1 1 0 0 0 1-1V13"/></g><g transform="translate(1467.50,50.50) scale(0.7083)" stroke="#AFC2D6" stroke-width="2.400" fill="none" stroke-linecap="round" stroke-linejoin="round"><rect x="4" y="5" width="16" height="14" rx="2"/><path d="M15 5v14"/></g><g transform="translate(1497.50,50.50) scale(0.7083)" stroke="#AFC2D6" stroke-width="2.400" fill="none" stroke-linecap="round" stroke-linejoin="round"><circle cx="7" cy="14" r="3.2"/><circle cx="17" cy="14" r="3.2"/><path d="M10.2 13.5c.9-1 2.7-1 3.6 0M4 12l1.4-5.2a1.6 1.6 0 0 1 1.5-1.1M20 12l-1.4-5.2a1.6 1.6 0 0 0-1.5-1.1"/></g><g transform="translate(1527.50,50.50) scale(0.7083)" stroke="#AFC2D6" stroke-width="2.400" fill="none" stroke-linecap="round" stroke-linejoin="round"><circle cx="12" cy="12" r="8.5"/><path d="M9.6 9.6a2.5 2.5 0 0 1 4.8.9c0 1.7-2.4 2-2.4 3.6"/><circle cx="12" cy="17" r="0.4" fill="#AFC2D6"/></g><rect x="40.00" y="82.00" width="232.00" height="882.00" rx="0.00" fill="#111A29"/><line x1="272.00" y1="82.00" x2="272.00" y2="964.00" stroke="#EDF3FA" stroke-width="1" stroke-linecap="round" opacity="0.1"/><path d="M62 94 L250 94 L260 104 L260 170 Q260 180 250 180 L62 180 Q52 180 52 170 L52 104 Q52 94 62 94 Z" fill="#182434" opacity="0.72"/><path d="M62 94 L250 94 L260 104 L260 170 Q260 180 250 180 L62 180 Q52 180 52 170 L52 104 Q52 94 62 94 Z" fill="none" stroke="#EDF3FA" stroke-width="1" stroke-linecap="round" stroke-linejoin="round" opacity="0.14"/><path d="M63.32 103.0 L70.88 103.0 L77.0 109.12 L77.0 116.68 Q77.0 121.0 72.68 121.0 L63.32 121.0 Q59.0 121.0 59.0 116.68 L59.0 107.32 Q59.0 103.0 63.32 103.0 Z" fill="url(#appGrad)"/><path d="M70.88 103.0 L77.0 109.12 L70.88 109.12 Z" fill="#0A101C" fill-opacity="0.28"/><path d="M64.04 113.8 L67.28 109.84 L71.96 114.88" stroke="#0A2A3A" stroke-width="1.08" fill="none" stroke-linecap="round" stroke-linejoin="round" opacity="0.55"/><text x="82.00" y="116.00" font-family="ui-serif, 'New York', Georgia, 'Songti SC', serif" font-size="12.5" font-weight="600" fill="#EDF3FA" text-anchor="start" letter-spacing="0.4">Contract Packet</text><g transform="translate(238.50,104.50) scale(0.6250)" stroke="#7C8FA3" stroke-width="2.720" fill="none" stroke-linecap="round" stroke-linejoin="round"><circle cx="6.5" cy="12" r="1.1" fill="#7C8FA3"/><circle cx="12" cy="12" r="1.1" fill="#7C8FA3"/><circle cx="17.5" cy="12" r="1.1" fill="#7C8FA3"/></g><text x="64.00" y="136.00" font-family="ui-sans-serif, -apple-system, 'SF Pro Text', 'Segoe UI', sans-serif" font-size="10.5" font-weight="500" fill="#7C8FA3" text-anchor="start">4 files · 14 pages · 2 comments</text><rect x="64.00" y="146.00" width="78.00" height="20.00" rx="10.00" fill="#4FC3E8" fill-opacity="0.2"/><g transform="translate(68.50,150.50) scale(0.4583)" stroke="#4FC3E8" stroke-width="4.364" fill="none" stroke-linecap="round" stroke-linejoin="round"><path d="M12 6V18M6 12H18"/></g><text x="84.00" y="159.50" font-family="ui-sans-serif, -apple-system, 'SF Pro Text', 'Segoe UI', sans-serif" font-size="11" font-weight="600" fill="#4FC3E8" text-anchor="start">Add Files</text><line x1="52.00" y1="192.00" x2="260.00" y2="192.00" stroke="#EDF3FA" stroke-width="1" stroke-linecap="round" opacity="0.1"/><text x="58.00" y="210.00" font-family="ui-sans-serif, -apple-system, 'SF Pro Text', 'Segoe UI', sans-serif" font-size="10.5" font-weight="600" fill="#7C8FA3" text-anchor="start" letter-spacing="0.6">DOCUMENTS</text><text x="134.00" y="210.00" font-family="ui-sans-serif, -apple-system, 'SF Pro Text', 'Segoe UI', sans-serif" font-size="10.5" font-weight="500" fill="#7C8FA3" text-anchor="start">· 4</text><rect x="54.00" y="224.00" width="204.00" height="44.00" rx="6.00" fill="#4FC3E8" fill-opacity="0.18" stroke="#4FC3E8" stroke-width="0.75" stroke-opacity="0.25"/><rect x="54.00" y="228.00" width="2.00" height="36.00" rx="1.00" fill="#4FC3E8"/><g transform="rotate(90 68 246.0)"><g transform="translate(63.00,241.00) scale(0.4167)" stroke="#AFC2D6" stroke-width="4.080" fill="none" stroke-linecap="round" stroke-linejoin="round"><path d="M9.5 6l6 6-6 6"/></g></g><rect x="80.00" y="229.00" width="26.00" height="34.00" rx="3.00" fill="#EAE7DF"/><rect x="80.00" y="229.00" width="26.00" height="34.00" rx="3.00" fill="none" stroke="#EDF3FA" stroke-width="1" stroke-opacity="0.3"/><line x1="84.00" y1="237.00" x2="102.00" y2="237.00" stroke="#B9B3A6" stroke-width="1" stroke-linecap="round" opacity="0.9"/><line x1="84.00" y1="243.00" x2="102.00" y2="243.00" stroke="#B9B3A6" stroke-width="1" stroke-linecap="round" opacity="0.9"/><line x1="84.00" y1="249.00" x2="102.00" y2="249.00" stroke="#B9B3A6" stroke-width="1" stroke-linecap="round" opacity="0.9"/><line x1="84.00" y1="255.00" x2="102.00" y2="255.00" stroke="#B9B3A6" stroke-width="1" stroke-linecap="round" opacity="0.9"/><rect x="78.00" y="254.00" width="16.00" height="8.00" rx="2.00" fill="#EF8A7E"/><text x="86.00" y="260.50" font-family="ui-sans-serif, -apple-system, 'SF Pro Text', 'Segoe UI', sans-serif" font-size="5.5" font-weight="800" fill="#FFFFFF" text-anchor="middle">PDF</text><text x="114.00" y="244.00" font-family="ui-sans-serif, -apple-system, 'SF Pro Text', 'Segoe UI', sans-serif" font-size="12.5" font-weight="600" fill="#EDF3FA" text-anchor="start">Cover Letter</text><text x="114.00" y="259.00" font-family="ui-sans-serif, -apple-system, 'SF Pro Text', 'Segoe UI', sans-serif" font-size="10.5" font-weight="500" fill="#7C8FA3" text-anchor="start">3 pages · 1 comment</text><g transform="translate(241.00,239.00) scale(0.5833)" stroke="#7C8FA3" stroke-width="2.914" fill="none" stroke-linecap="round" stroke-linejoin="round"><circle cx="6.5" cy="12" r="1.1" fill="#7C8FA3"/><circle cx="12" cy="12" r="1.1" fill="#7C8FA3"/><circle cx="17.5" cy="12" r="1.1" fill="#7C8FA3"/></g><rect x="74.00" y="274.00" width="182.00" height="28.00" rx="6.00" fill="#182434" fill-opacity="0.45" stroke="#EDF3FA" stroke-width="1" stroke-opacity="0.1"/><rect x="82.00" y="273.00" width="24.00" height="30.00" rx="2.50" fill="#EAE7DF" stroke="#EDF3FA" stroke-width="0.5" stroke-opacity="0.3"/><line x1="86.00" y1="280.00" x2="102.00" y2="280.00" stroke="#B9B3A6" stroke-width="1" stroke-linecap="round" opacity="0.85"/><line x1="86.00" y1="287.00" x2="102.00" y2="287.00" stroke="#B9B3A6" stroke-width="1" stroke-linecap="round" opacity="0.85"/><line x1="86.00" y1="294.00" x2="102.00" y2="294.00" stroke="#B9B3A6" stroke-width="1" stroke-linecap="round" opacity="0.85"/><text x="116.00" y="292.00" font-family="ui-sans-serif, -apple-system, 'SF Pro Text', 'Segoe UI', sans-serif" font-size="11" font-weight="500" fill="#AFC2D6" text-anchor="start">p. 1</text><g transform="translate(238.00,282.00) scale(0.5000)" stroke="#7C8FA3" stroke-width="3.400" fill="none" stroke-linecap="round" stroke-linejoin="round"><circle cx="6.5" cy="12" r="1.1" fill="#7C8FA3"/><circle cx="12" cy="12" r="1.1" fill="#7C8FA3"/><circle cx="17.5" cy="12" r="1.1" fill="#7C8FA3"/></g><rect x="74.00" y="306.00" width="182.00" height="28.00" rx="6.00" fill="#182434" fill-opacity="0.45" stroke="#EDF3FA" stroke-width="1" stroke-opacity="0.1"/><rect x="82.00" y="305.00" width="24.00" height="30.00" rx="2.50" fill="#EAE7DF" stroke="#EDF3FA" stroke-width="0.5" stroke-opacity="0.3"/><line x1="86.00" y1="312.00" x2="102.00" y2="312.00" stroke="#B9B3A6" stroke-width="1" stroke-linecap="round" opacity="0.85"/><line x1="86.00" y1="319.00" x2="102.00" y2="319.00" stroke="#B9B3A6" stroke-width="1" stroke-linecap="round" opacity="0.85"/><line x1="86.00" y1="326.00" x2="102.00" y2="326.00" stroke="#B9B3A6" stroke-width="1" stroke-linecap="round" opacity="0.85"/><text x="116.00" y="324.00" font-family="ui-sans-serif, -apple-system, 'SF Pro Text', 'Segoe UI', sans-serif" font-size="11" font-weight="500" fill="#AFC2D6" text-anchor="start">p. 2</text><g transform="translate(238.00,314.00) scale(0.5000)" stroke="#7C8FA3" stroke-width="3.400" fill="none" stroke-linecap="round" stroke-linejoin="round"><circle cx="6.5" cy="12" r="1.1" fill="#7C8FA3"/><circle cx="12" cy="12" r="1.1" fill="#7C8FA3"/><circle cx="17.5" cy="12" r="1.1" fill="#7C8FA3"/></g><rect x="74.00" y="338.00" width="182.00" height="28.00" rx="6.00" fill="#182434" fill-opacity="0.45" stroke="#EDF3FA" stroke-width="1" stroke-opacity="0.1"/><rect x="82.00" y="337.00" width="24.00" height="30.00" rx="2.50" fill="#EAE7DF" stroke="#EDF3FA" stroke-width="0.5" stroke-opacity="0.3"/><line x1="86.00" y1="344.00" x2="102.00" y2="344.00" stroke="#B9B3A6" stroke-width="1" stroke-linecap="round" opacity="0.85"/><line x1="86.00" y1="351.00" x2="102.00" y2="351.00" stroke="#B9B3A6" stroke-width="1" stroke-linecap="round" opacity="0.85"/><line x1="86.00" y1="358.00" x2="102.00" y2="358.00" stroke="#B9B3A6" stroke-width="1" stroke-linecap="round" opacity="0.85"/><text x="116.00" y="356.00" font-family="ui-sans-serif, -apple-system, 'SF Pro Text', 'Segoe UI', sans-serif" font-size="11" font-weight="500" fill="#AFC2D6" text-anchor="start">p. 3</text><g transform="translate(238.00,346.00) scale(0.5000)" stroke="#7C8FA3" stroke-width="3.400" fill="none" stroke-linecap="round" stroke-linejoin="round"><circle cx="6.5" cy="12" r="1.1" fill="#7C8FA3"/><circle cx="12" cy="12" r="1.1" fill="#7C8FA3"/><circle cx="17.5" cy="12" r="1.1" fill="#7C8FA3"/></g><line x1="65.00" y1="274.00" x2="65.00" y2="364.00" stroke="#EDF3FA" stroke-width="1" stroke-linecap="round" opacity="0.25"/><g transform="translate(63.00,393.00) scale(0.4167)" stroke="#7C8FA3" stroke-width="4.080" fill="none" stroke-linecap="round" stroke-linejoin="round"><path d="M9.5 6l6 6-6 6"/></g><rect x="80.00" y="381.00" width="26.00" height="34.00" rx="3.00" fill="#EAE7DF"/><rect x="80.00" y="381.00" width="26.00" height="34.00" rx="3.00" fill="none" stroke="#EDF3FA" stroke-width="1" stroke-opacity="0.3"/><line x1="84.00" y1="389.00" x2="102.00" y2="389.00" stroke="#B9B3A6" stroke-width="1" stroke-linecap="round" opacity="0.9"/><line x1="84.00" y1="395.00" x2="102.00" y2="395.00" stroke="#B9B3A6" stroke-width="1" stroke-linecap="round" opacity="0.9"/><line x1="84.00" y1="401.00" x2="102.00" y2="401.00" stroke="#B9B3A6" stroke-width="1" stroke-linecap="round" opacity="0.9"/><line x1="84.00" y1="407.00" x2="102.00" y2="407.00" stroke="#B9B3A6" stroke-width="1" stroke-linecap="round" opacity="0.9"/><rect x="78.00" y="406.00" width="16.00" height="8.00" rx="2.00" fill="#EF8A7E"/><text x="86.00" y="412.50" font-family="ui-sans-serif, -apple-system, 'SF Pro Text', 'Segoe UI', sans-serif" font-size="5.5" font-weight="800" fill="#FFFFFF" text-anchor="middle">PDF</text><text x="114.00" y="396.00" font-family="ui-sans-serif, -apple-system, 'SF Pro Text', 'Segoe UI', sans-serif" font-size="12.5" font-weight="600" fill="#EDF3FA" text-anchor="start">Invoice_Q3.pdf</text><text x="114.00" y="411.00" font-family="ui-sans-serif, -apple-system, 'SF Pro Text', 'Segoe UI', sans-serif" font-size="10.5" font-weight="500" fill="#7C8FA3" text-anchor="start">2 pages</text><g transform="rotate(90 68 448.0)"><g transform="translate(63.00,443.00) scale(0.4167)" stroke="#AFC2D6" stroke-width="4.080" fill="none" stroke-linecap="round" stroke-linejoin="round"><path d="M9.5 6l6 6-6 6"/></g></g><rect x="80.00" y="431.00" width="26.00" height="34.00" rx="3.00" fill="#EAE7DF"/><rect x="80.00" y="431.00" width="26.00" height="34.00" rx="3.00" fill="none" stroke="#EDF3FA" stroke-width="1" stroke-opacity="0.3"/><line x1="84.00" y1="439.00" x2="102.00" y2="439.00" stroke="#B9B3A6" stroke-width="1" stroke-linecap="round" opacity="0.9"/><line x1="84.00" y1="445.00" x2="102.00" y2="445.00" stroke="#B9B3A6" stroke-width="1" stroke-linecap="round" opacity="0.9"/><line x1="84.00" y1="451.00" x2="102.00" y2="451.00" stroke="#B9B3A6" stroke-width="1" stroke-linecap="round" opacity="0.9"/><line x1="84.00" y1="457.00" x2="102.00" y2="457.00" stroke="#B9B3A6" stroke-width="1" stroke-linecap="round" opacity="0.9"/><rect x="78.00" y="456.00" width="16.00" height="8.00" rx="2.00" fill="#1A9BA6"/><text x="86.00" y="462.50" font-family="ui-sans-serif, -apple-system, 'SF Pro Text', 'Segoe UI', sans-serif" font-size="5.5" font-weight="800" fill="#FFFFFF" text-anchor="middle">IMG</text><text x="114.00" y="446.00" font-family="ui-sans-serif, -apple-system, 'SF Pro Text', 'Segoe UI', sans-serif" font-size="12.5" font-weight="600" fill="#EDF3FA" text-anchor="start">Site-Photos</text><text x="114.00" y="461.00" font-family="ui-sans-serif, -apple-system, 'SF Pro Text', 'Segoe UI', sans-serif" font-size="10.5" font-weight="500" fill="#7C8FA3" text-anchor="start">4 pages</text><rect x="74.00" y="476.00" width="182.00" height="28.00" rx="6.00" fill="#182434" fill-opacity="0.45" stroke="#EDF3FA" stroke-width="1" stroke-opacity="0.1"/><rect x="82.00" y="475.00" width="24.00" height="30.00" rx="2.50" fill="#EAE7DF" stroke="#EDF3FA" stroke-width="0.5" stroke-opacity="0.3"/><line x1="86.00" y1="482.00" x2="102.00" y2="482.00" stroke="#B9B3A6" stroke-width="1" stroke-linecap="round" opacity="0.85"/><line x1="86.00" y1="489.00" x2="102.00" y2="489.00" stroke="#B9B3A6" stroke-width="1" stroke-linecap="round" opacity="0.85"/><line x1="86.00" y1="496.00" x2="102.00" y2="496.00" stroke="#B9B3A6" stroke-width="1" stroke-linecap="round" opacity="0.85"/><text x="116.00" y="494.00" font-family="ui-sans-serif, -apple-system, 'SF Pro Text', 'Segoe UI', sans-serif" font-size="11" font-weight="500" fill="#AFC2D6" text-anchor="start">p. 1</text><g transform="translate(238.00,484.00) scale(0.5000)" stroke="#7C8FA3" stroke-width="3.400" fill="none" stroke-linecap="round" stroke-linejoin="round"><circle cx="6.5" cy="12" r="1.1" fill="#7C8FA3"/><circle cx="12" cy="12" r="1.1" fill="#7C8FA3"/><circle cx="17.5" cy="12" r="1.1" fill="#7C8FA3"/></g><rect x="74.00" y="508.00" width="182.00" height="28.00" rx="6.00" fill="#182434" fill-opacity="0.45" stroke="#EDF3FA" stroke-width="1" stroke-opacity="0.1"/><rect x="82.00" y="507.00" width="24.00" height="30.00" rx="2.50" fill="#EAE7DF" stroke="#EDF3FA" stroke-width="0.5" stroke-opacity="0.3"/><line x1="86.00" y1="514.00" x2="102.00" y2="514.00" stroke="#B9B3A6" stroke-width="1" stroke-linecap="round" opacity="0.85"/><line x1="86.00" y1="521.00" x2="102.00" y2="521.00" stroke="#B9B3A6" stroke-width="1" stroke-linecap="round" opacity="0.85"/><line x1="86.00" y1="528.00" x2="102.00" y2="528.00" stroke="#B9B3A6" stroke-width="1" stroke-linecap="round" opacity="0.85"/><text x="116.00" y="526.00" font-family="ui-sans-serif, -apple-system, 'SF Pro Text', 'Segoe UI', sans-serif" font-size="11" font-weight="500" fill="#AFC2D6" text-anchor="start">p. 2</text><g transform="translate(238.00,516.00) scale(0.5000)" stroke="#7C8FA3" stroke-width="3.400" fill="none" stroke-linecap="round" stroke-linejoin="round"><circle cx="6.5" cy="12" r="1.1" fill="#7C8FA3"/><circle cx="12" cy="12" r="1.1" fill="#7C8FA3"/><circle cx="17.5" cy="12" r="1.1" fill="#7C8FA3"/></g><rect x="74.00" y="540.00" width="182.00" height="28.00" rx="6.00" fill="#182434" fill-opacity="0.45" stroke="#EDF3FA" stroke-width="1" stroke-opacity="0.1"/><rect x="82.00" y="539.00" width="24.00" height="30.00" rx="2.50" fill="#EAE7DF" stroke="#EDF3FA" stroke-width="0.5" stroke-opacity="0.3"/><line x1="86.00" y1="546.00" x2="102.00" y2="546.00" stroke="#B9B3A6" stroke-width="1" stroke-linecap="round" opacity="0.85"/><line x1="86.00" y1="553.00" x2="102.00" y2="553.00" stroke="#B9B3A6" stroke-width="1" stroke-linecap="round" opacity="0.85"/><line x1="86.00" y1="560.00" x2="102.00" y2="560.00" stroke="#B9B3A6" stroke-width="1" stroke-linecap="round" opacity="0.85"/><text x="116.00" y="558.00" font-family="ui-sans-serif, -apple-system, 'SF Pro Text', 'Segoe UI', sans-serif" font-size="11" font-weight="500" fill="#AFC2D6" text-anchor="start">p. 3</text><g transform="translate(238.00,548.00) scale(0.5000)" stroke="#7C8FA3" stroke-width="3.400" fill="none" stroke-linecap="round" stroke-linejoin="round"><circle cx="6.5" cy="12" r="1.1" fill="#7C8FA3"/><circle cx="12" cy="12" r="1.1" fill="#7C8FA3"/><circle cx="17.5" cy="12" r="1.1" fill="#7C8FA3"/></g><rect x="74.00" y="572.00" width="182.00" height="28.00" rx="6.00" fill="#182434" fill-opacity="0.45" stroke="#EDF3FA" stroke-width="1" stroke-opacity="0.1"/><rect x="82.00" y="571.00" width="24.00" height="30.00" rx="2.50" fill="#EAE7DF" stroke="#EDF3FA" stroke-width="0.5" stroke-opacity="0.3"/><line x1="86.00" y1="578.00" x2="102.00" y2="578.00" stroke="#B9B3A6" stroke-width="1" stroke-linecap="round" opacity="0.85"/><line x1="86.00" y1="585.00" x2="102.00" y2="585.00" stroke="#B9B3A6" stroke-width="1" stroke-linecap="round" opacity="0.85"/><line x1="86.00" y1="592.00" x2="102.00" y2="592.00" stroke="#B9B3A6" stroke-width="1" stroke-linecap="round" opacity="0.85"/><text x="116.00" y="590.00" font-family="ui-sans-serif, -apple-system, 'SF Pro Text', 'Segoe UI', sans-serif" font-size="11" font-weight="500" fill="#AFC2D6" text-anchor="start">p. 4</text><g transform="translate(238.00,580.00) scale(0.5000)" stroke="#7C8FA3" stroke-width="3.400" fill="none" stroke-linecap="round" stroke-linejoin="round"><circle cx="6.5" cy="12" r="1.1" fill="#7C8FA3"/><circle cx="12" cy="12" r="1.1" fill="#7C8FA3"/><circle cx="17.5" cy="12" r="1.1" fill="#7C8FA3"/></g><line x1="65.00" y1="476.00" x2="65.00" y2="598.00" stroke="#EDF3FA" stroke-width="1" stroke-linecap="round" opacity="0.25"/><g transform="translate(63.00,627.00) scale(0.4167)" stroke="#7C8FA3" stroke-width="4.080" fill="none" stroke-linecap="round" stroke-linejoin="round"><path d="M9.5 6l6 6-6 6"/></g><rect x="80.00" y="615.00" width="26.00" height="34.00" rx="3.00" fill="#EAE7DF"/><rect x="80.00" y="615.00" width="26.00" height="34.00" rx="3.00" fill="none" stroke="#EDF3FA" stroke-width="1" stroke-opacity="0.3"/><line x1="84.00" y1="623.00" x2="102.00" y2="623.00" stroke="#B9B3A6" stroke-width="1" stroke-linecap="round" opacity="0.9"/><line x1="84.00" y1="629.00" x2="102.00" y2="629.00" stroke="#B9B3A6" stroke-width="1" stroke-linecap="round" opacity="0.9"/><line x1="84.00" y1="635.00" x2="102.00" y2="635.00" stroke="#B9B3A6" stroke-width="1" stroke-linecap="round" opacity="0.9"/><line x1="84.00" y1="641.00" x2="102.00" y2="641.00" stroke="#B9B3A6" stroke-width="1" stroke-linecap="round" opacity="0.9"/><rect x="78.00" y="640.00" width="16.00" height="8.00" rx="2.00" fill="#1A4E85"/><text x="86.00" y="646.50" font-family="ui-sans-serif, -apple-system, 'SF Pro Text', 'Segoe UI', sans-serif" font-size="5.5" font-weight="800" fill="#FFFFFF" text-anchor="middle">DOC</text><text x="114.00" y="630.00" font-family="ui-sans-serif, -apple-system, 'SF Pro Text', 'Segoe UI', sans-serif" font-size="12.5" font-weight="600" fill="#EDF3FA" text-anchor="start">Signed_NDA</text><text x="114.00" y="645.00" font-family="ui-sans-serif, -apple-system, 'SF Pro Text', 'Segoe UI', sans-serif" font-size="10.5" font-weight="500" fill="#7C8FA3" text-anchor="start">5 pages</text><rect x="272.00" y="82.00" width="1288.00" height="882.00" rx="0.00" fill="#0A101C"/><rect x="614.16" y="125.00" width="603.68" height="784.00" rx="4.00" fill="url(#paperGrad)" stroke="#0A0F19" stroke-width="1" stroke-opacity="0.25"/><rect x="614.16" y="125.00" width="603.68" height="784.00" rx="4.00" fill="none" stroke="#000" stroke-width="1" stroke-opacity="0.05"/><circle cx="688.56" cy="215.24" r="9.00" fill="#4FC3E8" opacity="0.9"/><text x="704.56" y="219.24" font-family="ui-serif, 'New York', Georgia, 'Songti SC', serif" font-size="11" font-weight="700" fill="#1C2230" text-anchor="start">NORTHWIND &amp; CO.</text><line x1="680.56" y1="233.24" x2="1151.44" y2="233.24" stroke="#DAD5CB" stroke-width="1" stroke-linecap="round"/><line x1="680.56" y1="253.24" x2="840.66" y2="253.24" stroke="#43485A" stroke-width="3" stroke-linecap="round" opacity="0.75"/><text x="680.56" y="275.24" font-family="ui-sans-serif, -apple-system, 'SF Pro Text', 'Segoe UI', sans-serif" font-size="12" font-weight="700" fill="#1C2230" text-anchor="start"></text><line x1="680.56" y1="271.24" x2="963.09" y2="271.24" stroke="#1C2230" stroke-width="4" stroke-linecap="round" opacity="0.9"/><line x1="680.56" y1="293.24" x2="1151.44" y2="293.24" stroke="#43485A" stroke-width="2.4" stroke-linecap="round" opacity="0.55"/><line x1="680.56" y1="308.24" x2="1123.18" y2="308.24" stroke="#43485A" stroke-width="2.4" stroke-linecap="round" opacity="0.55"/><line x1="680.56" y1="323.24" x2="1137.31" y2="323.24" stroke="#43485A" stroke-width="2.4" stroke-linecap="round" opacity="0.55"/><line x1="680.56" y1="338.24" x2="972.50" y2="338.24" stroke="#43485A" stroke-width="2.4" stroke-linecap="round" opacity="0.55"/><line x1="680.56" y1="361.24" x2="1151.44" y2="361.24" stroke="#43485A" stroke-width="2.4" stroke-linecap="round" opacity="0.55"/><line x1="680.56" y1="376.24" x2="1104.35" y2="376.24" stroke="#43485A" stroke-width="2.4" stroke-linecap="round" opacity="0.55"/><line x1="680.56" y1="391.24" x2="1142.02" y2="391.24" stroke="#43485A" stroke-width="2.4" stroke-linecap="round" opacity="0.55"/><line x1="680.56" y1="406.24" x2="1094.93" y2="406.24" stroke="#43485A" stroke-width="2.4" stroke-linecap="round" opacity="0.55"/><line x1="680.56" y1="421.24" x2="916.00" y2="421.24" stroke="#43485A" stroke-width="2.4" stroke-linecap="round" opacity="0.55"/><line x1="680.56" y1="783.56" x2="878.33" y2="783.56" stroke="#DAD5CB" stroke-width="1" stroke-linecap="round"/><text x="680.56" y="797.56" font-family="ui-sans-serif, -apple-system, 'SF Pro Text', 'Segoe UI', sans-serif" font-size="10" font-weight="400" fill="#43485A" text-anchor="start"></text><rect x="864.00" y="934.00" width="104.00" height="22.00" rx="11.00" fill="#182434" fill-opacity="0.9" stroke="#EDF3FA" stroke-width="1" stroke-opacity="0.16"/><text x="916.00" y="949.00" font-family="ui-sans-serif, -apple-system, 'SF Pro Text', 'Segoe UI', sans-serif" font-size="11" font-weight="500" fill="#AFC2D6" text-anchor="middle">Page 3 of 14</text><line x1="72.00" y1="506.00" x2="252.00" y2="506.00" stroke="#4FC3E8" stroke-width="2" stroke-linecap="round"/><circle cx="72.00" cy="506.00" r="3.50" fill="#4FC3E8"/><rect x="74.00" y="306.00" width="182.00" height="28.00" rx="6.00" fill="#4FC3E8" fill-opacity="0.05" stroke="#4FC3E8" stroke-width="1" stroke-opacity="0.25" stroke-dasharray="4 3"/><g filter="url(#softShadow)" opacity="0.96"><rect x="118.56" y="390.00" width="170.56" height="34.00" rx="6.00" fill="#111A29" stroke="#4FC3E8" stroke-width="1.5" stroke-opacity="0.7"/><rect x="126.56" y="393.00" width="22.00" height="28.00" rx="2.50" fill="#EAE7DF" stroke="#4FC3E8" stroke-width="1" stroke-opacity="0.6"/><line x1="130.56" y1="400.00" x2="144.56" y2="400.00" stroke="#B9B3A6" stroke-width="1" stroke-linecap="round" opacity="0.9"/><line x1="130.56" y1="407.00" x2="144.56" y2="407.00" stroke="#B9B3A6" stroke-width="1" stroke-linecap="round" opacity="0.9"/><line x1="130.56" y1="414.00" x2="144.56" y2="414.00" stroke="#B9B3A6" stroke-width="1" stroke-linecap="round" opacity="0.9"/><text x="158.56" y="411.00" font-family="ui-sans-serif, -apple-system, 'SF Pro Text', 'Segoe UI', sans-serif" font-size="11.5" font-weight="600" fill="#4FC3E8" text-anchor="start">p. 2 · moving</text></g><g transform="translate(266.12,385.00) scale(0.7500)" stroke="#EDF3FA" stroke-width="2.267" fill="none" stroke-linecap="round" stroke-linejoin="round"><path d="M7 5l11 6.5-4.7 1.2 2.7 5-2.2 1.1-2.7-5-3.4 3.4z" fill="#EDF3FA" fill-opacity="0.85"/></g><rect x="730.00" y="106.00" width="372.00" height="34.00" rx="10.00" fill="#182434" fill-opacity="0.96" stroke="#4FC3E8" stroke-width="1" stroke-opacity="0.25"/><text x="916.00" y="128.00" font-family="ui-sans-serif, -apple-system, 'SF Pro Text', 'Segoe UI', sans-serif" font-size="11.5" font-weight="500" fill="#AFC2D6" text-anchor="middle">Drag pages across documents — the workspace is the merge</text></svg>