<svg width="1600" height="1000" viewBox="0 0 1600 1000" xmlns="http://www.w3.org/2000/svg" role="img" aria-labelledby="ti de" font-family="ui-sans-serif, -apple-system, 'SF Pro Text', 'Segoe UI', sans-serif"><title id="ti">Drawing and placing a signature</title><desc id="de">Three steps of signing a PDF in Orifold: drawing a signature on the signing pad, placing and resizing it on the document&#x27;s signature line, and exporting the finished signed PDF — all on your Mac.</desc><defs>
  <linearGradient id="appGrad" x1="0" y1="0" x2="1" y2="1">
    <stop offset="0" stop-color="#7ADEF4"/><stop offset="1" stop-color="#4FC3E8"/></linearGradient>
  <linearGradient id="accentGrad" x1="0" y1="0" x2="1" y2="1">
    <stop offset="0" stop-color="#7ADEF4"/><stop offset="1" stop-color="#4FC3E8"/></linearGradient>
  <linearGradient id="winGrad" x1="0" y1="0" x2="0" y2="1">
    <stop offset="0" stop-color="#0C1524"/><stop offset="1" stop-color="#0A101C"/></linearGradient>
  <linearGradient id="paperGrad" x1="0" y1="0" x2="0" y2="1">
    <stop offset="0" stop-color="#FFFFFF"/><stop offset="1" stop-color="#F4F1EA"/></linearGradient>
  <filter id="winShadow" x="-20%" y="-20%" width="140%" height="140%">
    <feDropShadow dx="0" dy="14" stdDeviation="26" flood-color="#000000" flood-opacity="0.5"/></filter>
  <filter id="softShadow" x="-40%" y="-40%" width="180%" height="180%">
    <feDropShadow dx="0" dy="6" stdDeviation="12" flood-color="#000000" flood-opacity="0.35"/></filter>
  <radialGradient id="glow" cx="0.5" cy="0.5" r="0.5">
    <stop offset="0" stop-color="#4FC3E8" stop-opacity="0.14"/>
    <stop offset="0.55" stop-color="#4FC3E8" stop-opacity="0.05"/>
    <stop offset="1" stop-color="#4FC3E8" stop-opacity="0"/></radialGradient>
  
</defs><rect width="1600" height="1000" fill="none"/><g filter="url(#winShadow)"><rect x="40.00" y="165.61" width="477.33" height="640.77" rx="11.00" fill="url(#winGrad)"/><rect x="40.00" y="165.61" width="477.33" height="640.77" rx="11.00" fill="none" stroke="#EDF3FA" stroke-width="1" stroke-opacity="0.1"/></g><rect x="40.00" y="165.61" width="477.33" height="640.77" rx="11.00" fill="#0A101C"/><circle cx="58.00" cy="187.61" r="6.20" fill="#FF5F57"/><circle cx="78.00" cy="187.61" r="6.20" fill="#FEBC2E"/><circle cx="98.00" cy="187.61" r="6.20" fill="#28C840"/><circle cx="58.00" cy="187.61" r="6.20" fill="none" stroke="#000" stroke-width="0.5" opacity="0.15"/><circle cx="78.00" cy="187.61" r="6.20" fill="none" stroke="#000" stroke-width="0.5" opacity="0.15"/><circle cx="98.00" cy="187.61" r="6.20" fill="none" stroke="#000" stroke-width="0.5" opacity="0.15"/><line x1="40.00" y1="205.61" x2="517.33" y2="205.61" stroke="#EDF3FA" stroke-width="1" stroke-linecap="round" opacity="0.08"/><rect x="62.00" y="217.61" width="433.33" height="562.77" rx="4.00" fill="url(#paperGrad)" stroke="#0A0F19" stroke-width="1" stroke-opacity="0.25"/><rect x="62.00" y="217.61" width="433.33" height="562.77" rx="4.00" fill="none" stroke="#000" stroke-width="1" stroke-opacity="0.05"/><circle cx="117.67" cy="283.52" r="9.00" fill="#4FC3E8" opacity="0.9"/><text x="133.67" y="287.52" font-family="ui-serif, 'New York', Georgia, 'Songti SC', serif" font-size="11" font-weight="700" fill="#1C2230" text-anchor="start">NORTHWIND &amp; CO.</text><line x1="109.67" y1="301.52" x2="447.67" y2="301.52" stroke="#DAD5CB" stroke-width="1" stroke-linecap="round"/><line x1="109.67" y1="321.52" x2="224.59" y2="321.52" stroke="#43485A" stroke-width="3" stroke-linecap="round" opacity="0.75"/><text x="109.67" y="343.52" font-family="ui-sans-serif, -apple-system, 'SF Pro Text', 'Segoe UI', sans-serif" font-size="12" font-weight="700" fill="#1C2230" text-anchor="start"></text><line x1="109.67" y1="339.52" x2="312.47" y2="339.52" stroke="#1C2230" stroke-width="4" stroke-linecap="round" opacity="0.9"/><line x1="109.67" y1="361.52" x2="447.67" y2="361.52" stroke="#43485A" stroke-width="2.4" stroke-linecap="round" opacity="0.55"/><line x1="109.67" y1="376.52" x2="427.39" y2="376.52" stroke="#43485A" stroke-width="2.4" stroke-linecap="round" opacity="0.55"/><line x1="109.67" y1="391.52" x2="437.53" y2="391.52" stroke="#43485A" stroke-width="2.4" stroke-linecap="round" opacity="0.55"/><line x1="109.67" y1="406.52" x2="319.23" y2="406.52" stroke="#43485A" stroke-width="2.4" stroke-linecap="round" opacity="0.55"/><line x1="109.67" y1="429.52" x2="447.67" y2="429.52" stroke="#43485A" stroke-width="2.4" stroke-linecap="round" opacity="0.55"/><line x1="109.67" y1="444.52" x2="413.87" y2="444.52" stroke="#43485A" stroke-width="2.4" stroke-linecap="round" opacity="0.55"/><line x1="109.67" y1="459.52" x2="440.91" y2="459.52" stroke="#43485A" stroke-width="2.4" stroke-linecap="round" opacity="0.55"/><line x1="109.67" y1="474.52" x2="407.11" y2="474.52" stroke="#43485A" stroke-width="2.4" stroke-linecap="round" opacity="0.55"/><line x1="109.67" y1="489.52" x2="278.67" y2="489.52" stroke="#43485A" stroke-width="2.4" stroke-linecap="round" opacity="0.55"/><line x1="109.67" y1="690.34" x2="251.63" y2="690.34" stroke="#DAD5CB" stroke-width="1" stroke-linecap="round"/><text x="109.67" y="704.34" font-family="ui-sans-serif, -apple-system, 'SF Pro Text', 'Segoe UI', sans-serif" font-size="10" font-weight="400" fill="#43485A" text-anchor="start"></text><g filter="url(#softShadow)"><rect x="118.33" y="420.21" width="320.67" height="146.32" rx="9.00" fill="#111A29" stroke="#4FC3E8" stroke-width="1" stroke-opacity="0.45"/></g><text x="132.33" y="440.21" font-family="ui-sans-serif, -apple-system, 'SF Pro Text', 'Segoe UI', sans-serif" font-size="10.5" font-weight="600" fill="#AFC2D6" text-anchor="start">Draw your signature</text><line x1="134.33" y1="552.53" x2="423.00" y2="552.53" stroke="#EDF3FA" stroke-width="1" stroke-linecap="round" opacity="0.4" stroke-dasharray="3 3"/><path d="M148.33333333333334 542.5324675324675 q44.89333333333333 -40.969696969696976 76.96 -4 t70.54666666666665 -2 t64.13333333333333 6" fill="none" stroke="#F98C68" stroke-width="2.4" stroke-linecap="round" stroke-linejoin="round"/><line x1="122.67" y1="690.34" x2="339.33" y2="690.34" stroke="#DAD5CB" stroke-width="1" stroke-linecap="round"/><rect x="226.67" y="822.39" width="104.00" height="26.00" rx="13.00" fill="#182434" stroke="#EDF3FA" stroke-width="1" stroke-opacity="0.2"/><text x="278.67" y="839.39" font-family="ui-sans-serif, -apple-system, 'SF Pro Text', 'Segoe UI', sans-serif" font-size="12" font-weight="600" fill="#AFC2D6" text-anchor="middle">1 · Draw</text><path d="M530.3333333333333 486.0 L548.3333333333333 486.0 M541.3333333333333 480.0 L548.3333333333333 486.0 L541.3333333333333 492.0" fill="none" stroke="#4FC3E8" stroke-width="2.2" stroke-linecap="round" stroke-linejoin="round"/><g filter="url(#winShadow)"><rect x="561.33" y="165.61" width="477.33" height="640.77" rx="11.00" fill="url(#winGrad)"/><rect x="561.33" y="165.61" width="477.33" height="640.77" rx="11.00" fill="none" stroke="#EDF3FA" stroke-width="1" stroke-opacity="0.1"/></g><rect x="561.33" y="165.61" width="477.33" height="640.77" rx="11.00" fill="#0A101C"/><circle cx="579.33" cy="187.61" r="6.20" fill="#FF5F57"/><circle cx="599.33" cy="187.61" r="6.20" fill="#FEBC2E"/><circle cx="619.33" cy="187.61" r="6.20" fill="#28C840"/><circle cx="579.33" cy="187.61" r="6.20" fill="none" stroke="#000" stroke-width="0.5" opacity="0.15"/><circle cx="599.33" cy="187.61" r="6.20" fill="none" stroke="#000" stroke-width="0.5" opacity="0.15"/><circle cx="619.33" cy="187.61" r="6.20" fill="none" stroke="#000" stroke-width="0.5" opacity="0.15"/><line x1="561.33" y1="205.61" x2="1038.67" y2="205.61" stroke="#EDF3FA" stroke-width="1" stroke-linecap="round" opacity="0.08"/><rect x="583.33" y="217.61" width="433.33" height="562.77" rx="4.00" fill="url(#paperGrad)" stroke="#0A0F19" stroke-width="1" stroke-opacity="0.25"/><rect x="583.33" y="217.61" width="433.33" height="562.77" rx="4.00" fill="none" stroke="#000" stroke-width="1" stroke-opacity="0.05"/><circle cx="639.00" cy="283.52" r="9.00" fill="#4FC3E8" opacity="0.9"/><text x="655.00" y="287.52" font-family="ui-serif, 'New York', Georgia, 'Songti SC', serif" font-size="11" font-weight="700" fill="#1C2230" text-anchor="start">NORTHWIND &amp; CO.</text><line x1="631.00" y1="301.52" x2="969.00" y2="301.52" stroke="#DAD5CB" stroke-width="1" stroke-linecap="round"/><line x1="631.00" y1="321.52" x2="745.92" y2="321.52" stroke="#43485A" stroke-width="3" stroke-linecap="round" opacity="0.75"/><text x="631.00" y="343.52" font-family="ui-sans-serif, -apple-system, 'SF Pro Text', 'Segoe UI', sans-serif" font-size="12" font-weight="700" fill="#1C2230" text-anchor="start"></text><line x1="631.00" y1="339.52" x2="833.80" y2="339.52" stroke="#1C2230" stroke-width="4" stroke-linecap="round" opacity="0.9"/><line x1="631.00" y1="361.52" x2="969.00" y2="361.52" stroke="#43485A" stroke-width="2.4" stroke-linecap="round" opacity="0.55"/><line x1="631.00" y1="376.52" x2="948.72" y2="376.52" stroke="#43485A" stroke-width="2.4" stroke-linecap="round" opacity="0.55"/><line x1="631.00" y1="391.52" x2="958.86" y2="391.52" stroke="#43485A" stroke-width="2.4" stroke-linecap="round" opacity="0.55"/><line x1="631.00" y1="406.52" x2="840.56" y2="406.52" stroke="#43485A" stroke-width="2.4" stroke-linecap="round" opacity="0.55"/><line x1="631.00" y1="429.52" x2="969.00" y2="429.52" stroke="#43485A" stroke-width="2.4" stroke-linecap="round" opacity="0.55"/><line x1="631.00" y1="444.52" x2="935.20" y2="444.52" stroke="#43485A" stroke-width="2.4" stroke-linecap="round" opacity="0.55"/><line x1="631.00" y1="459.52" x2="962.24" y2="459.52" stroke="#43485A" stroke-width="2.4" stroke-linecap="round" opacity="0.55"/><line x1="631.00" y1="474.52" x2="928.44" y2="474.52" stroke="#43485A" stroke-width="2.4" stroke-linecap="round" opacity="0.55"/><line x1="631.00" y1="489.52" x2="800.00" y2="489.52" stroke="#43485A" stroke-width="2.4" stroke-linecap="round" opacity="0.55"/><line x1="631.00" y1="690.34" x2="772.96" y2="690.34" stroke="#DAD5CB" stroke-width="1" stroke-linecap="round"/><text x="631.00" y="704.34" font-family="ui-sans-serif, -apple-system, 'SF Pro Text', 'Segoe UI', sans-serif" font-size="10" font-weight="400" fill="#43485A" text-anchor="start"></text><line x1="644.00" y1="690.34" x2="860.67" y2="690.34" stroke="#DAD5CB" stroke-width="1" stroke-linecap="round"/><path d="M651.9999999999999 688.3419913419914 q34.666666666666664 -20 65.0 -2 t65.0 -4 t43.333333333333336 6" fill="none" stroke="#F98C68" stroke-width="2.6" stroke-linecap="round" stroke-linejoin="round"/><rect x="644.00" y="664.34" width="156.00" height="30.00" rx="3.00" fill="none" stroke="#4FC3E8" stroke-width="1" stroke-opacity="0.7" stroke-dasharray="4 3"/><rect x="641.00" y="661.34" width="6.00" height="6.00" rx="1.50" fill="#4FC3E8"/><rect x="797.00" y="661.34" width="6.00" height="6.00" rx="1.50" fill="#4FC3E8"/><rect x="641.00" y="691.34" width="6.00" height="6.00" rx="1.50" fill="#4FC3E8"/><rect x="797.00" y="691.34" width="6.00" height="6.00" rx="1.50" fill="#4FC3E8"/><rect x="748.00" y="822.39" width="104.00" height="26.00" rx="13.00" fill="#182434" stroke="#EDF3FA" stroke-width="1" stroke-opacity="0.2"/><text x="800.00" y="839.39" font-family="ui-sans-serif, -apple-system, 'SF Pro Text', 'Segoe UI', sans-serif" font-size="12" font-weight="600" fill="#AFC2D6" text-anchor="middle">2 · Place</text><path d="M1051.6666666666665 486.0 L1069.6666666666665 486.0 M1062.6666666666665 480.0 L1069.6666666666665 486.0 L1062.6666666666665 492.0" fill="none" stroke="#4FC3E8" stroke-width="2.2" stroke-linecap="round" stroke-linejoin="round"/><g filter="url(#winShadow)"><rect x="1082.67" y="165.61" width="477.33" height="640.77" rx="11.00" fill="url(#winGrad)"/><rect x="1082.67" y="165.61" width="477.33" height="640.77" rx="11.00" fill="none" stroke="#EDF3FA" stroke-width="1" stroke-opacity="0.1"/></g><rect x="1082.67" y="165.61" width="477.33" height="640.77" rx="11.00" fill="#0A101C"/><circle cx="1100.67" cy="187.61" r="6.20" fill="#FF5F57"/><circle cx="1120.67" cy="187.61" r="6.20" fill="#FEBC2E"/><circle cx="1140.67" cy="187.61" r="6.20" fill="#28C840"/><circle cx="1100.67" cy="187.61" r="6.20" fill="none" stroke="#000" stroke-width="0.5" opacity="0.15"/><circle cx="1120.67" cy="187.61" r="6.20" fill="none" stroke="#000" stroke-width="0.5" opacity="0.15"/><circle cx="1140.67" cy="187.61" r="6.20" fill="none" stroke="#000" stroke-width="0.5" opacity="0.15"/><line x1="1082.67" y1="205.61" x2="1560.00" y2="205.61" stroke="#EDF3FA" stroke-width="1" stroke-linecap="round" opacity="0.08"/><rect x="1104.67" y="217.61" width="433.33" height="562.77" rx="4.00" fill="url(#paperGrad)" stroke="#0A0F19" stroke-width="1" stroke-opacity="0.25"/><rect x="1104.67" y="217.61" width="433.33" height="562.77" rx="4.00" fill="none" stroke="#000" stroke-width="1" stroke-opacity="0.05"/><circle cx="1160.33" cy="283.52" r="9.00" fill="#4FC3E8" opacity="0.9"/><text x="1176.33" y="287.52" font-family="ui-serif, 'New York', Georgia, 'Songti SC', serif" font-size="11" font-weight="700" fill="#1C2230" text-anchor="start">NORTHWIND &amp; CO.</text><line x1="1152.33" y1="301.52" x2="1490.33" y2="301.52" stroke="#DAD5CB" stroke-width="1" stroke-linecap="round"/><line x1="1152.33" y1="321.52" x2="1267.25" y2="321.52" stroke="#43485A" stroke-width="3" stroke-linecap="round" opacity="0.75"/><text x="1152.33" y="343.52" font-family="ui-sans-serif, -apple-system, 'SF Pro Text', 'Segoe UI', sans-serif" font-size="12" font-weight="700" fill="#1C2230" text-anchor="start"></text><line x1="1152.33" y1="339.52" x2="1355.13" y2="339.52" stroke="#1C2230" stroke-width="4" stroke-linecap="round" opacity="0.9"/><line x1="1152.33" y1="361.52" x2="1490.33" y2="361.52" stroke="#43485A" stroke-width="2.4" stroke-linecap="round" opacity="0.55"/><line x1="1152.33" y1="376.52" x2="1470.05" y2="376.52" stroke="#43485A" stroke-width="2.4" stroke-linecap="round" opacity="0.55"/><line x1="1152.33" y1="391.52" x2="1480.19" y2="391.52" stroke="#43485A" stroke-width="2.4" stroke-linecap="round" opacity="0.55"/><line x1="1152.33" y1="406.52" x2="1361.89" y2="406.52" stroke="#43485A" stroke-width="2.4" stroke-linecap="round" opacity="0.55"/><line x1="1152.33" y1="429.52" x2="1490.33" y2="429.52" stroke="#43485A" stroke-width="2.4" stroke-linecap="round" opacity="0.55"/><line x1="1152.33" y1="444.52" x2="1456.53" y2="444.52" stroke="#43485A" stroke-width="2.4" stroke-linecap="round" opacity="0.55"/><line x1="1152.33" y1="459.52" x2="1483.57" y2="459.52" stroke="#43485A" stroke-width="2.4" stroke-linecap="round" opacity="0.55"/><line x1="1152.33" y1="474.52" x2="1449.77" y2="474.52" stroke="#43485A" stroke-width="2.4" stroke-linecap="round" opacity="0.55"/><line x1="1152.33" y1="489.52" x2="1321.33" y2="489.52" stroke="#43485A" stroke-width="2.4" stroke-linecap="round" opacity="0.55"/><line x1="1152.33" y1="690.34" x2="1294.29" y2="690.34" stroke="#DAD5CB" stroke-width="1" stroke-linecap="round"/><text x="1152.33" y="704.34" font-family="ui-sans-serif, -apple-system, 'SF Pro Text', 'Segoe UI', sans-serif" font-size="10" font-weight="400" fill="#43485A" text-anchor="start"></text><line x1="1165.33" y1="690.34" x2="1382.00" y2="690.34" stroke="#DAD5CB" stroke-width="1" stroke-linecap="round"/><path d="M1173.3333333333333 688.3419913419914 q34.666666666666664 -20 65.0 -2 t65.0 -4 t43.333333333333336 6" fill="none" stroke="#F98C68" stroke-width="2.6" stroke-linecap="round" stroke-linejoin="round"/><circle cx="1321.33" cy="499.00" r="30.00" fill="#74CDA4" opacity="0.14"/><g transform="translate(1299.33,477.00) scale(1.8333)" stroke="#74CDA4" stroke-width="0.927" fill="none" stroke-linecap="round" stroke-linejoin="round"><circle cx="12" cy="12" r="8.6" fill="#74CDA4"/><path d="M8.3 12.2l2.7 2.7 5-5.4" stroke="#0A101C" stroke-width="1.091"/></g><text x="1321.33" y="551.00" font-family="ui-sans-serif, -apple-system, 'SF Pro Text', 'Segoe UI', sans-serif" font-size="11.5" font-weight="600" fill="#2B3242" text-anchor="middle">Signed PDF saved</text><rect x="1269.33" y="822.39" width="104.00" height="26.00" rx="13.00" fill="#182434" stroke="#EDF3FA" stroke-width="1" stroke-opacity="0.2"/><text x="1321.33" y="839.39" font-family="ui-sans-serif, -apple-system, 'SF Pro Text', 'Segoe UI', sans-serif" font-size="12" font-weight="600" fill="#AFC2D6" text-anchor="middle">3 · Export</text></svg>