<svg viewBox="0 0 1024 1024" xmlns="http://www.w3.org/2000/svg">
<title>Orifold - origami crane</title>
<defs>
<clipPath id="f-clip"><rect x="6" y="6" width="1012" height="1012" rx="226"/></clipPath>
<linearGradient id="f-tile" x1="0" y1="1" x2="1" y2="0">
<stop offset="0" stop-color="#192c48"/>
<stop offset="0.52" stop-color="#2a4a6e"/>
<stop offset="1" stop-color="#5da9c2"/>
</linearGradient>
<radialGradient id="f-sun" cx="0.4" cy="0.34" r="0.8">
<stop offset="0" stop-color="#ea4b3c"/>
<stop offset="0.62" stop-color="#df3f38"/>
<stop offset="1" stop-color="#cb322e"/>
</radialGradient>
<radialGradient id="f-glow" cx="0.5" cy="0.5" r="0.5">
<stop offset="0.76" stop-color="#e63d38" stop-opacity="0"/>
<stop offset="0.86" stop-color="#e63d38" stop-opacity="0.16"/>
<stop offset="1" stop-color="#e63d38" stop-opacity="0"/>
</radialGradient>
<linearGradient id="f-paper" x1="0" y1="0" x2="0.55" y2="1">
<stop offset="0" stop-color="#fffdf9"/>
<stop offset="1" stop-color="#f1ecdf"/>
</linearGradient>
<radialGradient id="f-seat" cx="0.5" cy="0.5" r="0.5">
<stop offset="0" stop-color="#0d1626" stop-opacity="0.16"/>
<stop offset="1" stop-color="#0d1626" stop-opacity="0"/>
</radialGradient>
</defs>
<g clip-path="url(#f-clip)">
<rect x="6" y="6" width="1012" height="1012" fill="url(#f-tile)"/>
<rect x="46" y="46" width="932" height="932" rx="190" fill="none" stroke="#ffffff" stroke-opacity="0.07" stroke-width="3"/>
<circle cx="672" cy="330" r="286" fill="url(#f-glow)"/>
<circle cx="672" cy="330" r="252" fill="url(#f-sun)"/>
<circle cx="672" cy="330" r="250" fill="none" stroke="#9c1f22" stroke-opacity="0.28" stroke-width="4"/>
<ellipse cx="530" cy="640" rx="200" ry="85" fill="url(#f-seat)"/>
<path fill="url(#f-paper)" d="M932 284 L840 310 L630 512 L540 668 L388 560 L196 282 L216 254 L420 452 L428 132 L498 328 L586 164 L632 448 L846 232 Z"/>
<path fill="#e6e2d7" d="M498 328 L586 164 L632 448 Z"/>
<path fill="#ece8dd" d="M428 132 L498 328 L464 448 L420 452 Z"/>
<path fill="#dcd6c9" d="M630 512 L540 668 L400 556 Z"/>
<path fill="#e2ddd1" d="M388 560 L196 282 L372 505 Z"/>
<path fill="#efe9db" d="M632 508 L800 348 L668 462 Z"/>
<path fill="#e9e4d8" d="M840 310 L932 284 L858 292 Z"/>
<path fill="#ffffff" fill-opacity="0.35" d="M422 136 L430 134 L500 326 L492 328 Z"/>
<path fill="#ffffff" fill-opacity="0.3" d="M634 446 L844 234 L848 240 L638 452 Z"/>
</g>
</svg>
