<svg xmlns="http://www.w3.org/2000/svg" viewBox="0 0 340 340" width="220" height="220" role="img" aria-label="Ori the origami Siberian: a front-facing seated paper cat with a cream ruff, tufted ears that twitch, a smoke mask, and a long tail that wraps around her front paws and sways slowly">
  <title>Orifold — Ori the origami Siberian, ears twitching and tail swaying</title>
  <defs>
    <linearGradient id="catTileG" x1="0" y1="1" x2="1" y2="0"><stop offset="0" stop-color="#2b4566"/><stop offset="1" stop-color="#75bfd4"/></linearGradient>
    <radialGradient id="catMoonG" cx="0.71" cy="0.30" r="0.20"><stop offset="0" stop-color="rgba(219,242,247,0.26)"/><stop offset="1" stop-color="rgba(179,230,242,0)"/></radialGradient>
    <radialGradient id="catTileGlow" cx="0.82" cy="0.2" r="0.75"><stop offset="0" stop-color="rgba(128,209,219,0.22)"/><stop offset="1" stop-color="rgba(128,209,219,0)"/></radialGradient>
    <radialGradient id="catContactG"><stop offset="0" stop-color="rgba(0,0,0,0.20)"/><stop offset="1" stop-color="rgba(0,0,0,0)"/></radialGradient>
    <radialGradient id="catIris" cx="0.4" cy="0.35" r="0.9"><stop offset="0" stop-color="#8fb4d4"/><stop offset="0.6" stop-color="#5d80a4"/><stop offset="1" stop-color="#3c5878"/></radialGradient>
    <filter id="catSoft" x="-30%" y="-30%" width="160%" height="160%"><feDropShadow dx="1" dy="3" stdDeviation="3" flood-color="#000000" flood-opacity="0.22"/></filter>

    <!-- Siberian paper tones: a richer, warmer silver-blue base plus a deeper smoke
         tone for the mask, matching the in-app palette (`siberianSlate`/`siberianSmoke`).
         Three-stop ramps so each facet carries a visible mid-tone roll, the way real
         paper curves through light. -->
    <linearGradient id="catHeadLit" x1="0" y1="0" x2="0.4" y2="1"><stop offset="0" stop-color="#f7f9fd"/><stop offset="0.45" stop-color="#dde3ef"/><stop offset="1" stop-color="#c5cddd"/></linearGradient>
    <linearGradient id="catHeadShade" x1="0" y1="0" x2="0.4" y2="1"><stop offset="0" stop-color="#b8c1d3"/><stop offset="0.5" stop-color="#9ba4b9"/><stop offset="1" stop-color="#8790a8"/></linearGradient>
    <linearGradient id="catSmoke" x1="0" y1="0" x2="0" y2="1"><stop offset="0" stop-color="#707a95"/><stop offset="0.5" stop-color="#566078"/><stop offset="1" stop-color="#414859"/></linearGradient>
    <linearGradient id="catEarLit" x1="0" y1="0" x2="0" y2="1"><stop offset="0" stop-color="#e8ecf5"/><stop offset="0.5" stop-color="#c5cdde"/><stop offset="1" stop-color="#adb6cd"/></linearGradient>
    <linearGradient id="catEarShade" x1="0" y1="0" x2="0" y2="1"><stop offset="0" stop-color="#a9b2c6"/><stop offset="0.5" stop-color="#8e97ae"/><stop offset="1" stop-color="#78819e"/></linearGradient>
    <linearGradient id="catInnerEar" x1="0" y1="0" x2="0" y2="1"><stop offset="0" stop-color="#ffd6de"/><stop offset="0.5" stop-color="#f2b4c2"/><stop offset="1" stop-color="#e79cae"/></linearGradient>
    <linearGradient id="catBodyLit" x1="0" y1="0" x2="0.3" y2="1"><stop offset="0" stop-color="#e2e7f2"/><stop offset="0.5" stop-color="#c6cde0"/><stop offset="1" stop-color="#adb6cd"/></linearGradient>
    <linearGradient id="catBodyShade" x1="0" y1="0" x2="0.5" y2="1"><stop offset="0" stop-color="#abb4c8"/><stop offset="0.5" stop-color="#8d96ad"/><stop offset="1" stop-color="#757e9b"/></linearGradient>
    <linearGradient id="catCream" x1="0" y1="0" x2="0" y2="1"><stop offset="0" stop-color="#fffdf6"/><stop offset="0.45" stop-color="#f4ead4"/><stop offset="1" stop-color="#e9dcbf"/></linearGradient>
    <linearGradient id="catCreamShade" x1="0" y1="0" x2="0.6" y2="1"><stop offset="0" stop-color="#eee1c6"/><stop offset="0.5" stop-color="#ddcdab"/><stop offset="1" stop-color="#cfc0a0"/></linearGradient>
    <linearGradient id="catTailLit" x1="0" y1="0" x2="1" y2="0.3"><stop offset="0" stop-color="#e2e7f2"/><stop offset="0.5" stop-color="#c4cbdd"/><stop offset="1" stop-color="#aab3ca"/></linearGradient>
    <linearGradient id="catTailShade" x1="0" y1="1" x2="0.6" y2="0"><stop offset="0" stop-color="#9ea7bd"/><stop offset="0.5" stop-color="#838ca4"/><stop offset="1" stop-color="#6f7996"/></linearGradient>

    <!-- Paper tooth — dark fractal-noise speckle at a few percent alpha, the grain of
         handmade washi (dark, since Ori's paper is light). -->
    <filter id="catGrain" x="0" y="0" width="100%" height="100%"><feTurbulence type="fractalNoise" baseFrequency="0.9" numOctaves="2" seed="19" stitchTiles="stitch"/><feColorMatrix type="matrix" values="0 0 0 0 0  0 0 0 0 0  0 0 0 0 0  0 0 0 0.05 0"/></filter>
    <!-- Static silhouette (ears + tail excluded — they animate; grain must not float). -->
    <clipPath id="catFigureClip">
      <polygon points="128,206 148,196 140,254 114,244"/>
      <polygon points="192,196 212,206 226,244 200,254"/>
      <polygon points="170,185.3 170,277.1 126.5,270.3 145.5,190.4"/>
      <polygon points="170,185.3 194.5,190.4 213.5,270.3 170,277.1"/>
      <polygon points="170,190.4 184.3,244.8 170,268.6 155.7,244.8"/>
      <polygon points="150.3,263.5 169.3,262.5 169.3,278.1 148.2,278.1"/>
      <polygon points="170.7,262.5 189.7,263.5 191.8,278.1 170.7,278.1"/>
      <polygon points="170,97.9 170,186.3 138.7,170.7 123.1,138.7"/>
      <polygon points="170,97.9 216.9,138.7 201.3,170.7 170,186.3"/>
      <polygon points="123.1,138.7 138.7,170.7 118.0,192.0 100.0,160.0"/>
      <polygon points="216.9,138.7 201.3,170.7 222.0,192.0 240.0,160.0"/>
    </clipPath>
  </defs>

  <clipPath id="catTileClip"><rect width="340" height="340" rx="75"/></clipPath>
  <g clip-path="url(#catTileClip)">
    <rect width="340" height="340" fill="url(#catTileG)"/>
    <rect width="340" height="340" fill="url(#catMoonG)"/>
    <rect width="340" height="340" fill="url(#catTileGlow)"/>
    <rect x="19" y="19" width="303" height="303" rx="56" fill="none" stroke="rgba(255,255,255,0.06)"/>
    <rect x="37" y="37" width="265" height="265" rx="37" fill="none" stroke="rgba(255,255,255,0.06)"/>

    <ellipse cx="170" cy="290" rx="70" ry="11" fill="url(#catContactG)"/>
    <ellipse cx="170" cy="288" rx="44" ry="7" fill="rgba(0,0,0,0.15)"/>

    <g filter="url(#catSoft)">
      <!-- Tail — a long layered plume that wraps around the front of her seated
           paws (composed, not raised), cream-tipped; sways in a slow, smooth curl
           (nothing like a dog wag), pivoting near its root by the haunch. -->
      <g transform="rotate(0 216 248)">
        <animateTransform attributeName="transform" type="rotate" values="-6 216 248;6 216 248;-6 216 248" keyTimes="0;0.5;1" dur="3.6s" repeatCount="indefinite" calcMode="spline" keySplines="0.45 0 0.55 1;0.45 0 0.55 1"/>
        <!-- Underside sliver at the root — the fold turning away from the light. -->
        <polygon points="220.3,255.4 233.7,279.1 226.0,283.0 213.0,262.0" fill="#5a6480"/>
        <polygon points="220.3,255.4 197.9,268.6 210.1,306.8 233.7,279.1" fill="url(#catTailShade)"/>
        <polygon points="197.9,268.6 164.9,274.7 163.2,316.9 210.1,306.8" fill="url(#catTailLit)"/>
        <!-- Fold shadows where the plume segments overlap. -->
        <line x1="199.5" y1="270" x2="210.8" y2="305" stroke="rgba(0,0,0,0.18)" stroke-width="1.5"/>
        <line x1="165.8" y1="276" x2="164.2" y2="315" stroke="rgba(0,0,0,0.16)" stroke-width="1.5"/>
        <polygon points="164.9,274.7 132.6,272.1 116.1,305.2 163.2,316.9" fill="url(#catCream)"/>
        <!-- Cream tip median crease. -->
        <line x1="148" y1="277" x2="140" y2="310" stroke="rgba(0,0,0,0.10)" stroke-width="1"/>
      </g>

      <!-- Hip folds — wider haunches behind the seated bell, the Siberian bulk. -->
      <polygon points="128,206 148,196 140,254 114,244" fill="url(#catBodyShade)" opacity="0.9"/>
      <polygon points="192,196 212,206 226,244 200,254" fill="url(#catBodyShade)" opacity="0.75"/>

      <!-- Body — compact seated bell: shadowed left, lit right, bright chest kite,
           two cream "mitten" front paws. -->
      <polygon points="170,185.3 170,277.1 126.5,270.3 145.5,190.4" fill="url(#catBodyShade)"/>
      <polygon points="170,185.3 194.5,190.4 213.5,270.3 170,277.1" fill="url(#catBodyLit)"/>
      <polygon points="170,190.4 184.3,244.8 170,268.6 155.7,244.8" fill="url(#catCream)"/>
      <!-- Chest keel crease. -->
      <line x1="170" y1="193" x2="170" y2="266" stroke="rgba(255,255,255,0.30)" stroke-width="1"/>
      <polygon points="150.3,263.5 169.3,262.5 169.3,278.1 148.2,278.1" fill="url(#catCream)"/>
      <polygon points="170.7,262.5 189.7,263.5 191.8,278.1 170.7,278.1" fill="url(#catCream)"/>
      <!-- Toe creases on the mittens. -->
      <line x1="158" y1="266" x2="158" y2="277" stroke="rgba(0,0,0,0.14)" stroke-width="1"/>
      <line x1="180" y1="266" x2="180" y2="277" stroke="rgba(0,0,0,0.14)" stroke-width="1"/>

      <!-- Occlusion — soft shadow where the head and ruff sit over the chest. -->
      <polygon points="170,186 188,193 170,206 152,193" fill="#000000" opacity="0.14"/>

      <!-- Ears — wide tufted cat ears rooted on the crown, small cream lynx tips at
           each apex (the Siberian signature); they twitch in quick, sharp flicks
           around the crown center. -->
      <g transform="rotate(0 170 112)">
        <animateTransform attributeName="transform" type="rotate" values="0 170 112;0 170 112;-8 170 112;6 170 112;0 170 112;0 170 112" keyTimes="0;0.6;0.7;0.8;0.9;1" dur="3.2s" repeatCount="indefinite" calcMode="spline" keySplines="0.3 0 0.15 1;0.3 0 0.15 1;0.3 0 0.15 1;0.3 0 0.15 1;0.3 0 0.15 1"/>
        <polygon points="136.7,126.5 131.2,62.6 162.5,104.0" fill="url(#catEarLit)"/>
        <polygon points="140.8,119.7 135.3,78.2 156.4,104.0" fill="url(#catInnerEar)"/>
        <!-- Ear fold creases. -->
        <line x1="139" y1="116" x2="133.5" y2="70" stroke="rgba(255,255,255,0.30)" stroke-width="1"/>
        <polygon points="131.2,62.6 122.0,49.4 138.9,57.8" fill="url(#catCream)"/>
        <polygon points="177.5,104.0 208.8,62.6 203.3,126.5" fill="url(#catEarShade)"/>
        <polygon points="183.6,104.0 204.7,78.2 199.2,119.7" fill="url(#catInnerEar)" opacity="0.9"/>
        <line x1="201" y1="116" x2="206.5" y2="70" stroke="rgba(255,255,255,0.22)" stroke-width="1"/>
        <polygon points="208.8,62.6 218.0,49.4 201.1,57.8" fill="url(#catCream)"/>
        <!-- Lynx-tuft inner folds — a second facet at each tip so the tufts read plush. -->
        <polygon points="129,59 124,52.5 133.5,56.5" fill="url(#catCreamShade)" opacity="0.85"/>
        <polygon points="211,59 216,52.5 206.5,56.5" fill="url(#catCreamShade)" opacity="0.85"/>
        <!-- Rim light on the far ear's outer edge. -->
        <line x1="208.8" y1="62.6" x2="203.3" y2="126.5" stroke="rgba(255,255,255,0.40)" stroke-width="1"/>
      </g>

      <!-- Head — a wide rounded diamond with cheek corners, split on a center keel,
           under a darker smoke mask leaving a cream blaze between the brows. -->
      <polygon points="170,97.9 170,186.3 138.7,170.7 123.1,138.7" fill="url(#catHeadShade)"/>
      <polygon points="170,97.9 216.9,138.7 201.3,170.7 170,186.3" fill="url(#catHeadLit)"/>
      <polygon points="170,97.9 123.1,138.7 146.0,120.0" fill="url(#catSmoke)" opacity="0.85"/>
      <polygon points="170,97.9 216.9,138.7 194.0,120.0" fill="url(#catSmoke)" opacity="0.85"/>
      <polygon points="159.5,132.0 170,109.0 180.5,132.0 170,140.0" fill="url(#catCream)"/>
      <line x1="170" y1="97.9" x2="170" y2="186.3" stroke="rgba(255,255,255,0.35)" stroke-width="1"/>
      <!-- Occlusion — ear bases shadowing the crown (painted over the mask so the
           shadow actually lands on the head). -->
      <polygon points="142,118 160,104 152,124" fill="#000000" opacity="0.16"/>
      <polygon points="198,118 180,104 188,124" fill="#000000" opacity="0.16"/>

      <!-- Ruff — a layered cream collar framing the jaw and flowing into the chest:
           a shaded inner layer under the jaw, the bright outer quads, and serrated
           lower points, so the plush reads as folded paper depth. -->
      <polygon points="138.7,170.7 156,182 142,198 124,186" fill="url(#catCreamShade)"/>
      <polygon points="201.3,170.7 184,182 198,198 216,186" fill="url(#catCreamShade)"/>
      <polygon points="123.1,138.7 138.7,170.7 118.0,192.0 100.0,160.0" fill="url(#catCream)"/>
      <polygon points="216.9,138.7 201.3,170.7 222.0,192.0 240.0,160.0" fill="url(#catCream)"/>
      <!-- Serrated ruff points hanging under the collar. -->
      <polygon points="110,178 124,190 104,194" fill="url(#catCreamShade)"/>
      <polygon points="230,178 216,190 236,194" fill="url(#catCreamShade)"/>
      <!-- Ruff fold creases. -->
      <line x1="112" y1="152" x2="122" y2="184" stroke="rgba(0,0,0,0.10)" stroke-width="1"/>
      <line x1="228" y1="152" x2="218" y2="184" stroke="rgba(0,0,0,0.10)" stroke-width="1"/>

      <!-- Eyes — slate-blue Siberian irises inside the dark almonds, vertical pupil
           slivers, doubled catchlights, and lash creases: calm, knowing, unmistakably hers. -->
      <line x1="136.5" y1="134.3" x2="160.5" y2="134.1" stroke="rgba(35,39,51,0.5)" stroke-width="1.4"/>
      <line x1="179.5" y1="134.1" x2="203.5" y2="134.3" stroke="rgba(35,39,51,0.5)" stroke-width="1.4"/>
      <polygon points="138.0,135.5 159.1,135.3 157.1,146.9" fill="#232733"/>
      <polygon points="180.9,135.3 202.0,135.5 182.9,146.9" fill="#232733"/>
      <polygon points="146,136.6 154.5,136.3 153.8,142.6 150.2,142.2" fill="url(#catIris)"/>
      <polygon points="194,136.6 185.5,136.3 186.2,142.6 189.8,142.2" fill="url(#catIris)"/>
      <polygon points="149.6,136.8 151.4,136.7 151.0,142.0 150.0,141.9" fill="#10141d"/>
      <polygon points="190.4,136.7 188.6,136.8 189.0,141.9 190.0,142.0" fill="#10141d"/>
      <polygon points="146.9,138.4 152.0,137.4 150.6,141.1" fill="#ffffff" opacity="0.92"/>
      <polygon points="186.7,137.4 191.8,138.4 188.0,141.1" fill="#ffffff" opacity="0.92"/>
      <polygon points="152.6,140.8 154.0,140.5 153.2,142.2" fill="#ffffff" opacity="0.45"/>
      <polygon points="187.4,140.5 186.0,140.8 186.8,142.2" fill="#ffffff" opacity="0.45"/>
      <!-- Brow creases on the smoke mask. -->
      <line x1="140" y1="129" x2="156" y2="127" stroke="rgba(255,255,255,0.20)" stroke-width="1"/>
      <line x1="184" y1="127" x2="200" y2="129" stroke="rgba(255,255,255,0.20)" stroke-width="1"/>

      <!-- Whiskers — three per cheek, varied length and weight, each with a faint
           dark under-line so they lift off the paper. -->
      <line x1="153.7" y1="161.7" x2="126.5" y2="156.9" stroke="rgba(0,0,0,0.12)" stroke-width="1"/>
      <line x1="186.3" y1="161.7" x2="213.5" y2="156.9" stroke="rgba(0,0,0,0.12)" stroke-width="1"/>
      <line x1="153.7" y1="160.5" x2="126.5" y2="155.7" stroke="rgba(255,255,255,0.38)" stroke-width="1"/>
      <line x1="153.7" y1="163.9" x2="124.9" y2="163.2" stroke="rgba(255,255,255,0.28)" stroke-width="1"/>
      <line x1="153.7" y1="167.3" x2="127.8" y2="170.7" stroke="rgba(255,255,255,0.38)" stroke-width="1"/>
      <line x1="186.3" y1="160.5" x2="213.5" y2="155.7" stroke="rgba(255,255,255,0.38)" stroke-width="1"/>
      <line x1="186.3" y1="163.9" x2="215.1" y2="163.2" stroke="rgba(255,255,255,0.28)" stroke-width="1"/>
      <line x1="186.3" y1="167.3" x2="212.2" y2="170.7" stroke="rgba(255,255,255,0.38)" stroke-width="1"/>

      <!-- Muzzle + tiny pink nose, cream, with a moist highlight and a philtrum crease. -->
      <polygon points="157.8,156.4 182.2,156.4 170,174.1" fill="url(#catCream)"/>
      <polygon points="163.9,156.4 176.1,156.4 170,164.9" fill="url(#catInnerEar)"/>
      <polygon points="166.5,157.2 170.5,157.2 168.2,159.6" fill="#ffffff" opacity="0.6"/>
      <line x1="170" y1="161.5" x2="170" y2="164.4" stroke="rgba(120,40,60,0.4)" stroke-width="1"/>

      <!-- Specular sheen — the cool sky light of the tile catching the head's lit facet. -->
      <polygon points="176,106 206,134 180,150" fill="rgba(255,255,255,0.10)"/>

      <!-- Edge lighting — thin bright strokes tracing the fold edges that face the light. -->
      <line x1="170" y1="97.9" x2="216.9" y2="138.7" stroke="rgba(255,255,255,0.50)" stroke-width="1.2"/>
      <line x1="194.5" y1="190.4" x2="213.5" y2="270.3" stroke="rgba(255,255,255,0.30)" stroke-width="1.1"/>
      <line x1="216.9" y1="138.7" x2="240" y2="160" stroke="rgba(255,255,255,0.35)" stroke-width="1"/>
    </g>

    <!-- Paper grain overlay, clipped to the still parts of the figure (outside the
         drop-shadow group so the noise never casts its own shadow). -->
    <g clip-path="url(#catFigureClip)"><rect x="96" y="94" width="148" height="188" filter="url(#catGrain)"/></g>
  </g>
</svg>
