<svg width="1600" height="1000" viewBox="0 0 1600 1000" xmlns="http://www.w3.org/2000/svg" role="img" aria-labelledby="ti de" font-family="ui-sans-serif, -apple-system, 'SF Pro Text', 'Segoe UI', sans-serif"><title id="ti">Marking up a page from the annotation toolbar</title><desc id="de">An Orifold page with the highlight tool active in the annotation toolbar, a yellow highlight already placed over two lines of text, the color palette open, and the highlights listed in the inspector.</desc><defs>
  <linearGradient id="appGrad" x1="0" y1="0" x2="1" y2="1">
    <stop offset="0" stop-color="#7ADEF4"/><stop offset="1" stop-color="#4FC3E8"/></linearGradient>
  <linearGradient id="accentGrad" x1="0" y1="0" x2="1" y2="1">
    <stop offset="0" stop-color="#7ADEF4"/><stop offset="1" stop-color="#4FC3E8"/></linearGradient>
  <linearGradient id="winGrad" x1="0" y1="0" x2="0" y2="1">
    <stop offset="0" stop-color="#0C1524"/><stop offset="1" stop-color="#0A101C"/></linearGradient>
  <linearGradient id="paperGrad" x1="0" y1="0" x2="0" y2="1">
    <stop offset="0" stop-color="#FFFFFF"/><stop offset="1" stop-color="#F4F1EA"/></linearGradient>
  <filter id="winShadow" x="-20%" y="-20%" width="140%" height="140%">
    <feDropShadow dx="0" dy="14" stdDeviation="26" flood-color="#000000" flood-opacity="0.5"/></filter>
  <filter id="softShadow" x="-40%" y="-40%" width="180%" height="180%">
    <feDropShadow dx="0" dy="6" stdDeviation="12" flood-color="#000000" flood-opacity="0.35"/></filter>
  <radialGradient id="glow" cx="0.5" cy="0.5" r="0.5">
    <stop offset="0" stop-color="#4FC3E8" stop-opacity="0.14"/>
    <stop offset="0.55" stop-color="#4FC3E8" stop-opacity="0.05"/>
    <stop offset="1" stop-color="#4FC3E8" stop-opacity="0"/></radialGradient>
  
</defs><rect width="1600" height="1000" fill="none"/><g filter="url(#winShadow)"><rect x="40.00" y="36.00" width="1520.00" height="928.00" rx="13.00" fill="url(#winGrad)"/><rect x="40.00" y="36.00" width="1520.00" height="928.00" rx="13.00" fill="none" stroke="#EDF3FA" stroke-width="1" stroke-opacity="0.1"/></g><line x1="40.00" y1="82.00" x2="1560.00" y2="82.00" stroke="#EDF3FA" stroke-width="1" stroke-linecap="round" opacity="0.1"/><circle cx="62.00" cy="59.00" r="6.20" fill="#FF5F57"/><circle cx="82.00" cy="59.00" r="6.20" fill="#FEBC2E"/><circle cx="102.00" cy="59.00" r="6.20" fill="#28C840"/><circle cx="62.00" cy="59.00" r="6.20" fill="none" stroke="#000" stroke-width="0.5" opacity="0.15"/><circle cx="82.00" cy="59.00" r="6.20" fill="none" stroke="#000" stroke-width="0.5" opacity="0.15"/><circle cx="102.00" cy="59.00" r="6.20" fill="none" stroke="#000" stroke-width="0.5" opacity="0.15"/><text x="126.00" y="63.00" font-family="ui-sans-serif, -apple-system, 'SF Pro Text', 'Segoe UI', sans-serif" font-size="13" font-weight="600" fill="#EDF3FA" text-anchor="start">Contract Packet</text><g transform="translate(276.50,50.50) scale(0.7083)" stroke="#AFC2D6" stroke-width="2.400" fill="none" stroke-linecap="round" stroke-linejoin="round"><circle cx="12" cy="12" r="8.5"/><path d="M12 8.2V15.8M8.2 12H15.8"/></g><g transform="translate(306.50,50.50) scale(0.7083)" stroke="#AFC2D6" stroke-width="2.400" fill="none" stroke-linecap="round" stroke-linejoin="round"><rect x="5" y="4.5" width="14" height="15" rx="2"/><path d="M8.5 9h7M8.5 12h7M8.5 15h4.5"/></g><rect x="658.00" y="44.00" width="284.00" height="30.00" rx="9.00" fill="#182434" fill-opacity="0.7" stroke="#EDF3FA" stroke-width="1" stroke-opacity="0.14"/><g transform="translate(668.00,51.00) scale(0.6667)" stroke="#AFC2D6" stroke-width="2.550" fill="none" stroke-linecap="round" stroke-linejoin="round"><path d="M7 5l11 6.5-4.7 1.2 2.7 5-2.2 1.1-2.7-5-3.4 3.4z" fill="#AFC2D6" fill-opacity="0.85"/></g><rect x="693.00" y="47.00" width="26.00" height="24.00" rx="7.00" fill="#4FC3E8" fill-opacity="0.18" stroke="#4FC3E8" stroke-width="1" stroke-opacity="0.55"/><g transform="translate(698.00,51.00) scale(0.6667)" stroke="#4FC3E8" stroke-width="2.550" fill="none" stroke-linecap="round" stroke-linejoin="round"><path d="M6 18.5l1.5-3 7.8-7.8 3 3-7.8 7.8-3 1.5z"/><path d="M13.5 6.2l2.3-2.3a1.4 1.4 0 0 1 2 0l1.5 1.5a1.4 1.4 0 0 1 0 2l-2.3 2.3"/><path d="M6 18.5l3 -1.5" stroke-width="3.600"/></g><g transform="translate(728.00,51.00) scale(0.6667)" stroke="#AFC2D6" stroke-width="2.550" fill="none" stroke-linecap="round" stroke-linejoin="round"><path d="M7 5v6a5 5 0 0 0 10 0V5"/><path d="M6 19.5h12"/></g><g transform="translate(758.00,51.00) scale(0.6667)" stroke="#AFC2D6" stroke-width="2.550" fill="none" stroke-linecap="round" stroke-linejoin="round"><path d="M8 7.5a4 4 0 0 1 8 .5M8.5 16a4 4 0 0 0 7.7-.8"/><path d="M4.5 12h15"/></g><g transform="translate(788.00,51.00) scale(0.6667)" stroke="#AFC2D6" stroke-width="2.550" fill="none" stroke-linecap="round" stroke-linejoin="round"><rect x="5" y="5" width="14" height="14" rx="2.4"/><path d="M8.5 9.5h7M8.5 12.5h7M8.5 15.5h4"/></g><g transform="translate(818.00,51.00) scale(0.6667)" stroke="#AFC2D6" stroke-width="2.550" fill="none" stroke-linecap="round" stroke-linejoin="round"><path d="M4.5 19c3-1 4-6 7-9s5.5-4 6.5-2.5-1.5 3-1 5 2 1.5 2.5 3"/></g><g transform="translate(848.00,51.00) scale(0.6667)" stroke="#AFC2D6" stroke-width="2.550" fill="none" stroke-linecap="round" stroke-linejoin="round"><path d="M5 17l4-10 4 10M6.5 13.5h5"/><path d="M14.5 17l3-7 3 7M15.6 14.6h3.8" stroke-width="2.100"/></g><g transform="translate(878.00,51.00) scale(0.6667)" stroke="#AFC2D6" stroke-width="2.550" fill="none" stroke-linecap="round" stroke-linejoin="round"><path d="M4.5 15.5c2 .3 3-1.2 3.6-3.4C8.8 9.4 9 6 10.4 6c1.1 0 .9 2.6 1.3 5s1 4.2 2.2 4.2c1.6 0 2-3.3 3.4-3.3.9 0 1.1 1.1 2.2 1.1"/><path d="M4.5 18.5h15" opacity="0.5"/></g><g transform="translate(908.00,51.00) scale(0.6667)" stroke="#AFC2D6" stroke-width="2.550" fill="none" stroke-linecap="round" stroke-linejoin="round"><path d="M12 4l1.9 1.4 2.3-.3 .9 2.2 2 1.2-.7 2.3.7 2.3-2 1.2-.9 2.2-2.3-.3L12 20l-1.9-1.4-2.3.3-.9-2.2-2-1.2.7-2.3-.7-2.3 2-1.2.9-2.2 2.3.3z"/><path d="M9.5 12l1.8 1.8 3.4-3.6"/></g><circle cx="958.00" cy="59.00" r="6.50" fill="#FBE382"/><circle cx="958.00" cy="59.00" r="6.50" fill="none" stroke="#EDF3FA" stroke-width="1" opacity="0.2"/><g transform="translate(1377.50,50.50) scale(0.7083)" stroke="#AFC2D6" stroke-width="2.400" fill="none" stroke-linecap="round" stroke-linejoin="round"><path d="M12 6.5C10.5 5.3 8 5 5.5 5.4V17.6C8 17.2 10.5 17.5 12 18.6M12 6.5C13.5 5.3 16 5 18.5 5.4V17.6C16 17.2 13.5 17.5 12 18.6M12 6.5V18.6"/></g><g transform="translate(1407.50,50.50) scale(0.7083)" stroke="#AFC2D6" stroke-width="2.400" fill="none" stroke-linecap="round" stroke-linejoin="round"><circle cx="10.5" cy="10.5" r="5.5"/><path d="M14.6 14.6L19 19"/></g><g transform="translate(1437.50,50.50) scale(0.7083)" stroke="#AFC2D6" stroke-width="2.400" fill="none" stroke-linecap="round" stroke-linejoin="round"><path d="M12 4.5L12 14.5M8.4 8L12 4.4L15.6 8"/><path d="M6 13v5.5a1 1 0 0 0 1 1h10a1 1 0 0 0 1-1V13"/></g><g transform="translate(1467.50,50.50) scale(0.7083)" stroke="#AFC2D6" stroke-width="2.400" fill="none" stroke-linecap="round" stroke-linejoin="round"><rect x="4" y="5" width="16" height="14" rx="2"/><path d="M15 5v14"/></g><g transform="translate(1497.50,50.50) scale(0.7083)" stroke="#AFC2D6" stroke-width="2.400" fill="none" stroke-linecap="round" stroke-linejoin="round"><circle cx="7" cy="14" r="3.2"/><circle cx="17" cy="14" r="3.2"/><path d="M10.2 13.5c.9-1 2.7-1 3.6 0M4 12l1.4-5.2a1.6 1.6 0 0 1 1.5-1.1M20 12l-1.4-5.2a1.6 1.6 0 0 0-1.5-1.1"/></g><g transform="translate(1527.50,50.50) scale(0.7083)" stroke="#AFC2D6" stroke-width="2.400" fill="none" stroke-linecap="round" stroke-linejoin="round"><circle cx="12" cy="12" r="8.5"/><path d="M9.6 9.6a2.5 2.5 0 0 1 4.8.9c0 1.7-2.4 2-2.4 3.6"/><circle cx="12" cy="17" r="0.4" fill="#AFC2D6"/></g><rect x="40.00" y="82.00" width="232.00" height="882.00" rx="0.00" fill="#111A29"/><line x1="272.00" y1="82.00" x2="272.00" y2="964.00" stroke="#EDF3FA" stroke-width="1" stroke-linecap="round" opacity="0.1"/><path d="M62 94 L250 94 L260 104 L260 170 Q260 180 250 180 L62 180 Q52 180 52 170 L52 104 Q52 94 62 94 Z" fill="#182434" opacity="0.72"/><path d="M62 94 L250 94 L260 104 L260 170 Q260 180 250 180 L62 180 Q52 180 52 170 L52 104 Q52 94 62 94 Z" fill="none" stroke="#EDF3FA" stroke-width="1" stroke-linecap="round" stroke-linejoin="round" opacity="0.14"/><path d="M63.32 103.0 L70.88 103.0 L77.0 109.12 L77.0 116.68 Q77.0 121.0 72.68 121.0 L63.32 121.0 Q59.0 121.0 59.0 116.68 L59.0 107.32 Q59.0 103.0 63.32 103.0 Z" fill="url(#appGrad)"/><path d="M70.88 103.0 L77.0 109.12 L70.88 109.12 Z" fill="#0A101C" fill-opacity="0.28"/><path d="M64.04 113.8 L67.28 109.84 L71.96 114.88" stroke="#0A2A3A" stroke-width="1.08" fill="none" stroke-linecap="round" stroke-linejoin="round" opacity="0.55"/><text x="82.00" y="116.00" font-family="ui-serif, 'New York', Georgia, 'Songti SC', serif" font-size="12.5" font-weight="600" fill="#EDF3FA" text-anchor="start" letter-spacing="0.4">Contract Packet</text><g transform="translate(238.50,104.50) scale(0.6250)" stroke="#7C8FA3" stroke-width="2.720" fill="none" stroke-linecap="round" stroke-linejoin="round"><circle cx="6.5" cy="12" r="1.1" fill="#7C8FA3"/><circle cx="12" cy="12" r="1.1" fill="#7C8FA3"/><circle cx="17.5" cy="12" r="1.1" fill="#7C8FA3"/></g><text x="64.00" y="136.00" font-family="ui-sans-serif, -apple-system, 'SF Pro Text', 'Segoe UI', sans-serif" font-size="10.5" font-weight="500" fill="#7C8FA3" text-anchor="start">4 files · 14 pages · 2 comments</text><rect x="64.00" y="146.00" width="78.00" height="20.00" rx="10.00" fill="#4FC3E8" fill-opacity="0.2"/><g transform="translate(68.50,150.50) scale(0.4583)" stroke="#4FC3E8" stroke-width="4.364" fill="none" stroke-linecap="round" stroke-linejoin="round"><path d="M12 6V18M6 12H18"/></g><text x="84.00" y="159.50" font-family="ui-sans-serif, -apple-system, 'SF Pro Text', 'Segoe UI', sans-serif" font-size="11" font-weight="600" fill="#4FC3E8" text-anchor="start">Add Files</text><line x1="52.00" y1="192.00" x2="260.00" y2="192.00" stroke="#EDF3FA" stroke-width="1" stroke-linecap="round" opacity="0.1"/><text x="58.00" y="210.00" font-family="ui-sans-serif, -apple-system, 'SF Pro Text', 'Segoe UI', sans-serif" font-size="10.5" font-weight="600" fill="#7C8FA3" text-anchor="start" letter-spacing="0.6">DOCUMENTS</text><text x="134.00" y="210.00" font-family="ui-sans-serif, -apple-system, 'SF Pro Text', 'Segoe UI', sans-serif" font-size="10.5" font-weight="500" fill="#7C8FA3" text-anchor="start">· 4</text><rect x="54.00" y="224.00" width="204.00" height="44.00" rx="6.00" fill="#4FC3E8" fill-opacity="0.18" stroke="#4FC3E8" stroke-width="0.75" stroke-opacity="0.25"/><rect x="54.00" y="228.00" width="2.00" height="36.00" rx="1.00" fill="#4FC3E8"/><g transform="translate(63.00,241.00) scale(0.4167)" stroke="#7C8FA3" stroke-width="4.080" fill="none" stroke-linecap="round" stroke-linejoin="round"><path d="M9.5 6l6 6-6 6"/></g><rect x="80.00" y="229.00" width="26.00" height="34.00" rx="3.00" fill="#EAE7DF"/><rect x="80.00" y="229.00" width="26.00" height="34.00" rx="3.00" fill="none" stroke="#EDF3FA" stroke-width="1" stroke-opacity="0.3"/><line x1="84.00" y1="237.00" x2="102.00" y2="237.00" stroke="#B9B3A6" stroke-width="1" stroke-linecap="round" opacity="0.9"/><line x1="84.00" y1="243.00" x2="102.00" y2="243.00" stroke="#B9B3A6" stroke-width="1" stroke-linecap="round" opacity="0.9"/><line x1="84.00" y1="249.00" x2="102.00" y2="249.00" stroke="#B9B3A6" stroke-width="1" stroke-linecap="round" opacity="0.9"/><line x1="84.00" y1="255.00" x2="102.00" y2="255.00" stroke="#B9B3A6" stroke-width="1" stroke-linecap="round" opacity="0.9"/><rect x="78.00" y="254.00" width="16.00" height="8.00" rx="2.00" fill="#EF8A7E"/><text x="86.00" y="260.50" font-family="ui-sans-serif, -apple-system, 'SF Pro Text', 'Segoe UI', sans-serif" font-size="5.5" font-weight="800" fill="#FFFFFF" text-anchor="middle">PDF</text><text x="114.00" y="244.00" font-family="ui-sans-serif, -apple-system, 'SF Pro Text', 'Segoe UI', sans-serif" font-size="12.5" font-weight="600" fill="#EDF3FA" text-anchor="start">Cover Letter</text><text x="114.00" y="259.00" font-family="ui-sans-serif, -apple-system, 'SF Pro Text', 'Segoe UI', sans-serif" font-size="10.5" font-weight="500" fill="#7C8FA3" text-anchor="start">3 pages · 1 comment</text><g transform="translate(241.00,239.00) scale(0.5833)" stroke="#7C8FA3" stroke-width="2.914" fill="none" stroke-linecap="round" stroke-linejoin="round"><circle cx="6.5" cy="12" r="1.1" fill="#7C8FA3"/><circle cx="12" cy="12" r="1.1" fill="#7C8FA3"/><circle cx="17.5" cy="12" r="1.1" fill="#7C8FA3"/></g><g transform="translate(63.00,291.00) scale(0.4167)" stroke="#7C8FA3" stroke-width="4.080" fill="none" stroke-linecap="round" stroke-linejoin="round"><path d="M9.5 6l6 6-6 6"/></g><rect x="80.00" y="279.00" width="26.00" height="34.00" rx="3.00" fill="#EAE7DF"/><rect x="80.00" y="279.00" width="26.00" height="34.00" rx="3.00" fill="none" stroke="#EDF3FA" stroke-width="1" stroke-opacity="0.3"/><line x1="84.00" y1="287.00" x2="102.00" y2="287.00" stroke="#B9B3A6" stroke-width="1" stroke-linecap="round" opacity="0.9"/><line x1="84.00" y1="293.00" x2="102.00" y2="293.00" stroke="#B9B3A6" stroke-width="1" stroke-linecap="round" opacity="0.9"/><line x1="84.00" y1="299.00" x2="102.00" y2="299.00" stroke="#B9B3A6" stroke-width="1" stroke-linecap="round" opacity="0.9"/><line x1="84.00" y1="305.00" x2="102.00" y2="305.00" stroke="#B9B3A6" stroke-width="1" stroke-linecap="round" opacity="0.9"/><rect x="78.00" y="304.00" width="16.00" height="8.00" rx="2.00" fill="#EF8A7E"/><text x="86.00" y="310.50" font-family="ui-sans-serif, -apple-system, 'SF Pro Text', 'Segoe UI', sans-serif" font-size="5.5" font-weight="800" fill="#FFFFFF" text-anchor="middle">PDF</text><text x="114.00" y="294.00" font-family="ui-sans-serif, -apple-system, 'SF Pro Text', 'Segoe UI', sans-serif" font-size="12.5" font-weight="600" fill="#EDF3FA" text-anchor="start">Invoice_Q3.pdf</text><text x="114.00" y="309.00" font-family="ui-sans-serif, -apple-system, 'SF Pro Text', 'Segoe UI', sans-serif" font-size="10.5" font-weight="500" fill="#7C8FA3" text-anchor="start">2 pages</text><g transform="translate(63.00,341.00) scale(0.4167)" stroke="#7C8FA3" stroke-width="4.080" fill="none" stroke-linecap="round" stroke-linejoin="round"><path d="M9.5 6l6 6-6 6"/></g><rect x="80.00" y="329.00" width="26.00" height="34.00" rx="3.00" fill="#EAE7DF"/><rect x="80.00" y="329.00" width="26.00" height="34.00" rx="3.00" fill="none" stroke="#EDF3FA" stroke-width="1" stroke-opacity="0.3"/><line x1="84.00" y1="337.00" x2="102.00" y2="337.00" stroke="#B9B3A6" stroke-width="1" stroke-linecap="round" opacity="0.9"/><line x1="84.00" y1="343.00" x2="102.00" y2="343.00" stroke="#B9B3A6" stroke-width="1" stroke-linecap="round" opacity="0.9"/><line x1="84.00" y1="349.00" x2="102.00" y2="349.00" stroke="#B9B3A6" stroke-width="1" stroke-linecap="round" opacity="0.9"/><line x1="84.00" y1="355.00" x2="102.00" y2="355.00" stroke="#B9B3A6" stroke-width="1" stroke-linecap="round" opacity="0.9"/><rect x="78.00" y="354.00" width="16.00" height="8.00" rx="2.00" fill="#1A9BA6"/><text x="86.00" y="360.50" font-family="ui-sans-serif, -apple-system, 'SF Pro Text', 'Segoe UI', sans-serif" font-size="5.5" font-weight="800" fill="#FFFFFF" text-anchor="middle">IMG</text><text x="114.00" y="344.00" font-family="ui-sans-serif, -apple-system, 'SF Pro Text', 'Segoe UI', sans-serif" font-size="12.5" font-weight="600" fill="#EDF3FA" text-anchor="start">Site-Photos</text><text x="114.00" y="359.00" font-family="ui-sans-serif, -apple-system, 'SF Pro Text', 'Segoe UI', sans-serif" font-size="10.5" font-weight="500" fill="#7C8FA3" text-anchor="start">4 pages</text><g transform="translate(63.00,391.00) scale(0.4167)" stroke="#7C8FA3" stroke-width="4.080" fill="none" stroke-linecap="round" stroke-linejoin="round"><path d="M9.5 6l6 6-6 6"/></g><rect x="80.00" y="379.00" width="26.00" height="34.00" rx="3.00" fill="#EAE7DF"/><rect x="80.00" y="379.00" width="26.00" height="34.00" rx="3.00" fill="none" stroke="#EDF3FA" stroke-width="1" stroke-opacity="0.3"/><line x1="84.00" y1="387.00" x2="102.00" y2="387.00" stroke="#B9B3A6" stroke-width="1" stroke-linecap="round" opacity="0.9"/><line x1="84.00" y1="393.00" x2="102.00" y2="393.00" stroke="#B9B3A6" stroke-width="1" stroke-linecap="round" opacity="0.9"/><line x1="84.00" y1="399.00" x2="102.00" y2="399.00" stroke="#B9B3A6" stroke-width="1" stroke-linecap="round" opacity="0.9"/><line x1="84.00" y1="405.00" x2="102.00" y2="405.00" stroke="#B9B3A6" stroke-width="1" stroke-linecap="round" opacity="0.9"/><rect x="78.00" y="404.00" width="16.00" height="8.00" rx="2.00" fill="#1A4E85"/><text x="86.00" y="410.50" font-family="ui-sans-serif, -apple-system, 'SF Pro Text', 'Segoe UI', sans-serif" font-size="5.5" font-weight="800" fill="#FFFFFF" text-anchor="middle">DOC</text><text x="114.00" y="394.00" font-family="ui-sans-serif, -apple-system, 'SF Pro Text', 'Segoe UI', sans-serif" font-size="12.5" font-weight="600" fill="#EDF3FA" text-anchor="start">Signed_NDA</text><text x="114.00" y="409.00" font-family="ui-sans-serif, -apple-system, 'SF Pro Text', 'Segoe UI', sans-serif" font-size="10.5" font-weight="500" fill="#7C8FA3" text-anchor="start">5 pages</text><rect x="272.00" y="82.00" width="1008.00" height="882.00" rx="0.00" fill="#0A101C"/><rect x="474.16" y="125.00" width="603.68" height="784.00" rx="4.00" fill="url(#paperGrad)" stroke="#0A0F19" stroke-width="1" stroke-opacity="0.25"/><rect x="474.16" y="125.00" width="603.68" height="784.00" rx="4.00" fill="none" stroke="#000" stroke-width="1" stroke-opacity="0.05"/><circle cx="548.56" cy="215.24" r="9.00" fill="#4FC3E8" opacity="0.9"/><text x="564.56" y="219.24" font-family="ui-serif, 'New York', Georgia, 'Songti SC', serif" font-size="11" font-weight="700" fill="#1C2230" text-anchor="start">NORTHWIND &amp; CO.</text><line x1="540.56" y1="233.24" x2="1011.44" y2="233.24" stroke="#DAD5CB" stroke-width="1" stroke-linecap="round"/><line x1="540.56" y1="253.24" x2="700.66" y2="253.24" stroke="#43485A" stroke-width="3" stroke-linecap="round" opacity="0.75"/><text x="540.56" y="275.24" font-family="ui-sans-serif, -apple-system, 'SF Pro Text', 'Segoe UI', sans-serif" font-size="12" font-weight="700" fill="#1C2230" text-anchor="start"></text><line x1="540.56" y1="271.24" x2="823.09" y2="271.24" stroke="#1C2230" stroke-width="4" stroke-linecap="round" opacity="0.9"/><line x1="540.56" y1="293.24" x2="1011.44" y2="293.24" stroke="#43485A" stroke-width="2.4" stroke-linecap="round" opacity="0.55"/><line x1="540.56" y1="308.24" x2="983.18" y2="308.24" stroke="#43485A" stroke-width="2.4" stroke-linecap="round" opacity="0.55"/><line x1="540.56" y1="323.24" x2="997.31" y2="323.24" stroke="#43485A" stroke-width="2.4" stroke-linecap="round" opacity="0.55"/><line x1="540.56" y1="338.24" x2="832.50" y2="338.24" stroke="#43485A" stroke-width="2.4" stroke-linecap="round" opacity="0.55"/><line x1="540.56" y1="361.24" x2="1011.44" y2="361.24" stroke="#43485A" stroke-width="2.4" stroke-linecap="round" opacity="0.55"/><line x1="540.56" y1="376.24" x2="964.35" y2="376.24" stroke="#43485A" stroke-width="2.4" stroke-linecap="round" opacity="0.55"/><line x1="540.56" y1="391.24" x2="1002.02" y2="391.24" stroke="#43485A" stroke-width="2.4" stroke-linecap="round" opacity="0.55"/><line x1="540.56" y1="406.24" x2="954.93" y2="406.24" stroke="#43485A" stroke-width="2.4" stroke-linecap="round" opacity="0.55"/><line x1="540.56" y1="421.24" x2="776.00" y2="421.24" stroke="#43485A" stroke-width="2.4" stroke-linecap="round" opacity="0.55"/><line x1="540.56" y1="783.56" x2="738.33" y2="783.56" stroke="#DAD5CB" stroke-width="1" stroke-linecap="round"/><text x="540.56" y="797.56" font-family="ui-sans-serif, -apple-system, 'SF Pro Text', 'Segoe UI', sans-serif" font-size="10" font-weight="400" fill="#43485A" text-anchor="start"></text><rect x="724.00" y="934.00" width="104.00" height="22.00" rx="11.00" fill="#182434" fill-opacity="0.9" stroke="#EDF3FA" stroke-width="1" stroke-opacity="0.16"/><text x="776.00" y="949.00" font-family="ui-sans-serif, -apple-system, 'SF Pro Text', 'Segoe UI', sans-serif" font-size="11" font-weight="500" fill="#AFC2D6" text-anchor="middle">Page 3 of 14</text><rect x="1280.00" y="82.00" width="280.00" height="882.00" rx="0.00" fill="#111A29"/><line x1="1280.00" y1="82.00" x2="1280.00" y2="964.00" stroke="#EDF3FA" stroke-width="1" stroke-linecap="round" opacity="0.1"/><text x="1296.00" y="102.00" font-family="ui-sans-serif, -apple-system, 'SF Pro Text', 'Segoe UI', sans-serif" font-size="13" font-weight="600" fill="#EDF3FA" text-anchor="start">Inspector</text><rect x="1296.00" y="116.00" width="248.00" height="28.00" rx="7.00" fill="#182434" fill-opacity="0.6" stroke="#EDF3FA" stroke-width="1" stroke-opacity="0.12"/><g transform="translate(1320.00,123.00) scale(0.5833)" stroke="#7C8FA3" stroke-width="2.914" fill="none" stroke-linecap="round" stroke-linejoin="round"><rect x="5" y="4.5" width="14" height="15" rx="2"/><path d="M8.5 9h7M8.5 12h7M8.5 15h4.5"/></g><rect x="1361.00" y="119.00" width="56.00" height="22.00" rx="5.00" fill="#4FC3E8" fill-opacity="0.2"/><g transform="translate(1382.00,123.00) scale(0.5833)" stroke="#4FC3E8" stroke-width="2.914" fill="none" stroke-linecap="round" stroke-linejoin="round"><path d="M6 18.5l1.5-3 7.8-7.8 3 3-7.8 7.8-3 1.5z"/><path d="M13.5 6.2l2.3-2.3a1.4 1.4 0 0 1 2 0l1.5 1.5a1.4 1.4 0 0 1 0 2l-2.3 2.3"/><path d="M6 18.5l3 -1.5" stroke-width="4.114"/></g><g transform="translate(1444.00,123.00) scale(0.5833)" stroke="#7C8FA3" stroke-width="2.914" fill="none" stroke-linecap="round" stroke-linejoin="round"><path d="M5 7.5a2.5 2.5 0 0 1 2.5-2.5h9A2.5 2.5 0 0 1 19 7.5v5A2.5 2.5 0 0 1 16.5 15H11l-4 4v-4h-.5A2.5 2.5 0 0 1 5 12.5z"/><path d="M8.5 8.8h7M8.5 11.4h4.5"/></g><g transform="translate(1506.00,123.00) scale(0.5833)" stroke="#7C8FA3" stroke-width="2.914" fill="none" stroke-linecap="round" stroke-linejoin="round"><path d="M12 4l1.9 1.4 2.3-.3 .9 2.2 2 1.2-.7 2.3.7 2.3-2 1.2-.9 2.2-2.3-.3L12 20l-1.9-1.4-2.3.3-.9-2.2-2-1.2.7-2.3-.7-2.3 2-1.2.9-2.2 2.3.3z"/><path d="M9.5 12l1.8 1.8 3.4-3.6"/></g><path d="M1234 891.2 L1251.6 910.4 L1234 929.6 L1216.4 910.4 Z" fill="#5FA9C9"/><path d="M1234 891.2 L1251.6 910.4 L1234 910.4 Z" fill="#4A8FB0" opacity="0.6"/><path d="M1216.4 910.4 L1210.0 897.6 L1224.4 905.6 Z" fill="#4A8FB0"/><path d="M1251.6 910.4 L1258.0 897.6 L1243.6 905.6 Z" fill="#4A8FB0"/><path d="M1228.4 916.8 L1239.6 916.8 L1234 926.4 Z" fill="#EAF4F9"/><circle cx="1228.40" cy="910.40" r="1.92" fill="#12303F"/><circle cx="1239.60" cy="910.40" r="1.92" fill="#12303F"/><circle cx="1234.00" cy="919.20" r="1.44" fill="#12303F"/><rect x="540.56" y="445.28" width="423.78" height="15.00" rx="2.00" fill="#FBE382" fill-opacity="0.55"/><rect x="540.56" y="466.28" width="310.77" height="15.00" rx="2.00" fill="#FBE382" fill-opacity="0.55"/><rect x="540.56" y="595.40" width="235.44" height="15.00" rx="2.00" fill="#EF8A7E" fill-opacity="0.5"/><g filter="url(#softShadow)"><rect x="695.00" y="96.00" width="210.00" height="52.00" rx="12.00" fill="#111A29" stroke="#EDF3FA" stroke-width="1" stroke-opacity="0.3"/></g><path d="M792.0 96 l8 -10 l8 10 Z" fill="#111A29"/><circle cx="721.00" cy="122.00" r="11.00" fill="#FBE382"/><circle cx="721.00" cy="122.00" r="14.00" fill="none" stroke="#4FC3E8" stroke-width="2"/><circle cx="759.00" cy="122.00" r="11.00" fill="#EF8A7E"/><circle cx="797.00" cy="122.00" r="11.00" fill="#8DC2AB"/><circle cx="835.00" cy="122.00" r="11.00" fill="#74B0DD"/><circle cx="873.00" cy="122.00" r="11.00" fill="#B0A6DD"/><rect x="1296.00" y="156.00" width="248.00" height="32.00" rx="7.00" fill="#182434" fill-opacity="0.6" stroke="#EDF3FA" stroke-width="1" stroke-opacity="0.1"/><rect x="1306.00" y="167.00" width="10.00" height="10.00" rx="2.00" fill="#FBE382"/><text x="1324.00" y="176.00" font-family="ui-sans-serif, -apple-system, 'SF Pro Text', 'Segoe UI', sans-serif" font-size="12" font-weight="500" fill="#AFC2D6" text-anchor="start">Highlight</text><text x="1532.00" y="176.00" font-family="ui-sans-serif, -apple-system, 'SF Pro Text', 'Segoe UI', sans-serif" font-size="10.5" font-weight="500" fill="#7C8FA3" text-anchor="end">p.3</text><rect x="1296.00" y="196.00" width="248.00" height="32.00" rx="7.00" fill="#182434" fill-opacity="0.6" stroke="#EDF3FA" stroke-width="1" stroke-opacity="0.1"/><rect x="1306.00" y="207.00" width="10.00" height="10.00" rx="2.00" fill="#FBE382"/><text x="1324.00" y="216.00" font-family="ui-sans-serif, -apple-system, 'SF Pro Text', 'Segoe UI', sans-serif" font-size="12" font-weight="500" fill="#AFC2D6" text-anchor="start">Highlight</text><text x="1532.00" y="216.00" font-family="ui-sans-serif, -apple-system, 'SF Pro Text', 'Segoe UI', sans-serif" font-size="10.5" font-weight="500" fill="#7C8FA3" text-anchor="end">p.3</text><rect x="1296.00" y="236.00" width="248.00" height="32.00" rx="7.00" fill="#182434" fill-opacity="0.6" stroke="#EDF3FA" stroke-width="1" stroke-opacity="0.1"/><rect x="1306.00" y="247.00" width="10.00" height="10.00" rx="2.00" fill="#EF8A7E"/><text x="1324.00" y="256.00" font-family="ui-sans-serif, -apple-system, 'SF Pro Text', 'Segoe UI', sans-serif" font-size="12" font-weight="500" fill="#AFC2D6" text-anchor="start">Highlight</text><text x="1532.00" y="256.00" font-family="ui-sans-serif, -apple-system, 'SF Pro Text', 'Segoe UI', sans-serif" font-size="10.5" font-weight="500" fill="#7C8FA3" text-anchor="end">p.3</text></svg>