<svg width="1200" height="700" viewBox="0 0 1200 700" xmlns="http://www.w3.org/2000/svg" role="img" aria-labelledby="ti de" font-family="ui-sans-serif, -apple-system, 'SF Pro Text', 'Segoe UI', sans-serif"><title id="ti">Gami and Ori, the Orifold companions</title><desc id="de">Gami the origami Bernedoodle and Ori the origami cat shown side by side in the corner of an Orifold workspace, with a short encouraging tip in a speech bubble.</desc><defs>
  <linearGradient id="appGrad" x1="0" y1="0" x2="1" y2="1">
    <stop offset="0" stop-color="#7ADEF4"/><stop offset="1" stop-color="#4FC3E8"/></linearGradient>
  <linearGradient id="accentGrad" x1="0" y1="0" x2="1" y2="1">
    <stop offset="0" stop-color="#7ADEF4"/><stop offset="1" stop-color="#4FC3E8"/></linearGradient>
  <linearGradient id="winGrad" x1="0" y1="0" x2="0" y2="1">
    <stop offset="0" stop-color="#0C1524"/><stop offset="1" stop-color="#0A101C"/></linearGradient>
  <linearGradient id="paperGrad" x1="0" y1="0" x2="0" y2="1">
    <stop offset="0" stop-color="#FFFFFF"/><stop offset="1" stop-color="#F4F1EA"/></linearGradient>
  <filter id="winShadow" x="-20%" y="-20%" width="140%" height="140%">
    <feDropShadow dx="0" dy="14" stdDeviation="26" flood-color="#000000" flood-opacity="0.5"/></filter>
  <filter id="softShadow" x="-40%" y="-40%" width="180%" height="180%">
    <feDropShadow dx="0" dy="6" stdDeviation="12" flood-color="#000000" flood-opacity="0.35"/></filter>
  <radialGradient id="glow" cx="0.5" cy="0.5" r="0.5">
    <stop offset="0" stop-color="#4FC3E8" stop-opacity="0.14"/>
    <stop offset="0.55" stop-color="#4FC3E8" stop-opacity="0.05"/>
    <stop offset="1" stop-color="#4FC3E8" stop-opacity="0"/></radialGradient>
  
</defs><rect width="1200" height="700" fill="none"/><g filter="url(#winShadow)"><rect x="40.00" y="36.00" width="1120.00" height="628.00" rx="13.00" fill="url(#winGrad)"/><rect x="40.00" y="36.00" width="1120.00" height="628.00" rx="13.00" fill="none" stroke="#EDF3FA" stroke-width="1" stroke-opacity="0.1"/></g><rect x="40.00" y="36.00" width="1120.00" height="628.00" rx="13.00" fill="#0A101C"/><circle cx="62.00" cy="59.00" r="6.20" fill="#FF5F57"/><circle cx="82.00" cy="59.00" r="6.20" fill="#FEBC2E"/><circle cx="102.00" cy="59.00" r="6.20" fill="#28C840"/><circle cx="62.00" cy="59.00" r="6.20" fill="none" stroke="#000" stroke-width="0.5" opacity="0.15"/><circle cx="82.00" cy="59.00" r="6.20" fill="none" stroke="#000" stroke-width="0.5" opacity="0.15"/><circle cx="102.00" cy="59.00" r="6.20" fill="none" stroke="#000" stroke-width="0.5" opacity="0.15"/><line x1="40.00" y1="82.00" x2="1160.00" y2="82.00" stroke="#EDF3FA" stroke-width="1" stroke-linecap="round" opacity="0.08"/><rect x="152.00" y="122.00" width="896.00" height="502.00" rx="10.00" fill="#0D1524"/><line x1="241.60" y1="172.00" x2="734.40" y2="172.00" stroke="#7C8FA3" stroke-width="3" stroke-linecap="round" opacity="0.18"/><line x1="241.60" y1="198.00" x2="734.40" y2="198.00" stroke="#7C8FA3" stroke-width="3" stroke-linecap="round" opacity="0.18"/><line x1="241.60" y1="224.00" x2="734.40" y2="224.00" stroke="#7C8FA3" stroke-width="3" stroke-linecap="round" opacity="0.18"/><line x1="241.60" y1="250.00" x2="734.40" y2="250.00" stroke="#7C8FA3" stroke-width="3" stroke-linecap="round" opacity="0.18"/><line x1="241.60" y1="276.00" x2="734.40" y2="276.00" stroke="#7C8FA3" stroke-width="3" stroke-linecap="round" opacity="0.18"/><line x1="241.60" y1="302.00" x2="734.40" y2="302.00" stroke="#7C8FA3" stroke-width="3" stroke-linecap="round" opacity="0.18"/><circle cx="600.0" cy="362.6" r="210.0" fill="url(#glow)"/><path d="M500.0 318.36 L537.4 359.16 L500.0 399.96 L462.6 359.16 Z" fill="#5FA9C9"/><path d="M500.0 318.36 L537.4 359.16 L500.0 359.16 Z" fill="#4A8FB0" opacity="0.6"/><path d="M462.6 359.16 L449.0 331.96 L479.6 348.96 Z" fill="#4A8FB0"/><path d="M537.4 359.16 L551.0 331.96 L520.4 348.96 Z" fill="#4A8FB0"/><path d="M488.1 372.76 L511.9 372.76 L500.0 393.16 Z" fill="#EAF4F9"/><circle cx="488.10" cy="359.16" r="4.08" fill="#12303F"/><circle cx="511.90" cy="359.16" r="4.08" fill="#12303F"/><circle cx="500.00" cy="377.86" r="3.06" fill="#12303F"/><path d="M700.0 321.76 L737.4 362.56 L700.0 399.96 L662.6 362.56 Z" fill="#8FA0C8"/><path d="M700.0 321.76 L737.4 362.56 L700.0 362.56 Z" fill="#7385B0" opacity="0.55"/><path d="M672.8 348.96 L659.2 318.36 L689.8 338.76 Z" fill="#7385B0"/><path d="M727.2 348.96 L740.8 318.36 L710.2 338.76 Z" fill="#7385B0"/><path d="M683.0 360.86 q5.1 -6.8 10.2 0 q-5.1 5.1 -10.2 0Z" fill="#1B2438"/><path d="M706.8 360.86 q5.1 -6.8 10.2 0 q-5.1 5.1 -10.2 0Z" fill="#1B2438"/><circle cx="700.00" cy="374.46" r="2.72" fill="#1B2438"/><line x1="693.20" y1="377.86" x2="676.20" y2="374.46" stroke="#1B2438" stroke-width="1" stroke-linecap="round"/><line x1="706.80" y1="377.86" x2="723.80" y2="374.46" stroke="#1B2438" stroke-width="1" stroke-linecap="round"/><text x="500.00" y="434.56" font-family="ui-serif, 'New York', Georgia, 'Songti SC', serif" font-size="18" font-weight="700" fill="#EDF3FA" text-anchor="middle">Gami</text><text x="500.00" y="454.56" font-family="ui-sans-serif, -apple-system, 'SF Pro Text', 'Segoe UI', sans-serif" font-size="12" font-weight="400" fill="#7C8FA3" text-anchor="middle">the origami Bernedoodle</text><text x="700.00" y="434.56" font-family="ui-serif, 'New York', Georgia, 'Songti SC', serif" font-size="18" font-weight="700" fill="#EDF3FA" text-anchor="middle">Ori</text><text x="700.00" y="454.56" font-family="ui-sans-serif, -apple-system, 'SF Pro Text', 'Segoe UI', sans-serif" font-size="12" font-weight="400" fill="#7C8FA3" text-anchor="middle">the origami cat</text><rect x="390.00" y="211.84" width="170.00" height="48.00" rx="10.00" fill="#111A29" stroke="#4FC3E8" stroke-width="1" stroke-opacity="0.3"/><path d="M430.0 259.84000000000003 l10 14 l6 -14 Z" fill="#111A29"/><text x="406.00" y="232.84" font-family="ui-sans-serif, -apple-system, 'SF Pro Text', 'Segoe UI', sans-serif" font-size="11.5" font-weight="600" fill="#EDF3FA" text-anchor="start">Nice — that&#x27;s page 3</text><text x="406.00" y="248.84" font-family="ui-sans-serif, -apple-system, 'SF Pro Text', 'Segoe UI', sans-serif" font-size="11.5" font-weight="400" fill="#AFC2D6" text-anchor="start">of 3. Ready to export?</text></svg>