<svg width="1600" height="1000" viewBox="0 0 1600 1000" xmlns="http://www.w3.org/2000/svg" role="img" aria-labelledby="ti de" font-family="ui-sans-serif, -apple-system, 'SF Pro Text', 'Segoe UI', sans-serif"><title id="ti">Choosing a companion on first launch</title><desc id="de">The Orifold empty-state screen on first launch with the companion picker open, offering Gami the origami Bernedoodle and Ori the origami cat.</desc><defs>
  <linearGradient id="appGrad" x1="0" y1="0" x2="1" y2="1">
    <stop offset="0" stop-color="#7ADEF4"/><stop offset="1" stop-color="#4FC3E8"/></linearGradient>
  <linearGradient id="accentGrad" x1="0" y1="0" x2="1" y2="1">
    <stop offset="0" stop-color="#7ADEF4"/><stop offset="1" stop-color="#4FC3E8"/></linearGradient>
  <linearGradient id="winGrad" x1="0" y1="0" x2="0" y2="1">
    <stop offset="0" stop-color="#0C1524"/><stop offset="1" stop-color="#0A101C"/></linearGradient>
  <linearGradient id="paperGrad" x1="0" y1="0" x2="0" y2="1">
    <stop offset="0" stop-color="#FFFFFF"/><stop offset="1" stop-color="#F4F1EA"/></linearGradient>
  <filter id="winShadow" x="-20%" y="-20%" width="140%" height="140%">
    <feDropShadow dx="0" dy="14" stdDeviation="26" flood-color="#000000" flood-opacity="0.5"/></filter>
  <filter id="softShadow" x="-40%" y="-40%" width="180%" height="180%">
    <feDropShadow dx="0" dy="6" stdDeviation="12" flood-color="#000000" flood-opacity="0.35"/></filter>
  <radialGradient id="glow" cx="0.5" cy="0.5" r="0.5">
    <stop offset="0" stop-color="#4FC3E8" stop-opacity="0.14"/>
    <stop offset="0.55" stop-color="#4FC3E8" stop-opacity="0.05"/>
    <stop offset="1" stop-color="#4FC3E8" stop-opacity="0"/></radialGradient>
  
</defs><rect width="1600" height="1000" fill="none"/><g filter="url(#winShadow)"><rect x="40.00" y="36.00" width="1520.00" height="928.00" rx="13.00" fill="url(#winGrad)"/><rect x="40.00" y="36.00" width="1520.00" height="928.00" rx="13.00" fill="none" stroke="#EDF3FA" stroke-width="1" stroke-opacity="0.1"/></g><circle cx="62.00" cy="59.00" r="6.20" fill="#FF5F57"/><circle cx="82.00" cy="59.00" r="6.20" fill="#FEBC2E"/><circle cx="102.00" cy="59.00" r="6.20" fill="#28C840"/><circle cx="62.00" cy="59.00" r="6.20" fill="none" stroke="#000" stroke-width="0.5" opacity="0.15"/><circle cx="82.00" cy="59.00" r="6.20" fill="none" stroke="#000" stroke-width="0.5" opacity="0.15"/><circle cx="102.00" cy="59.00" r="6.20" fill="none" stroke="#000" stroke-width="0.5" opacity="0.15"/><line x1="40.00" y1="82.00" x2="1560.00" y2="82.00" stroke="#EDF3FA" stroke-width="1" stroke-linecap="round" opacity="0.08"/><circle cx="283.2" cy="341.8" r="300.0" fill="url(#glow)"/><circle cx="1377.6" cy="304.7" r="260.0" fill="url(#glow)"/><circle cx="800.0" cy="917.2" r="260.0" fill="url(#glow)"/><path d="M788.56 148.0 L807.04 148.0 L822.0 162.96 L822.0 181.44 Q822.0 192.0 811.44 192.0 L788.56 192.0 Q778.0 192.0 778.0 181.44 L778.0 158.56 Q778.0 148.0 788.56 148.0 Z" fill="url(#appGrad)"/><path d="M807.04 148.0 L822.0 162.96 L807.04 162.96 Z" fill="#0A101C" fill-opacity="0.28"/><path d="M790.32 174.4 L798.24 164.72 L809.68 177.04" stroke="#0A2A3A" stroke-width="2.6399999999999997" fill="none" stroke-linecap="round" stroke-linejoin="round" opacity="0.55"/><text x="800.00" y="230.00" font-family="ui-serif, 'New York', Georgia, 'Songti SC', serif" font-size="34" font-weight="600" fill="#EDF3FA" text-anchor="middle" letter-spacing="0.6">Orifold</text><text x="800.00" y="256.00" font-family="ui-sans-serif, -apple-system, 'SF Pro Text', 'Segoe UI', sans-serif" font-size="15" font-weight="600" fill="#EDF3FA" text-anchor="middle">Fold scattered pages into one polished PDF.</text><text x="800.00" y="278.00" font-family="ui-sans-serif, -apple-system, 'SF Pro Text', 'Segoe UI', sans-serif" font-size="13.5" font-weight="400" fill="#AFC2D6" text-anchor="middle">Combine, arrange, annotate, and export documents in one calm workspace.</text><rect x="398.50" y="302.00" width="100.00" height="26.00" rx="13.00" fill="#4FC3E8" fill-opacity="0.14" stroke="#4FC3E8" stroke-width="1" stroke-opacity="0.2"/><circle cx="412.50" cy="315.00" r="3.20" fill="#4FC3E8"/><text x="422.50" y="319.00" font-family="ui-sans-serif, -apple-system, 'SF Pro Text', 'Segoe UI', sans-serif" font-size="11.5" font-weight="600" fill="#4FC3E8" text-anchor="start">Assemble</text><rect x="506.50" y="302.00" width="93.00" height="26.00" rx="13.00" fill="#74B0DD" fill-opacity="0.14" stroke="#74B0DD" stroke-width="1" stroke-opacity="0.2"/><circle cx="520.50" cy="315.00" r="3.20" fill="#74B0DD"/><text x="530.50" y="319.00" font-family="ui-sans-serif, -apple-system, 'SF Pro Text', 'Segoe UI', sans-serif" font-size="11.5" font-weight="600" fill="#74B0DD" text-anchor="start">Mark up</text><rect x="607.50" y="302.00" width="114.00" height="26.00" rx="13.00" fill="#8DC2AB" fill-opacity="0.14" stroke="#8DC2AB" stroke-width="1" stroke-opacity="0.2"/><circle cx="621.50" cy="315.00" r="3.20" fill="#8DC2AB"/><text x="631.50" y="319.00" font-family="ui-sans-serif, -apple-system, 'SF Pro Text', 'Segoe UI', sans-serif" font-size="11.5" font-weight="600" fill="#8DC2AB" text-anchor="start">Fill forms</text><rect x="729.50" y="302.00" width="128.00" height="26.00" rx="13.00" fill="#7ADEF4" fill-opacity="0.14" stroke="#7ADEF4" stroke-width="1" stroke-opacity="0.2"/><circle cx="743.50" cy="315.00" r="3.20" fill="#7ADEF4"/><text x="753.50" y="319.00" font-family="ui-sans-serif, -apple-system, 'SF Pro Text', 'Segoe UI', sans-serif" font-size="11.5" font-weight="600" fill="#7ADEF4" text-anchor="start">Search scans</text><rect x="865.50" y="302.00" width="79.00" height="26.00" rx="13.00" fill="#F98C68" fill-opacity="0.14" stroke="#F98C68" stroke-width="1" stroke-opacity="0.2"/><circle cx="879.50" cy="315.00" r="3.20" fill="#F98C68"/><text x="889.50" y="319.00" font-family="ui-sans-serif, -apple-system, 'SF Pro Text', 'Segoe UI', sans-serif" font-size="11.5" font-weight="600" fill="#F98C68" text-anchor="start">Stamp</text><rect x="952.50" y="302.00" width="93.00" height="26.00" rx="13.00" fill="#B0A6DD" fill-opacity="0.14" stroke="#B0A6DD" stroke-width="1" stroke-opacity="0.2"/><circle cx="966.50" cy="315.00" r="3.20" fill="#B0A6DD"/><text x="976.50" y="319.00" font-family="ui-sans-serif, -apple-system, 'SF Pro Text', 'Segoe UI', sans-serif" font-size="11.5" font-weight="600" fill="#B0A6DD" text-anchor="start">Protect</text><rect x="540.00" y="354.00" width="520.00" height="196.00" rx="16.00" fill="#182434"/><rect x="540.00" y="354.00" width="520.00" height="196.00" rx="16.00" fill="none" stroke="#EDF3FA" stroke-width="1" stroke-opacity="0.14"/><g transform="translate(785.00,379.00) scale(1.2500)" stroke="#4FC3E8" stroke-width="1.360" fill="none" stroke-linecap="round" stroke-linejoin="round"><path d="M7 4.5h6l4 4v6"/><path d="M7 4.5A1.5 1.5 0 0 0 5.5 6v12A1.5 1.5 0 0 0 7 19.5h6"/><path d="M13 4.5V8.5H17"/><circle cx="17" cy="17" r="3.4"/><path d="M17 15.4v3.2M15.4 17h3.2"/></g><text x="800.00" y="432.00" font-family="ui-sans-serif, -apple-system, 'SF Pro Text', 'Segoe UI', sans-serif" font-size="15" font-weight="600" fill="#EDF3FA" text-anchor="middle">Drop files or folders to begin</text><text x="800.00" y="452.00" font-family="ui-sans-serif, -apple-system, 'SF Pro Text', 'Segoe UI', sans-serif" font-size="12" font-weight="400" fill="#7C8FA3" text-anchor="middle">PDF, Word, HTML, text, images. Up to 50 files.</text><rect x="642.00" y="474.00" width="152.00" height="36.00" rx="8.00" fill="#4FC3E8"/><g transform="translate(668.50,484.50) scale(0.6250)" stroke="#0A101C" stroke-width="2.720" fill="none" stroke-linecap="round" stroke-linejoin="round"><path d="M4 8.5a1.5 1.5 0 0 1 1.5-1.5H9l1.8 2H16a1.5 1.5 0 0 1 1.5 1.5v6A1.5 1.5 0 0 1 16 18H5.5A1.5 1.5 0 0 1 4 16.5z"/><path d="M10.7 13.5h4M12.7 11.5v4"/></g><text x="692.00" y="496.00" font-family="ui-sans-serif, -apple-system, 'SF Pro Text', 'Segoe UI', sans-serif" font-size="13" font-weight="600" fill="#0A101C" text-anchor="start">Choose Files</text><rect x="806.00" y="474.00" width="152.00" height="36.00" rx="8.00" fill="#182434" stroke="#4FC3E8" stroke-width="1" stroke-opacity="0.5"/><g transform="translate(832.50,484.50) scale(0.6250)" stroke="#4FC3E8" stroke-width="2.720" fill="none" stroke-linecap="round" stroke-linejoin="round"><path d="M4 8.5a1.5 1.5 0 0 1 1.5-1.5H9l1.8 2H18.5A1.5 1.5 0 0 1 20 10.5v6A1.5 1.5 0 0 1 18.5 18h-13A1.5 1.5 0 0 1 4 16.5z"/></g><text x="856.00" y="496.00" font-family="ui-sans-serif, -apple-system, 'SF Pro Text', 'Segoe UI', sans-serif" font-size="13" font-weight="600" fill="#4FC3E8" text-anchor="start">Choose Folder</text><rect x="56.00" y="96.00" width="96.00" height="26.00" rx="13.00" fill="#182434" stroke="#EDF3FA" stroke-width="1" stroke-opacity="0.2"/><g transform="translate(65.00,102.00) scale(0.5833)" stroke="#AFC2D6" stroke-width="2.914" fill="none" stroke-linecap="round" stroke-linejoin="round"><circle cx="12" cy="12" r="8"/><path d="M4 12h16M12 4c2.5 2 2.5 14 0 16M12 4c-2.5 2-2.5 14 0 16M5.5 7.5c4 2 9 2 13 0M5.5 16.5c4-2 9-2 13 0"/></g><text x="84.00" y="113.00" font-family="ui-sans-serif, -apple-system, 'SF Pro Text', 'Segoe UI', sans-serif" font-size="12" font-weight="500" fill="#AFC2D6" text-anchor="start">English</text><g filter="url(#softShadow)"><rect x="1192.00" y="734.00" width="340.00" height="190.00" rx="16.00" fill="#111A29"/><rect x="1192.00" y="734.00" width="340.00" height="190.00" rx="16.00" fill="none" stroke="#4FC3E8" stroke-width="1" stroke-opacity="0.24"/></g><text x="1210.00" y="760.00" font-family="ui-sans-serif, -apple-system, 'SF Pro Text', 'Segoe UI', sans-serif" font-size="13" font-weight="600" fill="#EDF3FA" text-anchor="start">Choose your companion</text><text x="1210.00" y="778.00" font-family="ui-sans-serif, -apple-system, 'SF Pro Text', 'Segoe UI', sans-serif" font-size="11.5" font-weight="400" fill="#AFC2D6" text-anchor="start">Pick a paper friend to fold along with you.</text><rect x="1210.00" y="790.00" width="147.00" height="118.00" rx="10.00" fill="#182434" opacity="0.92"/><rect x="1210.00" y="790.00" width="147.00" height="118.00" rx="10.00" fill="none" stroke="#4FC3E8" stroke-width="1" stroke-opacity="0.5"/><path d="M1283.5 807.88 L1297.14 822.76 L1283.5 837.64 L1269.86 822.76 Z" fill="#5FA9C9"/><path d="M1283.5 807.88 L1297.14 822.76 L1283.5 822.76 Z" fill="#4A8FB0" opacity="0.6"/><path d="M1269.86 822.76 L1264.9 812.84 L1276.06 819.04 Z" fill="#4A8FB0"/><path d="M1297.14 822.76 L1302.1 812.84 L1290.94 819.04 Z" fill="#4A8FB0"/><path d="M1279.16 827.72 L1287.84 827.72 L1283.5 835.16 Z" fill="#EAF4F9"/><circle cx="1279.16" cy="822.76" r="1.49" fill="#12303F"/><circle cx="1287.84" cy="822.76" r="1.49" fill="#12303F"/><circle cx="1283.50" cy="829.58" r="1.12" fill="#12303F"/><text x="1283.50" y="856.00" font-family="ui-sans-serif, -apple-system, 'SF Pro Text', 'Segoe UI', sans-serif" font-size="13" font-weight="700" fill="#EDF3FA" text-anchor="middle">Gami</text><text x="1283.50" y="870.00" font-family="ui-sans-serif, -apple-system, 'SF Pro Text', 'Segoe UI', sans-serif" font-size="9.5" font-weight="400" fill="#AFC2D6" text-anchor="middle">loyal &amp; encouraging</text><rect x="1224.00" y="880.00" width="119.00" height="20.00" rx="6.00" fill="#4FC3E8" fill-opacity="1"/><text x="1283.50" y="894.00" font-family="ui-sans-serif, -apple-system, 'SF Pro Text', 'Segoe UI', sans-serif" font-size="11" font-weight="700" fill="#0A101C" text-anchor="middle">Choose</text><rect x="1367.00" y="790.00" width="147.00" height="118.00" rx="10.00" fill="#182434" opacity="0.92"/><rect x="1367.00" y="790.00" width="147.00" height="118.00" rx="10.00" fill="none" stroke="#EDF3FA" stroke-width="1" stroke-opacity="0.5"/><path d="M1440.5 809.12 L1454.14 824 L1440.5 837.64 L1426.86 824 Z" fill="#8FA0C8"/><path d="M1440.5 809.12 L1454.14 824 L1440.5 824 Z" fill="#7385B0" opacity="0.55"/><path d="M1430.58 819.04 L1425.62 807.88 L1436.78 815.32 Z" fill="#7385B0"/><path d="M1450.42 819.04 L1455.38 807.88 L1444.22 815.32 Z" fill="#7385B0"/><path d="M1434.3 823.38 q1.8599999999999999 -2.48 3.7199999999999998 0 q-1.8599999999999999 1.8599999999999999 -3.7199999999999998 0Z" fill="#1B2438"/><path d="M1442.98 823.38 q1.8599999999999999 -2.48 3.7199999999999998 0 q-1.8599999999999999 1.8599999999999999 -3.7199999999999998 0Z" fill="#1B2438"/><circle cx="1440.50" cy="828.34" r="0.99" fill="#1B2438"/><line x1="1438.02" y1="829.58" x2="1431.82" y2="828.34" stroke="#1B2438" stroke-width="1" stroke-linecap="round"/><line x1="1442.98" y1="829.58" x2="1449.18" y2="828.34" stroke="#1B2438" stroke-width="1" stroke-linecap="round"/><text x="1440.50" y="856.00" font-family="ui-sans-serif, -apple-system, 'SF Pro Text', 'Segoe UI', sans-serif" font-size="13" font-weight="700" fill="#EDF3FA" text-anchor="middle">Ori</text><text x="1440.50" y="870.00" font-family="ui-sans-serif, -apple-system, 'SF Pro Text', 'Segoe UI', sans-serif" font-size="9.5" font-weight="400" fill="#AFC2D6" text-anchor="middle">clever &amp; composed</text><rect x="1381.00" y="880.00" width="119.00" height="20.00" rx="6.00" fill="#4FC3E8" fill-opacity="0.18"/><text x="1440.50" y="894.00" font-family="ui-sans-serif, -apple-system, 'SF Pro Text', 'Segoe UI', sans-serif" font-size="11" font-weight="700" fill="#4FC3E8" text-anchor="middle">Choose</text></svg>