<svg width="1600" height="500" viewBox="0 0 1600 500" xmlns="http://www.w3.org/2000/svg" role="img" aria-labelledby="ti de" font-family="ui-sans-serif, -apple-system, 'SF Pro Text', 'Segoe UI', sans-serif"><title id="ti">Night Mode warmth presets compared</title><desc id="de">The same document page shown three times side by side under the Gentle, Paper and Amber Night Mode warmth presets, each progressively warmer and dimmer.</desc><defs>
  <linearGradient id="appGrad" x1="0" y1="0" x2="1" y2="1">
    <stop offset="0" stop-color="#7ADEF4"/><stop offset="1" stop-color="#4FC3E8"/></linearGradient>
  <linearGradient id="accentGrad" x1="0" y1="0" x2="1" y2="1">
    <stop offset="0" stop-color="#7ADEF4"/><stop offset="1" stop-color="#4FC3E8"/></linearGradient>
  <linearGradient id="winGrad" x1="0" y1="0" x2="0" y2="1">
    <stop offset="0" stop-color="#0C1524"/><stop offset="1" stop-color="#0A101C"/></linearGradient>
  <linearGradient id="paperGrad" x1="0" y1="0" x2="0" y2="1">
    <stop offset="0" stop-color="#FFFFFF"/><stop offset="1" stop-color="#F4F1EA"/></linearGradient>
  <filter id="winShadow" x="-20%" y="-20%" width="140%" height="140%">
    <feDropShadow dx="0" dy="14" stdDeviation="26" flood-color="#000000" flood-opacity="0.5"/></filter>
  <filter id="softShadow" x="-40%" y="-40%" width="180%" height="180%">
    <feDropShadow dx="0" dy="6" stdDeviation="12" flood-color="#000000" flood-opacity="0.35"/></filter>
  <radialGradient id="glow" cx="0.5" cy="0.5" r="0.5">
    <stop offset="0" stop-color="#4FC3E8" stop-opacity="0.14"/>
    <stop offset="0.55" stop-color="#4FC3E8" stop-opacity="0.05"/>
    <stop offset="1" stop-color="#4FC3E8" stop-opacity="0"/></radialGradient>
  
</defs><rect width="1600" height="500" fill="none"/><rect x="0.00" y="0.00" width="1600.00" height="500.00" rx="0.00" fill="none"/><rect x="30.00" y="24.00" width="1540.00" height="452.00" rx="16.00" fill="#111A29"/><rect x="30.00" y="24.00" width="1540.00" height="452.00" rx="16.00" fill="none" stroke="#EDF3FA" stroke-width="1" stroke-opacity="0.12"/><rect x="182.85" y="64.00" width="255.64" height="332.00" rx="4.00" fill="#F8F2E6" stroke="#0A0F19" stroke-width="1" stroke-opacity="0.25"/><circle cx="218.97" cy="104.52" r="9.00" fill="#4FC3E8" opacity="0.9"/><text x="234.97" y="108.52" font-family="ui-serif, 'New York', Georgia, 'Songti SC', serif" font-size="11" font-weight="700" fill="#332C20" text-anchor="start">NORTHWIND &amp; CO.</text><line x1="210.97" y1="122.52" x2="410.37" y2="122.52" stroke="#EBE0CB" stroke-width="1" stroke-linecap="round"/><line x1="210.97" y1="142.52" x2="278.76" y2="142.52" stroke="#4E4636" stroke-width="3" stroke-linecap="round" opacity="0.75"/><text x="210.97" y="164.52" font-family="ui-sans-serif, -apple-system, 'SF Pro Text', 'Segoe UI', sans-serif" font-size="12" font-weight="700" fill="#332C20" text-anchor="start"></text><line x1="210.97" y1="160.52" x2="330.61" y2="160.52" stroke="#332C20" stroke-width="4" stroke-linecap="round" opacity="0.9"/><line x1="210.97" y1="182.52" x2="410.37" y2="182.52" stroke="#4E4636" stroke-width="2.4" stroke-linecap="round" opacity="0.55"/><line x1="210.97" y1="197.52" x2="398.40" y2="197.52" stroke="#4E4636" stroke-width="2.4" stroke-linecap="round" opacity="0.55"/><line x1="210.97" y1="212.52" x2="404.38" y2="212.52" stroke="#4E4636" stroke-width="2.4" stroke-linecap="round" opacity="0.55"/><line x1="210.97" y1="227.52" x2="334.59" y2="227.52" stroke="#4E4636" stroke-width="2.4" stroke-linecap="round" opacity="0.55"/><line x1="210.97" y1="250.52" x2="410.37" y2="250.52" stroke="#4E4636" stroke-width="2.4" stroke-linecap="round" opacity="0.55"/><line x1="210.97" y1="265.52" x2="390.43" y2="265.52" stroke="#4E4636" stroke-width="2.4" stroke-linecap="round" opacity="0.55"/><line x1="210.97" y1="280.52" x2="406.38" y2="280.52" stroke="#4E4636" stroke-width="2.4" stroke-linecap="round" opacity="0.55"/><line x1="210.97" y1="295.52" x2="386.44" y2="295.52" stroke="#4E4636" stroke-width="2.4" stroke-linecap="round" opacity="0.55"/><line x1="210.97" y1="310.52" x2="310.67" y2="310.52" stroke="#4E4636" stroke-width="2.4" stroke-linecap="round" opacity="0.55"/><line x1="210.97" y1="342.88" x2="294.71" y2="342.88" stroke="#EBE0CB" stroke-width="1" stroke-linecap="round"/><text x="210.97" y="356.88" font-family="ui-sans-serif, -apple-system, 'SF Pro Text', 'Segoe UI', sans-serif" font-size="10" font-weight="400" fill="#4E4636" text-anchor="start"></text><rect x="258.67" y="412.00" width="104.00" height="26.00" rx="13.00" fill="#182434" stroke="#4FC3E8" stroke-width="1" stroke-opacity="0.3"/><circle cx="278.67" cy="425.00" r="5.00" fill="#F9C452"/><text x="290.67" y="429.00" font-family="ui-sans-serif, -apple-system, 'SF Pro Text', 'Segoe UI', sans-serif" font-size="13" font-weight="700" fill="#EDF3FA" text-anchor="start">Gentle</text><text x="310.67" y="448.00" font-family="ui-sans-serif, -apple-system, 'SF Pro Text', 'Segoe UI', sans-serif" font-size="11" font-weight="400" fill="#7C8FA3" text-anchor="middle">A light warm tint</text><rect x="672.18" y="64.00" width="255.64" height="332.00" rx="4.00" fill="#F3EAD6" stroke="#0A0F19" stroke-width="1" stroke-opacity="0.25"/><circle cx="708.30" cy="104.52" r="9.00" fill="#4FC3E8" opacity="0.9"/><text x="724.30" y="108.52" font-family="ui-serif, 'New York', Georgia, 'Songti SC', serif" font-size="11" font-weight="700" fill="#3E362A" text-anchor="start">NORTHWIND &amp; CO.</text><line x1="700.30" y1="122.52" x2="899.70" y2="122.52" stroke="#E2D6BC" stroke-width="1" stroke-linecap="round"/><line x1="700.30" y1="142.52" x2="768.10" y2="142.52" stroke="#5C5241" stroke-width="3" stroke-linecap="round" opacity="0.75"/><text x="700.30" y="164.52" font-family="ui-sans-serif, -apple-system, 'SF Pro Text', 'Segoe UI', sans-serif" font-size="12" font-weight="700" fill="#3E362A" text-anchor="start"></text><line x1="700.30" y1="160.52" x2="819.94" y2="160.52" stroke="#3E362A" stroke-width="4" stroke-linecap="round" opacity="0.9"/><line x1="700.30" y1="182.52" x2="899.70" y2="182.52" stroke="#5C5241" stroke-width="2.4" stroke-linecap="round" opacity="0.55"/><line x1="700.30" y1="197.52" x2="887.74" y2="197.52" stroke="#5C5241" stroke-width="2.4" stroke-linecap="round" opacity="0.55"/><line x1="700.30" y1="212.52" x2="893.72" y2="212.52" stroke="#5C5241" stroke-width="2.4" stroke-linecap="round" opacity="0.55"/><line x1="700.30" y1="227.52" x2="823.93" y2="227.52" stroke="#5C5241" stroke-width="2.4" stroke-linecap="round" opacity="0.55"/><line x1="700.30" y1="250.52" x2="899.70" y2="250.52" stroke="#5C5241" stroke-width="2.4" stroke-linecap="round" opacity="0.55"/><line x1="700.30" y1="265.52" x2="879.76" y2="265.52" stroke="#5C5241" stroke-width="2.4" stroke-linecap="round" opacity="0.55"/><line x1="700.30" y1="280.52" x2="895.71" y2="280.52" stroke="#5C5241" stroke-width="2.4" stroke-linecap="round" opacity="0.55"/><line x1="700.30" y1="295.52" x2="875.77" y2="295.52" stroke="#5C5241" stroke-width="2.4" stroke-linecap="round" opacity="0.55"/><line x1="700.30" y1="310.52" x2="800.00" y2="310.52" stroke="#5C5241" stroke-width="2.4" stroke-linecap="round" opacity="0.55"/><line x1="700.30" y1="342.88" x2="784.05" y2="342.88" stroke="#E2D6BC" stroke-width="1" stroke-linecap="round"/><text x="700.30" y="356.88" font-family="ui-sans-serif, -apple-system, 'SF Pro Text', 'Segoe UI', sans-serif" font-size="10" font-weight="400" fill="#5C5241" text-anchor="start"></text><rect x="748.00" y="412.00" width="104.00" height="26.00" rx="13.00" fill="#182434" stroke="#4FC3E8" stroke-width="1" stroke-opacity="0.3"/><circle cx="768.00" cy="425.00" r="5.00" fill="#F98C68"/><text x="780.00" y="429.00" font-family="ui-sans-serif, -apple-system, 'SF Pro Text', 'Segoe UI', sans-serif" font-size="13" font-weight="700" fill="#EDF3FA" text-anchor="start">Paper</text><text x="800.00" y="448.00" font-family="ui-sans-serif, -apple-system, 'SF Pro Text', 'Segoe UI', sans-serif" font-size="11" font-weight="400" fill="#7C8FA3" text-anchor="middle">A cream, paper-like tone</text><rect x="1161.51" y="64.00" width="255.64" height="332.00" rx="4.00" fill="#F0D9A8" stroke="#0A0F19" stroke-width="1" stroke-opacity="0.25"/><circle cx="1197.63" cy="104.52" r="9.00" fill="#4FC3E8" opacity="0.9"/><text x="1213.63" y="108.52" font-family="ui-serif, 'New York', Georgia, 'Songti SC', serif" font-size="11" font-weight="700" fill="#5A4220" text-anchor="start">NORTHWIND &amp; CO.</text><line x1="1189.63" y1="122.52" x2="1389.03" y2="122.52" stroke="#E0C48A" stroke-width="1" stroke-linecap="round"/><line x1="1189.63" y1="142.52" x2="1257.43" y2="142.52" stroke="#7A5C2E" stroke-width="3" stroke-linecap="round" opacity="0.75"/><text x="1189.63" y="164.52" font-family="ui-sans-serif, -apple-system, 'SF Pro Text', 'Segoe UI', sans-serif" font-size="12" font-weight="700" fill="#5A4220" text-anchor="start"></text><line x1="1189.63" y1="160.52" x2="1309.27" y2="160.52" stroke="#5A4220" stroke-width="4" stroke-linecap="round" opacity="0.9"/><line x1="1189.63" y1="182.52" x2="1389.03" y2="182.52" stroke="#7A5C2E" stroke-width="2.4" stroke-linecap="round" opacity="0.55"/><line x1="1189.63" y1="197.52" x2="1377.07" y2="197.52" stroke="#7A5C2E" stroke-width="2.4" stroke-linecap="round" opacity="0.55"/><line x1="1189.63" y1="212.52" x2="1383.05" y2="212.52" stroke="#7A5C2E" stroke-width="2.4" stroke-linecap="round" opacity="0.55"/><line x1="1189.63" y1="227.52" x2="1313.26" y2="227.52" stroke="#7A5C2E" stroke-width="2.4" stroke-linecap="round" opacity="0.55"/><line x1="1189.63" y1="250.52" x2="1389.03" y2="250.52" stroke="#7A5C2E" stroke-width="2.4" stroke-linecap="round" opacity="0.55"/><line x1="1189.63" y1="265.52" x2="1369.09" y2="265.52" stroke="#7A5C2E" stroke-width="2.4" stroke-linecap="round" opacity="0.55"/><line x1="1189.63" y1="280.52" x2="1385.04" y2="280.52" stroke="#7A5C2E" stroke-width="2.4" stroke-linecap="round" opacity="0.55"/><line x1="1189.63" y1="295.52" x2="1365.11" y2="295.52" stroke="#7A5C2E" stroke-width="2.4" stroke-linecap="round" opacity="0.55"/><line x1="1189.63" y1="310.52" x2="1289.33" y2="310.52" stroke="#7A5C2E" stroke-width="2.4" stroke-linecap="round" opacity="0.55"/><line x1="1189.63" y1="342.88" x2="1273.38" y2="342.88" stroke="#E0C48A" stroke-width="1" stroke-linecap="round"/><text x="1189.63" y="356.88" font-family="ui-sans-serif, -apple-system, 'SF Pro Text', 'Segoe UI', sans-serif" font-size="10" font-weight="400" fill="#7A5C2E" text-anchor="start"></text><rect x="1237.33" y="412.00" width="104.00" height="26.00" rx="13.00" fill="#182434" stroke="#4FC3E8" stroke-width="1" stroke-opacity="0.3"/><circle cx="1257.33" cy="425.00" r="5.00" fill="#F97A6D"/><text x="1269.33" y="429.00" font-family="ui-sans-serif, -apple-system, 'SF Pro Text', 'Segoe UI', sans-serif" font-size="13" font-weight="700" fill="#EDF3FA" text-anchor="start">Amber</text><text x="1289.33" y="448.00" font-family="ui-sans-serif, -apple-system, 'SF Pro Text', 'Segoe UI', sans-serif" font-size="11" font-weight="400" fill="#7C8FA3" text-anchor="middle">Warmest &amp; dimmest for night</text></svg>