<svg width="1600" height="1000" viewBox="0 0 1600 1000" xmlns="http://www.w3.org/2000/svg" role="img" aria-labelledby="ti de" font-family="ui-sans-serif, -apple-system, 'SF Pro Text', 'Segoe UI', sans-serif"><title id="ti">Normal view compared to Reader Mode</title><desc id="de">A side-by-side comparison: the normal Orifold workspace with sidebar and toolbar on the left, and Reader Mode on the right where the chrome is hidden and the page fills the window.</desc><defs>
  <linearGradient id="appGrad" x1="0" y1="0" x2="1" y2="1">
    <stop offset="0" stop-color="#7ADEF4"/><stop offset="1" stop-color="#4FC3E8"/></linearGradient>
  <linearGradient id="accentGrad" x1="0" y1="0" x2="1" y2="1">
    <stop offset="0" stop-color="#7ADEF4"/><stop offset="1" stop-color="#4FC3E8"/></linearGradient>
  <linearGradient id="winGrad" x1="0" y1="0" x2="0" y2="1">
    <stop offset="0" stop-color="#0C1524"/><stop offset="1" stop-color="#0A101C"/></linearGradient>
  <linearGradient id="paperGrad" x1="0" y1="0" x2="0" y2="1">
    <stop offset="0" stop-color="#FFFFFF"/><stop offset="1" stop-color="#F4F1EA"/></linearGradient>
  <filter id="winShadow" x="-20%" y="-20%" width="140%" height="140%">
    <feDropShadow dx="0" dy="14" stdDeviation="26" flood-color="#000000" flood-opacity="0.5"/></filter>
  <filter id="softShadow" x="-40%" y="-40%" width="180%" height="180%">
    <feDropShadow dx="0" dy="6" stdDeviation="12" flood-color="#000000" flood-opacity="0.35"/></filter>
  <radialGradient id="glow" cx="0.5" cy="0.5" r="0.5">
    <stop offset="0" stop-color="#4FC3E8" stop-opacity="0.14"/>
    <stop offset="0.55" stop-color="#4FC3E8" stop-opacity="0.05"/>
    <stop offset="1" stop-color="#4FC3E8" stop-opacity="0"/></radialGradient>
  
</defs><rect width="1600" height="1000" fill="none"/><g filter="url(#winShadow)"><rect x="36.00" y="32.00" width="748.00" height="936.00" rx="13.00" fill="url(#winGrad)"/><rect x="36.00" y="32.00" width="748.00" height="936.00" rx="13.00" fill="none" stroke="#EDF3FA" stroke-width="1" stroke-opacity="0.1"/></g><line x1="36.00" y1="78.00" x2="784.00" y2="78.00" stroke="#EDF3FA" stroke-width="1" stroke-linecap="round" opacity="0.1"/><circle cx="58.00" cy="55.00" r="6.20" fill="#FF5F57"/><circle cx="78.00" cy="55.00" r="6.20" fill="#FEBC2E"/><circle cx="98.00" cy="55.00" r="6.20" fill="#28C840"/><circle cx="58.00" cy="55.00" r="6.20" fill="none" stroke="#000" stroke-width="0.5" opacity="0.15"/><circle cx="78.00" cy="55.00" r="6.20" fill="none" stroke="#000" stroke-width="0.5" opacity="0.15"/><circle cx="98.00" cy="55.00" r="6.20" fill="none" stroke="#000" stroke-width="0.5" opacity="0.15"/><text x="122.00" y="59.00" font-family="ui-sans-serif, -apple-system, 'SF Pro Text', 'Segoe UI', sans-serif" font-size="13" font-weight="600" fill="#EDF3FA" text-anchor="start">Contract Packet</text><g transform="translate(272.50,46.50) scale(0.7083)" stroke="#AFC2D6" stroke-width="2.400" fill="none" stroke-linecap="round" stroke-linejoin="round"><circle cx="12" cy="12" r="8.5"/><path d="M12 8.2V15.8M8.2 12H15.8"/></g><g transform="translate(302.50,46.50) scale(0.7083)" stroke="#AFC2D6" stroke-width="2.400" fill="none" stroke-linecap="round" stroke-linejoin="round"><rect x="5" y="4.5" width="14" height="15" rx="2"/><path d="M8.5 9h7M8.5 12h7M8.5 15h4.5"/></g><rect x="268.00" y="40.00" width="284.00" height="30.00" rx="9.00" fill="#182434" fill-opacity="0.7" stroke="#EDF3FA" stroke-width="1" stroke-opacity="0.14"/><g transform="translate(278.00,47.00) scale(0.6667)" stroke="#AFC2D6" stroke-width="2.550" fill="none" stroke-linecap="round" stroke-linejoin="round"><path d="M7 5l11 6.5-4.7 1.2 2.7 5-2.2 1.1-2.7-5-3.4 3.4z" fill="#AFC2D6" fill-opacity="0.85"/></g><rect x="303.00" y="43.00" width="26.00" height="24.00" rx="7.00" fill="#4FC3E8" fill-opacity="0.18" stroke="#4FC3E8" stroke-width="1" stroke-opacity="0.55"/><g transform="translate(308.00,47.00) scale(0.6667)" stroke="#4FC3E8" stroke-width="2.550" fill="none" stroke-linecap="round" stroke-linejoin="round"><path d="M6 18.5l1.5-3 7.8-7.8 3 3-7.8 7.8-3 1.5z"/><path d="M13.5 6.2l2.3-2.3a1.4 1.4 0 0 1 2 0l1.5 1.5a1.4 1.4 0 0 1 0 2l-2.3 2.3"/><path d="M6 18.5l3 -1.5" stroke-width="3.600"/></g><g transform="translate(338.00,47.00) scale(0.6667)" stroke="#AFC2D6" stroke-width="2.550" fill="none" stroke-linecap="round" stroke-linejoin="round"><path d="M7 5v6a5 5 0 0 0 10 0V5"/><path d="M6 19.5h12"/></g><g transform="translate(368.00,47.00) scale(0.6667)" stroke="#AFC2D6" stroke-width="2.550" fill="none" stroke-linecap="round" stroke-linejoin="round"><path d="M8 7.5a4 4 0 0 1 8 .5M8.5 16a4 4 0 0 0 7.7-.8"/><path d="M4.5 12h15"/></g><g transform="translate(398.00,47.00) scale(0.6667)" stroke="#AFC2D6" stroke-width="2.550" fill="none" stroke-linecap="round" stroke-linejoin="round"><rect x="5" y="5" width="14" height="14" rx="2.4"/><path d="M8.5 9.5h7M8.5 12.5h7M8.5 15.5h4"/></g><g transform="translate(428.00,47.00) scale(0.6667)" stroke="#AFC2D6" stroke-width="2.550" fill="none" stroke-linecap="round" stroke-linejoin="round"><path d="M4.5 19c3-1 4-6 7-9s5.5-4 6.5-2.5-1.5 3-1 5 2 1.5 2.5 3"/></g><g transform="translate(458.00,47.00) scale(0.6667)" stroke="#AFC2D6" stroke-width="2.550" fill="none" stroke-linecap="round" stroke-linejoin="round"><path d="M5 17l4-10 4 10M6.5 13.5h5"/><path d="M14.5 17l3-7 3 7M15.6 14.6h3.8" stroke-width="2.100"/></g><g transform="translate(488.00,47.00) scale(0.6667)" stroke="#AFC2D6" stroke-width="2.550" fill="none" stroke-linecap="round" stroke-linejoin="round"><path d="M4.5 15.5c2 .3 3-1.2 3.6-3.4C8.8 9.4 9 6 10.4 6c1.1 0 .9 2.6 1.3 5s1 4.2 2.2 4.2c1.6 0 2-3.3 3.4-3.3.9 0 1.1 1.1 2.2 1.1"/><path d="M4.5 18.5h15" opacity="0.5"/></g><g transform="translate(518.00,47.00) scale(0.6667)" stroke="#AFC2D6" stroke-width="2.550" fill="none" stroke-linecap="round" stroke-linejoin="round"><path d="M12 4l1.9 1.4 2.3-.3 .9 2.2 2 1.2-.7 2.3.7 2.3-2 1.2-.9 2.2-2.3-.3L12 20l-1.9-1.4-2.3.3-.9-2.2-2-1.2.7-2.3-.7-2.3 2-1.2.9-2.2 2.3.3z"/><path d="M9.5 12l1.8 1.8 3.4-3.6"/></g><circle cx="568.00" cy="55.00" r="6.50" fill="#FBE382"/><circle cx="568.00" cy="55.00" r="6.50" fill="none" stroke="#EDF3FA" stroke-width="1" opacity="0.2"/><g transform="translate(601.50,46.50) scale(0.7083)" stroke="#AFC2D6" stroke-width="2.400" fill="none" stroke-linecap="round" stroke-linejoin="round"><path d="M12 6.5C10.5 5.3 8 5 5.5 5.4V17.6C8 17.2 10.5 17.5 12 18.6M12 6.5C13.5 5.3 16 5 18.5 5.4V17.6C16 17.2 13.5 17.5 12 18.6M12 6.5V18.6"/></g><g transform="translate(631.50,46.50) scale(0.7083)" stroke="#AFC2D6" stroke-width="2.400" fill="none" stroke-linecap="round" stroke-linejoin="round"><circle cx="10.5" cy="10.5" r="5.5"/><path d="M14.6 14.6L19 19"/></g><g transform="translate(661.50,46.50) scale(0.7083)" stroke="#AFC2D6" stroke-width="2.400" fill="none" stroke-linecap="round" stroke-linejoin="round"><path d="M12 4.5L12 14.5M8.4 8L12 4.4L15.6 8"/><path d="M6 13v5.5a1 1 0 0 0 1 1h10a1 1 0 0 0 1-1V13"/></g><g transform="translate(691.50,46.50) scale(0.7083)" stroke="#AFC2D6" stroke-width="2.400" fill="none" stroke-linecap="round" stroke-linejoin="round"><rect x="4" y="5" width="16" height="14" rx="2"/><path d="M15 5v14"/></g><g transform="translate(721.50,46.50) scale(0.7083)" stroke="#AFC2D6" stroke-width="2.400" fill="none" stroke-linecap="round" stroke-linejoin="round"><circle cx="7" cy="14" r="3.2"/><circle cx="17" cy="14" r="3.2"/><path d="M10.2 13.5c.9-1 2.7-1 3.6 0M4 12l1.4-5.2a1.6 1.6 0 0 1 1.5-1.1M20 12l-1.4-5.2a1.6 1.6 0 0 0-1.5-1.1"/></g><g transform="translate(751.50,46.50) scale(0.7083)" stroke="#AFC2D6" stroke-width="2.400" fill="none" stroke-linecap="round" stroke-linejoin="round"><circle cx="12" cy="12" r="8.5"/><path d="M9.6 9.6a2.5 2.5 0 0 1 4.8.9c0 1.7-2.4 2-2.4 3.6"/><circle cx="12" cy="17" r="0.4" fill="#AFC2D6"/></g><rect x="36.00" y="78.00" width="232.00" height="890.00" rx="0.00" fill="#111A29"/><line x1="268.00" y1="78.00" x2="268.00" y2="968.00" stroke="#EDF3FA" stroke-width="1" stroke-linecap="round" opacity="0.1"/><path d="M58 90 L246 90 L256 100 L256 166 Q256 176 246 176 L58 176 Q48 176 48 166 L48 100 Q48 90 58 90 Z" fill="#182434" opacity="0.72"/><path d="M58 90 L246 90 L256 100 L256 166 Q256 176 246 176 L58 176 Q48 176 48 166 L48 100 Q48 90 58 90 Z" fill="none" stroke="#EDF3FA" stroke-width="1" stroke-linecap="round" stroke-linejoin="round" opacity="0.14"/><path d="M59.32 99.0 L66.88 99.0 L73.0 105.12 L73.0 112.68 Q73.0 117.0 68.68 117.0 L59.32 117.0 Q55.0 117.0 55.0 112.68 L55.0 103.32 Q55.0 99.0 59.32 99.0 Z" fill="url(#appGrad)"/><path d="M66.88 99.0 L73.0 105.12 L66.88 105.12 Z" fill="#0A101C" fill-opacity="0.28"/><path d="M60.04 109.8 L63.28 105.84 L67.96 110.88" stroke="#0A2A3A" stroke-width="1.08" fill="none" stroke-linecap="round" stroke-linejoin="round" opacity="0.55"/><text x="78.00" y="112.00" font-family="ui-serif, 'New York', Georgia, 'Songti SC', serif" font-size="12.5" font-weight="600" fill="#EDF3FA" text-anchor="start" letter-spacing="0.4">Contract Packet</text><g transform="translate(234.50,100.50) scale(0.6250)" stroke="#7C8FA3" stroke-width="2.720" fill="none" stroke-linecap="round" stroke-linejoin="round"><circle cx="6.5" cy="12" r="1.1" fill="#7C8FA3"/><circle cx="12" cy="12" r="1.1" fill="#7C8FA3"/><circle cx="17.5" cy="12" r="1.1" fill="#7C8FA3"/></g><text x="60.00" y="132.00" font-family="ui-sans-serif, -apple-system, 'SF Pro Text', 'Segoe UI', sans-serif" font-size="10.5" font-weight="500" fill="#7C8FA3" text-anchor="start">4 files · 14 pages · 2 comments</text><rect x="60.00" y="142.00" width="78.00" height="20.00" rx="10.00" fill="#4FC3E8" fill-opacity="0.2"/><g transform="translate(64.50,146.50) scale(0.4583)" stroke="#4FC3E8" stroke-width="4.364" fill="none" stroke-linecap="round" stroke-linejoin="round"><path d="M12 6V18M6 12H18"/></g><text x="80.00" y="155.50" font-family="ui-sans-serif, -apple-system, 'SF Pro Text', 'Segoe UI', sans-serif" font-size="11" font-weight="600" fill="#4FC3E8" text-anchor="start">Add Files</text><line x1="48.00" y1="188.00" x2="256.00" y2="188.00" stroke="#EDF3FA" stroke-width="1" stroke-linecap="round" opacity="0.1"/><text x="54.00" y="206.00" font-family="ui-sans-serif, -apple-system, 'SF Pro Text', 'Segoe UI', sans-serif" font-size="10.5" font-weight="600" fill="#7C8FA3" text-anchor="start" letter-spacing="0.6">DOCUMENTS</text><text x="130.00" y="206.00" font-family="ui-sans-serif, -apple-system, 'SF Pro Text', 'Segoe UI', sans-serif" font-size="10.5" font-weight="500" fill="#7C8FA3" text-anchor="start">· 4</text><rect x="50.00" y="220.00" width="204.00" height="44.00" rx="6.00" fill="#4FC3E8" fill-opacity="0.18" stroke="#4FC3E8" stroke-width="0.75" stroke-opacity="0.25"/><rect x="50.00" y="224.00" width="2.00" height="36.00" rx="1.00" fill="#4FC3E8"/><g transform="translate(59.00,237.00) scale(0.4167)" stroke="#7C8FA3" stroke-width="4.080" fill="none" stroke-linecap="round" stroke-linejoin="round"><path d="M9.5 6l6 6-6 6"/></g><rect x="76.00" y="225.00" width="26.00" height="34.00" rx="3.00" fill="#EAE7DF"/><rect x="76.00" y="225.00" width="26.00" height="34.00" rx="3.00" fill="none" stroke="#EDF3FA" stroke-width="1" stroke-opacity="0.3"/><line x1="80.00" y1="233.00" x2="98.00" y2="233.00" stroke="#B9B3A6" stroke-width="1" stroke-linecap="round" opacity="0.9"/><line x1="80.00" y1="239.00" x2="98.00" y2="239.00" stroke="#B9B3A6" stroke-width="1" stroke-linecap="round" opacity="0.9"/><line x1="80.00" y1="245.00" x2="98.00" y2="245.00" stroke="#B9B3A6" stroke-width="1" stroke-linecap="round" opacity="0.9"/><line x1="80.00" y1="251.00" x2="98.00" y2="251.00" stroke="#B9B3A6" stroke-width="1" stroke-linecap="round" opacity="0.9"/><rect x="74.00" y="250.00" width="16.00" height="8.00" rx="2.00" fill="#EF8A7E"/><text x="82.00" y="256.50" font-family="ui-sans-serif, -apple-system, 'SF Pro Text', 'Segoe UI', sans-serif" font-size="5.5" font-weight="800" fill="#FFFFFF" text-anchor="middle">PDF</text><text x="110.00" y="240.00" font-family="ui-sans-serif, -apple-system, 'SF Pro Text', 'Segoe UI', sans-serif" font-size="12.5" font-weight="600" fill="#EDF3FA" text-anchor="start">Cover Letter</text><text x="110.00" y="255.00" font-family="ui-sans-serif, -apple-system, 'SF Pro Text', 'Segoe UI', sans-serif" font-size="10.5" font-weight="500" fill="#7C8FA3" text-anchor="start">3 pages · 1 comment</text><g transform="translate(237.00,235.00) scale(0.5833)" stroke="#7C8FA3" stroke-width="2.914" fill="none" stroke-linecap="round" stroke-linejoin="round"><circle cx="6.5" cy="12" r="1.1" fill="#7C8FA3"/><circle cx="12" cy="12" r="1.1" fill="#7C8FA3"/><circle cx="17.5" cy="12" r="1.1" fill="#7C8FA3"/></g><g transform="translate(59.00,287.00) scale(0.4167)" stroke="#7C8FA3" stroke-width="4.080" fill="none" stroke-linecap="round" stroke-linejoin="round"><path d="M9.5 6l6 6-6 6"/></g><rect x="76.00" y="275.00" width="26.00" height="34.00" rx="3.00" fill="#EAE7DF"/><rect x="76.00" y="275.00" width="26.00" height="34.00" rx="3.00" fill="none" stroke="#EDF3FA" stroke-width="1" stroke-opacity="0.3"/><line x1="80.00" y1="283.00" x2="98.00" y2="283.00" stroke="#B9B3A6" stroke-width="1" stroke-linecap="round" opacity="0.9"/><line x1="80.00" y1="289.00" x2="98.00" y2="289.00" stroke="#B9B3A6" stroke-width="1" stroke-linecap="round" opacity="0.9"/><line x1="80.00" y1="295.00" x2="98.00" y2="295.00" stroke="#B9B3A6" stroke-width="1" stroke-linecap="round" opacity="0.9"/><line x1="80.00" y1="301.00" x2="98.00" y2="301.00" stroke="#B9B3A6" stroke-width="1" stroke-linecap="round" opacity="0.9"/><rect x="74.00" y="300.00" width="16.00" height="8.00" rx="2.00" fill="#EF8A7E"/><text x="82.00" y="306.50" font-family="ui-sans-serif, -apple-system, 'SF Pro Text', 'Segoe UI', sans-serif" font-size="5.5" font-weight="800" fill="#FFFFFF" text-anchor="middle">PDF</text><text x="110.00" y="290.00" font-family="ui-sans-serif, -apple-system, 'SF Pro Text', 'Segoe UI', sans-serif" font-size="12.5" font-weight="600" fill="#EDF3FA" text-anchor="start">Invoice_Q3.pdf</text><text x="110.00" y="305.00" font-family="ui-sans-serif, -apple-system, 'SF Pro Text', 'Segoe UI', sans-serif" font-size="10.5" font-weight="500" fill="#7C8FA3" text-anchor="start">2 pages</text><g transform="translate(59.00,337.00) scale(0.4167)" stroke="#7C8FA3" stroke-width="4.080" fill="none" stroke-linecap="round" stroke-linejoin="round"><path d="M9.5 6l6 6-6 6"/></g><rect x="76.00" y="325.00" width="26.00" height="34.00" rx="3.00" fill="#EAE7DF"/><rect x="76.00" y="325.00" width="26.00" height="34.00" rx="3.00" fill="none" stroke="#EDF3FA" stroke-width="1" stroke-opacity="0.3"/><line x1="80.00" y1="333.00" x2="98.00" y2="333.00" stroke="#B9B3A6" stroke-width="1" stroke-linecap="round" opacity="0.9"/><line x1="80.00" y1="339.00" x2="98.00" y2="339.00" stroke="#B9B3A6" stroke-width="1" stroke-linecap="round" opacity="0.9"/><line x1="80.00" y1="345.00" x2="98.00" y2="345.00" stroke="#B9B3A6" stroke-width="1" stroke-linecap="round" opacity="0.9"/><line x1="80.00" y1="351.00" x2="98.00" y2="351.00" stroke="#B9B3A6" stroke-width="1" stroke-linecap="round" opacity="0.9"/><rect x="74.00" y="350.00" width="16.00" height="8.00" rx="2.00" fill="#1A9BA6"/><text x="82.00" y="356.50" font-family="ui-sans-serif, -apple-system, 'SF Pro Text', 'Segoe UI', sans-serif" font-size="5.5" font-weight="800" fill="#FFFFFF" text-anchor="middle">IMG</text><text x="110.00" y="340.00" font-family="ui-sans-serif, -apple-system, 'SF Pro Text', 'Segoe UI', sans-serif" font-size="12.5" font-weight="600" fill="#EDF3FA" text-anchor="start">Site-Photos</text><text x="110.00" y="355.00" font-family="ui-sans-serif, -apple-system, 'SF Pro Text', 'Segoe UI', sans-serif" font-size="10.5" font-weight="500" fill="#7C8FA3" text-anchor="start">4 pages</text><g transform="translate(59.00,387.00) scale(0.4167)" stroke="#7C8FA3" stroke-width="4.080" fill="none" stroke-linecap="round" stroke-linejoin="round"><path d="M9.5 6l6 6-6 6"/></g><rect x="76.00" y="375.00" width="26.00" height="34.00" rx="3.00" fill="#EAE7DF"/><rect x="76.00" y="375.00" width="26.00" height="34.00" rx="3.00" fill="none" stroke="#EDF3FA" stroke-width="1" stroke-opacity="0.3"/><line x1="80.00" y1="383.00" x2="98.00" y2="383.00" stroke="#B9B3A6" stroke-width="1" stroke-linecap="round" opacity="0.9"/><line x1="80.00" y1="389.00" x2="98.00" y2="389.00" stroke="#B9B3A6" stroke-width="1" stroke-linecap="round" opacity="0.9"/><line x1="80.00" y1="395.00" x2="98.00" y2="395.00" stroke="#B9B3A6" stroke-width="1" stroke-linecap="round" opacity="0.9"/><line x1="80.00" y1="401.00" x2="98.00" y2="401.00" stroke="#B9B3A6" stroke-width="1" stroke-linecap="round" opacity="0.9"/><rect x="74.00" y="400.00" width="16.00" height="8.00" rx="2.00" fill="#1A4E85"/><text x="82.00" y="406.50" font-family="ui-sans-serif, -apple-system, 'SF Pro Text', 'Segoe UI', sans-serif" font-size="5.5" font-weight="800" fill="#FFFFFF" text-anchor="middle">DOC</text><text x="110.00" y="390.00" font-family="ui-sans-serif, -apple-system, 'SF Pro Text', 'Segoe UI', sans-serif" font-size="12.5" font-weight="600" fill="#EDF3FA" text-anchor="start">Signed_NDA</text><text x="110.00" y="405.00" font-family="ui-sans-serif, -apple-system, 'SF Pro Text', 'Segoe UI', sans-serif" font-size="10.5" font-weight="500" fill="#7C8FA3" text-anchor="start">5 pages</text><rect x="268.00" y="78.00" width="516.00" height="890.00" rx="0.00" fill="#0A101C"/><rect x="312.00" y="239.08" width="428.00" height="555.84" rx="4.00" fill="url(#paperGrad)" stroke="#0A0F19" stroke-width="1" stroke-opacity="0.25"/><rect x="312.00" y="239.08" width="428.00" height="555.84" rx="4.00" fill="none" stroke="#000" stroke-width="1" stroke-opacity="0.05"/><circle cx="367.08" cy="304.22" r="9.00" fill="#4FC3E8" opacity="0.9"/><text x="383.08" y="308.22" font-family="ui-serif, 'New York', Georgia, 'Songti SC', serif" font-size="11" font-weight="700" fill="#1C2230" text-anchor="start">NORTHWIND &amp; CO.</text><line x1="359.08" y1="322.22" x2="692.92" y2="322.22" stroke="#DAD5CB" stroke-width="1" stroke-linecap="round"/><line x1="359.08" y1="342.22" x2="472.59" y2="342.22" stroke="#43485A" stroke-width="3" stroke-linecap="round" opacity="0.75"/><text x="359.08" y="364.22" font-family="ui-sans-serif, -apple-system, 'SF Pro Text', 'Segoe UI', sans-serif" font-size="12" font-weight="700" fill="#1C2230" text-anchor="start"></text><line x1="359.08" y1="360.22" x2="559.38" y2="360.22" stroke="#1C2230" stroke-width="4" stroke-linecap="round" opacity="0.9"/><line x1="359.08" y1="382.22" x2="692.92" y2="382.22" stroke="#43485A" stroke-width="2.4" stroke-linecap="round" opacity="0.55"/><line x1="359.08" y1="397.22" x2="672.89" y2="397.22" stroke="#43485A" stroke-width="2.4" stroke-linecap="round" opacity="0.55"/><line x1="359.08" y1="412.22" x2="682.90" y2="412.22" stroke="#43485A" stroke-width="2.4" stroke-linecap="round" opacity="0.55"/><line x1="359.08" y1="427.22" x2="566.06" y2="427.22" stroke="#43485A" stroke-width="2.4" stroke-linecap="round" opacity="0.55"/><line x1="359.08" y1="450.22" x2="692.92" y2="450.22" stroke="#43485A" stroke-width="2.4" stroke-linecap="round" opacity="0.55"/><line x1="359.08" y1="465.22" x2="659.54" y2="465.22" stroke="#43485A" stroke-width="2.4" stroke-linecap="round" opacity="0.55"/><line x1="359.08" y1="480.22" x2="686.24" y2="480.22" stroke="#43485A" stroke-width="2.4" stroke-linecap="round" opacity="0.55"/><line x1="359.08" y1="495.22" x2="652.86" y2="495.22" stroke="#43485A" stroke-width="2.4" stroke-linecap="round" opacity="0.55"/><line x1="359.08" y1="510.22" x2="526.00" y2="510.22" stroke="#43485A" stroke-width="2.4" stroke-linecap="round" opacity="0.55"/><line x1="359.08" y1="705.99" x2="499.29" y2="705.99" stroke="#DAD5CB" stroke-width="1" stroke-linecap="round"/><text x="359.08" y="719.99" font-family="ui-sans-serif, -apple-system, 'SF Pro Text', 'Segoe UI', sans-serif" font-size="10" font-weight="400" fill="#43485A" text-anchor="start"></text><rect x="474.00" y="938.00" width="104.00" height="22.00" rx="11.00" fill="#182434" fill-opacity="0.9" stroke="#EDF3FA" stroke-width="1" stroke-opacity="0.16"/><text x="526.00" y="953.00" font-family="ui-sans-serif, -apple-system, 'SF Pro Text', 'Segoe UI', sans-serif" font-size="11" font-weight="500" fill="#AFC2D6" text-anchor="middle">Page 3 of 14</text><path d="M738.0 895.2 L755.6 914.4 L738.0 933.6 L720.4 914.4 Z" fill="#5FA9C9"/><path d="M738.0 895.2 L755.6 914.4 L738.0 914.4 Z" fill="#4A8FB0" opacity="0.6"/><path d="M720.4 914.4 L714.0 901.6 L728.4 909.6 Z" fill="#4A8FB0"/><path d="M755.6 914.4 L762.0 901.6 L747.6 909.6 Z" fill="#4A8FB0"/><path d="M732.4 920.8 L743.6 920.8 L738.0 930.4 Z" fill="#EAF4F9"/><circle cx="732.40" cy="914.40" r="1.92" fill="#12303F"/><circle cx="743.60" cy="914.40" r="1.92" fill="#12303F"/><circle cx="738.00" cy="923.20" r="1.44" fill="#12303F"/><g filter="url(#winShadow)"><rect x="800.00" y="32.00" width="764.00" height="936.00" rx="13.00" fill="url(#winGrad)"/><rect x="800.00" y="32.00" width="764.00" height="936.00" rx="13.00" fill="none" stroke="#EDF3FA" stroke-width="1" stroke-opacity="0.1"/></g><rect x="800.00" y="32.00" width="764.00" height="936.00" rx="13.00" fill="#0A101C"/><circle cx="822.00" cy="58.00" r="6.20" fill="#FF5F57"/><circle cx="842.00" cy="58.00" r="6.20" fill="#FEBC2E"/><circle cx="862.00" cy="58.00" r="6.20" fill="#28C840"/><circle cx="822.00" cy="58.00" r="6.20" fill="none" stroke="#000" stroke-width="0.5" opacity="0.15"/><circle cx="842.00" cy="58.00" r="6.20" fill="none" stroke="#000" stroke-width="0.5" opacity="0.15"/><circle cx="862.00" cy="58.00" r="6.20" fill="none" stroke="#000" stroke-width="0.5" opacity="0.15"/><rect x="860.00" y="84.00" width="644.00" height="836.36" rx="4.00" fill="url(#paperGrad)" stroke="#0A0F19" stroke-width="1" stroke-opacity="0.25"/><rect x="860.00" y="84.00" width="644.00" height="836.36" rx="4.00" fill="none" stroke="#000" stroke-width="1" stroke-opacity="0.05"/><circle cx="938.84" cy="180.00" r="9.00" fill="#4FC3E8" opacity="0.9"/><text x="954.84" y="184.00" font-family="ui-serif, 'New York', Georgia, 'Songti SC', serif" font-size="11" font-weight="700" fill="#1C2230" text-anchor="start">NORTHWIND &amp; CO.</text><line x1="930.84" y1="198.00" x2="1433.16" y2="198.00" stroke="#DAD5CB" stroke-width="1" stroke-linecap="round"/><line x1="930.84" y1="218.00" x2="1101.63" y2="218.00" stroke="#43485A" stroke-width="3" stroke-linecap="round" opacity="0.75"/><text x="930.84" y="240.00" font-family="ui-sans-serif, -apple-system, 'SF Pro Text', 'Segoe UI', sans-serif" font-size="12" font-weight="700" fill="#1C2230" text-anchor="start"></text><line x1="930.84" y1="236.00" x2="1232.23" y2="236.00" stroke="#1C2230" stroke-width="4" stroke-linecap="round" opacity="0.9"/><line x1="930.84" y1="258.00" x2="1433.16" y2="258.00" stroke="#43485A" stroke-width="2.4" stroke-linecap="round" opacity="0.55"/><line x1="930.84" y1="273.00" x2="1403.02" y2="273.00" stroke="#43485A" stroke-width="2.4" stroke-linecap="round" opacity="0.55"/><line x1="930.84" y1="288.00" x2="1418.09" y2="288.00" stroke="#43485A" stroke-width="2.4" stroke-linecap="round" opacity="0.55"/><line x1="930.84" y1="303.00" x2="1242.28" y2="303.00" stroke="#43485A" stroke-width="2.4" stroke-linecap="round" opacity="0.55"/><line x1="930.84" y1="326.00" x2="1433.16" y2="326.00" stroke="#43485A" stroke-width="2.4" stroke-linecap="round" opacity="0.55"/><line x1="930.84" y1="341.00" x2="1382.93" y2="341.00" stroke="#43485A" stroke-width="2.4" stroke-linecap="round" opacity="0.55"/><line x1="930.84" y1="356.00" x2="1423.11" y2="356.00" stroke="#43485A" stroke-width="2.4" stroke-linecap="round" opacity="0.55"/><line x1="930.84" y1="371.00" x2="1372.88" y2="371.00" stroke="#43485A" stroke-width="2.4" stroke-linecap="round" opacity="0.55"/><line x1="930.84" y1="386.00" x2="1182.00" y2="386.00" stroke="#43485A" stroke-width="2.4" stroke-linecap="round" opacity="0.55"/><line x1="930.84" y1="786.55" x2="1141.81" y2="786.55" stroke="#DAD5CB" stroke-width="1" stroke-linecap="round"/><text x="930.84" y="800.55" font-family="ui-sans-serif, -apple-system, 'SF Pro Text', 'Segoe UI', sans-serif" font-size="10" font-weight="400" fill="#43485A" text-anchor="start"></text><g filter="url(#softShadow)"><rect x="876.00" y="100.00" width="164.00" height="32.00" rx="16.00" fill="#111A29" stroke="#EDF3FA" stroke-width="1" stroke-opacity="0.5"/></g><g transform="translate(886.50,108.50) scale(0.6250)" stroke="#EDF3FA" stroke-width="2.720" fill="none" stroke-linecap="round" stroke-linejoin="round"><path d="M12 6.5C10.5 5.3 8 5 5.5 5.4V17.6C8 17.2 10.5 17.5 12 18.6M12 6.5C13.5 5.3 16 5 18.5 5.4V17.6C16 17.2 13.5 17.5 12 18.6M12 6.5V18.6" fill="#EDF3FA" fill-opacity="0.9"/></g><text x="908.00" y="120.00" font-family="ui-sans-serif, -apple-system, 'SF Pro Text', 'Segoe UI', sans-serif" font-size="12" font-weight="600" fill="#EDF3FA" text-anchor="start">Reader</text><line x1="958.00" y1="107.00" x2="958.00" y2="125.00" stroke="#EDF3FA" stroke-width="1" stroke-linecap="round" opacity="0.4"/><g transform="translate(969.00,109.00) scale(0.5833)" stroke="#7C8FA3" stroke-width="2.914" fill="none" stroke-linecap="round" stroke-linejoin="round"><circle cx="7" cy="14" r="3.2"/><circle cx="17" cy="14" r="3.2"/><path d="M10.2 13.5c.9-1 2.7-1 3.6 0M4 12l1.4-5.2a1.6 1.6 0 0 1 1.5-1.1M20 12l-1.4-5.2a1.6 1.6 0 0 0-1.5-1.1"/></g><g transform="translate(993.00,109.00) scale(0.5833)" stroke="#4FC3E8" stroke-width="2.914" fill="none" stroke-linecap="round" stroke-linejoin="round"><path d="M5 7.5a2.5 2.5 0 0 1 2.5-2.5h9A2.5 2.5 0 0 1 19 7.5v5A2.5 2.5 0 0 1 16.5 15H11l-4 4v-4h-.5A2.5 2.5 0 0 1 5 12.5z"/><path d="M8.5 8.8h7M8.5 11.4h4.5"/></g><line x1="1022.00" y1="111.00" x2="1030.00" y2="121.00" stroke="#7C8FA3" stroke-width="1.5" stroke-linecap="round"/><line x1="1030.00" y1="111.00" x2="1022.00" y2="121.00" stroke="#7C8FA3" stroke-width="1.5" stroke-linecap="round"/><rect x="350.00" y="960.00" width="120.00" height="26.00" rx="13.00" fill="#182434" stroke="#EDF3FA" stroke-width="1" stroke-opacity="0.2"/><text x="410.00" y="977.00" font-family="ui-sans-serif, -apple-system, 'SF Pro Text', 'Segoe UI', sans-serif" font-size="12" font-weight="600" fill="#AFC2D6" text-anchor="middle">Normal view</text><rect x="1118.00" y="960.00" width="128.00" height="26.00" rx="13.00" fill="#4FC3E8" fill-opacity="0.18" stroke="#4FC3E8" stroke-width="1" stroke-opacity="0.4"/><text x="1182.00" y="977.00" font-family="ui-sans-serif, -apple-system, 'SF Pro Text', 'Segoe UI', sans-serif" font-size="12" font-weight="700" fill="#4FC3E8" text-anchor="middle">Reader Mode</text></svg>