<svg width="1600" height="1000" viewBox="0 0 1600 1000" xmlns="http://www.w3.org/2000/svg" role="img" aria-labelledby="ti de" font-family="ui-sans-serif, -apple-system, 'SF Pro Text', 'Segoe UI', sans-serif"><title id="ti">The Recently Viewed shelf</title><desc id="de">The Orifold empty-state screen showing a Recently Viewed shelf with four document thumbnails, each with a page count and a resume-at-page badge.</desc><defs>
  <linearGradient id="appGrad" x1="0" y1="0" x2="1" y2="1">
    <stop offset="0" stop-color="#7ADEF4"/><stop offset="1" stop-color="#4FC3E8"/></linearGradient>
  <linearGradient id="accentGrad" x1="0" y1="0" x2="1" y2="1">
    <stop offset="0" stop-color="#7ADEF4"/><stop offset="1" stop-color="#4FC3E8"/></linearGradient>
  <linearGradient id="winGrad" x1="0" y1="0" x2="0" y2="1">
    <stop offset="0" stop-color="#0C1524"/><stop offset="1" stop-color="#0A101C"/></linearGradient>
  <linearGradient id="paperGrad" x1="0" y1="0" x2="0" y2="1">
    <stop offset="0" stop-color="#FFFFFF"/><stop offset="1" stop-color="#F4F1EA"/></linearGradient>
  <filter id="winShadow" x="-20%" y="-20%" width="140%" height="140%">
    <feDropShadow dx="0" dy="14" stdDeviation="26" flood-color="#000000" flood-opacity="0.5"/></filter>
  <filter id="softShadow" x="-40%" y="-40%" width="180%" height="180%">
    <feDropShadow dx="0" dy="6" stdDeviation="12" flood-color="#000000" flood-opacity="0.35"/></filter>
  <radialGradient id="glow" cx="0.5" cy="0.5" r="0.5">
    <stop offset="0" stop-color="#4FC3E8" stop-opacity="0.14"/>
    <stop offset="0.55" stop-color="#4FC3E8" stop-opacity="0.05"/>
    <stop offset="1" stop-color="#4FC3E8" stop-opacity="0"/></radialGradient>
  
</defs><rect width="1600" height="1000" fill="none"/><g filter="url(#winShadow)"><rect x="40.00" y="36.00" width="1520.00" height="928.00" rx="13.00" fill="url(#winGrad)"/><rect x="40.00" y="36.00" width="1520.00" height="928.00" rx="13.00" fill="none" stroke="#EDF3FA" stroke-width="1" stroke-opacity="0.1"/></g><circle cx="62.00" cy="59.00" r="6.20" fill="#FF5F57"/><circle cx="82.00" cy="59.00" r="6.20" fill="#FEBC2E"/><circle cx="102.00" cy="59.00" r="6.20" fill="#28C840"/><circle cx="62.00" cy="59.00" r="6.20" fill="none" stroke="#000" stroke-width="0.5" opacity="0.15"/><circle cx="82.00" cy="59.00" r="6.20" fill="none" stroke="#000" stroke-width="0.5" opacity="0.15"/><circle cx="102.00" cy="59.00" r="6.20" fill="none" stroke="#000" stroke-width="0.5" opacity="0.15"/><line x1="40.00" y1="82.00" x2="1560.00" y2="82.00" stroke="#EDF3FA" stroke-width="1" stroke-linecap="round" opacity="0.08"/><circle cx="283.2" cy="341.8" r="300.0" fill="url(#glow)"/><circle cx="1377.6" cy="304.7" r="260.0" fill="url(#glow)"/><circle cx="800.0" cy="917.2" r="260.0" fill="url(#glow)"/><path d="M788.56 124.0 L807.04 124.0 L822.0 138.96 L822.0 157.44 Q822.0 168.0 811.44 168.0 L788.56 168.0 Q778.0 168.0 778.0 157.44 L778.0 134.56 Q778.0 124.0 788.56 124.0 Z" fill="url(#appGrad)"/><path d="M807.04 124.0 L822.0 138.96 L807.04 138.96 Z" fill="#0A101C" fill-opacity="0.28"/><path d="M790.32 150.4 L798.24 140.72 L809.68 153.04" stroke="#0A2A3A" stroke-width="2.6399999999999997" fill="none" stroke-linecap="round" stroke-linejoin="round" opacity="0.55"/><text x="800.00" y="206.00" font-family="ui-serif, 'New York', Georgia, 'Songti SC', serif" font-size="34" font-weight="600" fill="#EDF3FA" text-anchor="middle" letter-spacing="0.6">Orifold</text><text x="800.00" y="232.00" font-family="ui-sans-serif, -apple-system, 'SF Pro Text', 'Segoe UI', sans-serif" font-size="15" font-weight="600" fill="#EDF3FA" text-anchor="middle">Fold scattered pages into one polished PDF.</text><text x="800.00" y="254.00" font-family="ui-sans-serif, -apple-system, 'SF Pro Text', 'Segoe UI', sans-serif" font-size="13.5" font-weight="400" fill="#AFC2D6" text-anchor="middle">Combine, arrange, annotate, and export documents in one calm workspace.</text><rect x="398.50" y="278.00" width="100.00" height="26.00" rx="13.00" fill="#4FC3E8" fill-opacity="0.14" stroke="#4FC3E8" stroke-width="1" stroke-opacity="0.2"/><circle cx="412.50" cy="291.00" r="3.20" fill="#4FC3E8"/><text x="422.50" y="295.00" font-family="ui-sans-serif, -apple-system, 'SF Pro Text', 'Segoe UI', sans-serif" font-size="11.5" font-weight="600" fill="#4FC3E8" text-anchor="start">Assemble</text><rect x="506.50" y="278.00" width="93.00" height="26.00" rx="13.00" fill="#74B0DD" fill-opacity="0.14" stroke="#74B0DD" stroke-width="1" stroke-opacity="0.2"/><circle cx="520.50" cy="291.00" r="3.20" fill="#74B0DD"/><text x="530.50" y="295.00" font-family="ui-sans-serif, -apple-system, 'SF Pro Text', 'Segoe UI', sans-serif" font-size="11.5" font-weight="600" fill="#74B0DD" text-anchor="start">Mark up</text><rect x="607.50" y="278.00" width="114.00" height="26.00" rx="13.00" fill="#8DC2AB" fill-opacity="0.14" stroke="#8DC2AB" stroke-width="1" stroke-opacity="0.2"/><circle cx="621.50" cy="291.00" r="3.20" fill="#8DC2AB"/><text x="631.50" y="295.00" font-family="ui-sans-serif, -apple-system, 'SF Pro Text', 'Segoe UI', sans-serif" font-size="11.5" font-weight="600" fill="#8DC2AB" text-anchor="start">Fill forms</text><rect x="729.50" y="278.00" width="128.00" height="26.00" rx="13.00" fill="#7ADEF4" fill-opacity="0.14" stroke="#7ADEF4" stroke-width="1" stroke-opacity="0.2"/><circle cx="743.50" cy="291.00" r="3.20" fill="#7ADEF4"/><text x="753.50" y="295.00" font-family="ui-sans-serif, -apple-system, 'SF Pro Text', 'Segoe UI', sans-serif" font-size="11.5" font-weight="600" fill="#7ADEF4" text-anchor="start">Search scans</text><rect x="865.50" y="278.00" width="79.00" height="26.00" rx="13.00" fill="#F98C68" fill-opacity="0.14" stroke="#F98C68" stroke-width="1" stroke-opacity="0.2"/><circle cx="879.50" cy="291.00" r="3.20" fill="#F98C68"/><text x="889.50" y="295.00" font-family="ui-sans-serif, -apple-system, 'SF Pro Text', 'Segoe UI', sans-serif" font-size="11.5" font-weight="600" fill="#F98C68" text-anchor="start">Stamp</text><rect x="952.50" y="278.00" width="93.00" height="26.00" rx="13.00" fill="#B0A6DD" fill-opacity="0.14" stroke="#B0A6DD" stroke-width="1" stroke-opacity="0.2"/><circle cx="966.50" cy="291.00" r="3.20" fill="#B0A6DD"/><text x="976.50" y="295.00" font-family="ui-sans-serif, -apple-system, 'SF Pro Text', 'Segoe UI', sans-serif" font-size="11.5" font-weight="600" fill="#B0A6DD" text-anchor="start">Protect</text><rect x="540.00" y="330.00" width="520.00" height="196.00" rx="16.00" fill="#182434"/><rect x="540.00" y="330.00" width="520.00" height="196.00" rx="16.00" fill="none" stroke="#EDF3FA" stroke-width="1" stroke-opacity="0.14"/><g transform="translate(785.00,355.00) scale(1.2500)" stroke="#4FC3E8" stroke-width="1.360" fill="none" stroke-linecap="round" stroke-linejoin="round"><path d="M7 4.5h6l4 4v6"/><path d="M7 4.5A1.5 1.5 0 0 0 5.5 6v12A1.5 1.5 0 0 0 7 19.5h6"/><path d="M13 4.5V8.5H17"/><circle cx="17" cy="17" r="3.4"/><path d="M17 15.4v3.2M15.4 17h3.2"/></g><text x="800.00" y="408.00" font-family="ui-sans-serif, -apple-system, 'SF Pro Text', 'Segoe UI', sans-serif" font-size="15" font-weight="600" fill="#EDF3FA" text-anchor="middle">Drop files or folders to begin</text><text x="800.00" y="428.00" font-family="ui-sans-serif, -apple-system, 'SF Pro Text', 'Segoe UI', sans-serif" font-size="12" font-weight="400" fill="#7C8FA3" text-anchor="middle">PDF, Word, HTML, text, images. Up to 50 files.</text><rect x="642.00" y="450.00" width="152.00" height="36.00" rx="8.00" fill="#4FC3E8"/><g transform="translate(668.50,460.50) scale(0.6250)" stroke="#0A101C" stroke-width="2.720" fill="none" stroke-linecap="round" stroke-linejoin="round"><path d="M4 8.5a1.5 1.5 0 0 1 1.5-1.5H9l1.8 2H16a1.5 1.5 0 0 1 1.5 1.5v6A1.5 1.5 0 0 1 16 18H5.5A1.5 1.5 0 0 1 4 16.5z"/><path d="M10.7 13.5h4M12.7 11.5v4"/></g><text x="692.00" y="472.00" font-family="ui-sans-serif, -apple-system, 'SF Pro Text', 'Segoe UI', sans-serif" font-size="13" font-weight="600" fill="#0A101C" text-anchor="start">Choose Files</text><rect x="806.00" y="450.00" width="152.00" height="36.00" rx="8.00" fill="#182434" stroke="#4FC3E8" stroke-width="1" stroke-opacity="0.5"/><g transform="translate(832.50,460.50) scale(0.6250)" stroke="#4FC3E8" stroke-width="2.720" fill="none" stroke-linecap="round" stroke-linejoin="round"><path d="M4 8.5a1.5 1.5 0 0 1 1.5-1.5H9l1.8 2H18.5A1.5 1.5 0 0 1 20 10.5v6A1.5 1.5 0 0 1 18.5 18h-13A1.5 1.5 0 0 1 4 16.5z"/></g><text x="856.00" y="472.00" font-family="ui-sans-serif, -apple-system, 'SF Pro Text', 'Segoe UI', sans-serif" font-size="13" font-weight="600" fill="#4FC3E8" text-anchor="start">Choose Folder</text><rect x="56.00" y="96.00" width="96.00" height="26.00" rx="13.00" fill="#182434" stroke="#EDF3FA" stroke-width="1" stroke-opacity="0.2"/><g transform="translate(65.00,102.00) scale(0.5833)" stroke="#AFC2D6" stroke-width="2.914" fill="none" stroke-linecap="round" stroke-linejoin="round"><circle cx="12" cy="12" r="8"/><path d="M4 12h16M12 4c2.5 2 2.5 14 0 16M12 4c-2.5 2-2.5 14 0 16M5.5 7.5c4 2 9 2 13 0M5.5 16.5c4-2 9-2 13 0"/></g><text x="84.00" y="113.00" font-family="ui-sans-serif, -apple-system, 'SF Pro Text', 'Segoe UI', sans-serif" font-size="12" font-weight="500" fill="#AFC2D6" text-anchor="start">English</text><text x="542.00" y="566.00" font-family="ui-sans-serif, -apple-system, 'SF Pro Text', 'Segoe UI', sans-serif" font-size="12.5" font-weight="600" fill="#AFC2D6" text-anchor="start" letter-spacing="0.4">Recently viewed</text><text x="1060.00" y="566.00" font-family="ui-sans-serif, -apple-system, 'SF Pro Text', 'Segoe UI', sans-serif" font-size="11" font-weight="500" fill="#4FC3E8" text-anchor="end">Show all (9)</text><rect x="540.00" y="582.00" width="119.50" height="150.00" rx="10.00" fill="#182434" stroke="#EDF3FA" stroke-width="1" stroke-opacity="0.14"/><rect x="552.00" y="594.00" width="95.50" height="84.00" rx="5.00" fill="#EDEAE2"/><rect x="552.00" y="594.00" width="95.50" height="84.00" rx="5.00" fill="none" stroke="#EDF3FA" stroke-width="1" stroke-opacity="0.3"/><rect x="560.00" y="602.00" width="16.00" height="7.00" rx="1.50" fill="#EF8A7E"/><line x1="560.00" y1="618.00" x2="639.50" y2="618.00" stroke="#B9B3A6" stroke-width="2" stroke-linecap="round" opacity="0.8"/><line x1="560.00" y1="629.00" x2="639.50" y2="629.00" stroke="#B9B3A6" stroke-width="2" stroke-linecap="round" opacity="0.8"/><line x1="560.00" y1="640.00" x2="639.50" y2="640.00" stroke="#B9B3A6" stroke-width="2" stroke-linecap="round" opacity="0.8"/><line x1="560.00" y1="651.00" x2="639.50" y2="651.00" stroke="#B9B3A6" stroke-width="2" stroke-linecap="round" opacity="0.8"/><text x="552.00" y="696.00" font-family="ui-sans-serif, -apple-system, 'SF Pro Text', 'Segoe UI', sans-serif" font-size="12" font-weight="600" fill="#EDF3FA" text-anchor="start">Lease Agreement</text><text x="552.00" y="711.00" font-family="ui-sans-serif, -apple-system, 'SF Pro Text', 'Segoe UI', sans-serif" font-size="10" font-weight="400" fill="#7C8FA3" text-anchor="start">12 pages</text><rect x="552.00" y="716.00" width="64.00" height="15.00" rx="7.00" fill="#4FC3E8" fill-opacity="0.16"/><text x="560.00" y="726.50" font-family="ui-sans-serif, -apple-system, 'SF Pro Text', 'Segoe UI', sans-serif" font-size="8.5" font-weight="600" fill="#4FC3E8" text-anchor="start">Resume · p. 4</text><rect x="673.50" y="582.00" width="119.50" height="150.00" rx="10.00" fill="#182434" stroke="#EDF3FA" stroke-width="1" stroke-opacity="0.14"/><rect x="685.50" y="594.00" width="95.50" height="84.00" rx="5.00" fill="#EDEAE2"/><rect x="685.50" y="594.00" width="95.50" height="84.00" rx="5.00" fill="none" stroke="#EDF3FA" stroke-width="1" stroke-opacity="0.3"/><rect x="693.50" y="602.00" width="16.00" height="7.00" rx="1.50" fill="#1A4E85"/><line x1="693.50" y1="618.00" x2="773.00" y2="618.00" stroke="#B9B3A6" stroke-width="2" stroke-linecap="round" opacity="0.8"/><line x1="693.50" y1="629.00" x2="773.00" y2="629.00" stroke="#B9B3A6" stroke-width="2" stroke-linecap="round" opacity="0.8"/><line x1="693.50" y1="640.00" x2="773.00" y2="640.00" stroke="#B9B3A6" stroke-width="2" stroke-linecap="round" opacity="0.8"/><line x1="693.50" y1="651.00" x2="773.00" y2="651.00" stroke="#B9B3A6" stroke-width="2" stroke-linecap="round" opacity="0.8"/><text x="685.50" y="696.00" font-family="ui-sans-serif, -apple-system, 'SF Pro Text', 'Segoe UI', sans-serif" font-size="12" font-weight="600" fill="#EDF3FA" text-anchor="start">Onboarding</text><text x="685.50" y="711.00" font-family="ui-sans-serif, -apple-system, 'SF Pro Text', 'Segoe UI', sans-serif" font-size="10" font-weight="400" fill="#7C8FA3" text-anchor="start">6 pages</text><rect x="685.50" y="716.00" width="64.00" height="15.00" rx="7.00" fill="#4FC3E8" fill-opacity="0.16"/><text x="693.50" y="726.50" font-family="ui-sans-serif, -apple-system, 'SF Pro Text', 'Segoe UI', sans-serif" font-size="8.5" font-weight="600" fill="#4FC3E8" text-anchor="start">Resume · p. 2</text><rect x="807.00" y="582.00" width="119.50" height="150.00" rx="10.00" fill="#182434" stroke="#EDF3FA" stroke-width="1" stroke-opacity="0.14"/><rect x="819.00" y="594.00" width="95.50" height="84.00" rx="5.00" fill="#EDEAE2"/><rect x="819.00" y="594.00" width="95.50" height="84.00" rx="5.00" fill="none" stroke="#EDF3FA" stroke-width="1" stroke-opacity="0.3"/><rect x="827.00" y="602.00" width="16.00" height="7.00" rx="1.50" fill="#1A9BA6"/><line x1="827.00" y1="618.00" x2="906.50" y2="618.00" stroke="#B9B3A6" stroke-width="2" stroke-linecap="round" opacity="0.8"/><line x1="827.00" y1="629.00" x2="906.50" y2="629.00" stroke="#B9B3A6" stroke-width="2" stroke-linecap="round" opacity="0.8"/><line x1="827.00" y1="640.00" x2="906.50" y2="640.00" stroke="#B9B3A6" stroke-width="2" stroke-linecap="round" opacity="0.8"/><line x1="827.00" y1="651.00" x2="906.50" y2="651.00" stroke="#B9B3A6" stroke-width="2" stroke-linecap="round" opacity="0.8"/><text x="819.00" y="696.00" font-family="ui-sans-serif, -apple-system, 'SF Pro Text', 'Segoe UI', sans-serif" font-size="12" font-weight="600" fill="#EDF3FA" text-anchor="start">Field Report</text><text x="819.00" y="711.00" font-family="ui-sans-serif, -apple-system, 'SF Pro Text', 'Segoe UI', sans-serif" font-size="10" font-weight="400" fill="#7C8FA3" text-anchor="start">20 pages</text><rect x="819.00" y="716.00" width="64.00" height="15.00" rx="7.00" fill="#4FC3E8" fill-opacity="0.16"/><text x="827.00" y="726.50" font-family="ui-sans-serif, -apple-system, 'SF Pro Text', 'Segoe UI', sans-serif" font-size="8.5" font-weight="600" fill="#4FC3E8" text-anchor="start">Resume · p. 11</text><rect x="940.50" y="582.00" width="119.50" height="150.00" rx="10.00" fill="#182434" stroke="#EDF3FA" stroke-width="1" stroke-opacity="0.14"/><rect x="952.50" y="594.00" width="95.50" height="84.00" rx="5.00" fill="#EDEAE2"/><rect x="952.50" y="594.00" width="95.50" height="84.00" rx="5.00" fill="none" stroke="#EDF3FA" stroke-width="1" stroke-opacity="0.3"/><rect x="960.50" y="602.00" width="16.00" height="7.00" rx="1.50" fill="#8DC2AB"/><line x1="960.50" y1="618.00" x2="1040.00" y2="618.00" stroke="#B9B3A6" stroke-width="2" stroke-linecap="round" opacity="0.8"/><line x1="960.50" y1="629.00" x2="1040.00" y2="629.00" stroke="#B9B3A6" stroke-width="2" stroke-linecap="round" opacity="0.8"/><line x1="960.50" y1="640.00" x2="1040.00" y2="640.00" stroke="#B9B3A6" stroke-width="2" stroke-linecap="round" opacity="0.8"/><line x1="960.50" y1="651.00" x2="1040.00" y2="651.00" stroke="#B9B3A6" stroke-width="2" stroke-linecap="round" opacity="0.8"/><text x="952.50" y="696.00" font-family="ui-sans-serif, -apple-system, 'SF Pro Text', 'Segoe UI', sans-serif" font-size="12" font-weight="600" fill="#EDF3FA" text-anchor="start">Scan_2024</text><text x="952.50" y="711.00" font-family="ui-sans-serif, -apple-system, 'SF Pro Text', 'Segoe UI', sans-serif" font-size="10" font-weight="400" fill="#7C8FA3" text-anchor="start">3 pages</text><rect x="952.50" y="716.00" width="64.00" height="15.00" rx="7.00" fill="#4FC3E8" fill-opacity="0.16"/><text x="960.50" y="726.50" font-family="ui-sans-serif, -apple-system, 'SF Pro Text', 'Segoe UI', sans-serif" font-size="8.5" font-weight="600" fill="#4FC3E8" text-anchor="start">Resume · p. 1</text></svg>