<svg width="1920" height="1200" viewBox="0 0 1920 1200" xmlns="http://www.w3.org/2000/svg" role="img" aria-labelledby="ti de" font-family="ui-sans-serif, -apple-system, 'SF Pro Text', 'Segoe UI', sans-serif"><title id="ti">The Orifold window</title><desc id="de">The Orifold workspace with four labeled regions: the sidebar of documents on the left, the annotation toolbar across the top, the page canvas in the center, and the inspector on the right.</desc><defs>
  <linearGradient id="appGrad" x1="0" y1="0" x2="1" y2="1">
    <stop offset="0" stop-color="#7ADEF4"/><stop offset="1" stop-color="#4FC3E8"/></linearGradient>
  <linearGradient id="accentGrad" x1="0" y1="0" x2="1" y2="1">
    <stop offset="0" stop-color="#7ADEF4"/><stop offset="1" stop-color="#4FC3E8"/></linearGradient>
  <linearGradient id="winGrad" x1="0" y1="0" x2="0" y2="1">
    <stop offset="0" stop-color="#0C1524"/><stop offset="1" stop-color="#0A101C"/></linearGradient>
  <linearGradient id="paperGrad" x1="0" y1="0" x2="0" y2="1">
    <stop offset="0" stop-color="#FFFFFF"/><stop offset="1" stop-color="#F4F1EA"/></linearGradient>
  <filter id="winShadow" x="-20%" y="-20%" width="140%" height="140%">
    <feDropShadow dx="0" dy="14" stdDeviation="26" flood-color="#000000" flood-opacity="0.5"/></filter>
  <filter id="softShadow" x="-40%" y="-40%" width="180%" height="180%">
    <feDropShadow dx="0" dy="6" stdDeviation="12" flood-color="#000000" flood-opacity="0.35"/></filter>
  <radialGradient id="glow" cx="0.5" cy="0.5" r="0.5">
    <stop offset="0" stop-color="#4FC3E8" stop-opacity="0.14"/>
    <stop offset="0.55" stop-color="#4FC3E8" stop-opacity="0.05"/>
    <stop offset="1" stop-color="#4FC3E8" stop-opacity="0"/></radialGradient>
  
</defs><rect width="1920" height="1200" fill="none"/><g filter="url(#winShadow)"><rect x="54.00" y="50.00" width="1812.00" height="1100.00" rx="13.00" fill="url(#winGrad)"/><rect x="54.00" y="50.00" width="1812.00" height="1100.00" rx="13.00" fill="none" stroke="#EDF3FA" stroke-width="1" stroke-opacity="0.1"/></g><line x1="54.00" y1="96.00" x2="1866.00" y2="96.00" stroke="#EDF3FA" stroke-width="1" stroke-linecap="round" opacity="0.1"/><circle cx="76.00" cy="73.00" r="6.20" fill="#FF5F57"/><circle cx="96.00" cy="73.00" r="6.20" fill="#FEBC2E"/><circle cx="116.00" cy="73.00" r="6.20" fill="#28C840"/><circle cx="76.00" cy="73.00" r="6.20" fill="none" stroke="#000" stroke-width="0.5" opacity="0.15"/><circle cx="96.00" cy="73.00" r="6.20" fill="none" stroke="#000" stroke-width="0.5" opacity="0.15"/><circle cx="116.00" cy="73.00" r="6.20" fill="none" stroke="#000" stroke-width="0.5" opacity="0.15"/><text x="140.00" y="77.00" font-family="ui-sans-serif, -apple-system, 'SF Pro Text', 'Segoe UI', sans-serif" font-size="13" font-weight="600" fill="#EDF3FA" text-anchor="start">Contract Packet</text><g transform="translate(290.50,64.50) scale(0.7083)" stroke="#AFC2D6" stroke-width="2.400" fill="none" stroke-linecap="round" stroke-linejoin="round"><circle cx="12" cy="12" r="8.5"/><path d="M12 8.2V15.8M8.2 12H15.8"/></g><g transform="translate(320.50,64.50) scale(0.7083)" stroke="#AFC2D6" stroke-width="2.400" fill="none" stroke-linecap="round" stroke-linejoin="round"><rect x="5" y="4.5" width="14" height="15" rx="2"/><path d="M8.5 9h7M8.5 12h7M8.5 15h4.5"/></g><rect x="818.00" y="58.00" width="284.00" height="30.00" rx="9.00" fill="#182434" fill-opacity="0.7" stroke="#EDF3FA" stroke-width="1" stroke-opacity="0.14"/><g transform="translate(828.00,65.00) scale(0.6667)" stroke="#AFC2D6" stroke-width="2.550" fill="none" stroke-linecap="round" stroke-linejoin="round"><path d="M7 5l11 6.5-4.7 1.2 2.7 5-2.2 1.1-2.7-5-3.4 3.4z" fill="#AFC2D6" fill-opacity="0.85"/></g><rect x="853.00" y="61.00" width="26.00" height="24.00" rx="7.00" fill="#4FC3E8" fill-opacity="0.18" stroke="#4FC3E8" stroke-width="1" stroke-opacity="0.55"/><g transform="translate(858.00,65.00) scale(0.6667)" stroke="#4FC3E8" stroke-width="2.550" fill="none" stroke-linecap="round" stroke-linejoin="round"><path d="M6 18.5l1.5-3 7.8-7.8 3 3-7.8 7.8-3 1.5z"/><path d="M13.5 6.2l2.3-2.3a1.4 1.4 0 0 1 2 0l1.5 1.5a1.4 1.4 0 0 1 0 2l-2.3 2.3"/><path d="M6 18.5l3 -1.5" stroke-width="3.600"/></g><g transform="translate(888.00,65.00) scale(0.6667)" stroke="#AFC2D6" stroke-width="2.550" fill="none" stroke-linecap="round" stroke-linejoin="round"><path d="M7 5v6a5 5 0 0 0 10 0V5"/><path d="M6 19.5h12"/></g><g transform="translate(918.00,65.00) scale(0.6667)" stroke="#AFC2D6" stroke-width="2.550" fill="none" stroke-linecap="round" stroke-linejoin="round"><path d="M8 7.5a4 4 0 0 1 8 .5M8.5 16a4 4 0 0 0 7.7-.8"/><path d="M4.5 12h15"/></g><g transform="translate(948.00,65.00) scale(0.6667)" stroke="#AFC2D6" stroke-width="2.550" fill="none" stroke-linecap="round" stroke-linejoin="round"><rect x="5" y="5" width="14" height="14" rx="2.4"/><path d="M8.5 9.5h7M8.5 12.5h7M8.5 15.5h4"/></g><g transform="translate(978.00,65.00) scale(0.6667)" stroke="#AFC2D6" stroke-width="2.550" fill="none" stroke-linecap="round" stroke-linejoin="round"><path d="M4.5 19c3-1 4-6 7-9s5.5-4 6.5-2.5-1.5 3-1 5 2 1.5 2.5 3"/></g><g transform="translate(1008.00,65.00) scale(0.6667)" stroke="#AFC2D6" stroke-width="2.550" fill="none" stroke-linecap="round" stroke-linejoin="round"><path d="M5 17l4-10 4 10M6.5 13.5h5"/><path d="M14.5 17l3-7 3 7M15.6 14.6h3.8" stroke-width="2.100"/></g><g transform="translate(1038.00,65.00) scale(0.6667)" stroke="#AFC2D6" stroke-width="2.550" fill="none" stroke-linecap="round" stroke-linejoin="round"><path d="M4.5 15.5c2 .3 3-1.2 3.6-3.4C8.8 9.4 9 6 10.4 6c1.1 0 .9 2.6 1.3 5s1 4.2 2.2 4.2c1.6 0 2-3.3 3.4-3.3.9 0 1.1 1.1 2.2 1.1"/><path d="M4.5 18.5h15" opacity="0.5"/></g><g transform="translate(1068.00,65.00) scale(0.6667)" stroke="#AFC2D6" stroke-width="2.550" fill="none" stroke-linecap="round" stroke-linejoin="round"><path d="M12 4l1.9 1.4 2.3-.3 .9 2.2 2 1.2-.7 2.3.7 2.3-2 1.2-.9 2.2-2.3-.3L12 20l-1.9-1.4-2.3.3-.9-2.2-2-1.2.7-2.3-.7-2.3 2-1.2.9-2.2 2.3.3z"/><path d="M9.5 12l1.8 1.8 3.4-3.6"/></g><circle cx="1118.00" cy="73.00" r="6.50" fill="#FBE382"/><circle cx="1118.00" cy="73.00" r="6.50" fill="none" stroke="#EDF3FA" stroke-width="1" opacity="0.2"/><g transform="translate(1683.50,64.50) scale(0.7083)" stroke="#AFC2D6" stroke-width="2.400" fill="none" stroke-linecap="round" stroke-linejoin="round"><path d="M12 6.5C10.5 5.3 8 5 5.5 5.4V17.6C8 17.2 10.5 17.5 12 18.6M12 6.5C13.5 5.3 16 5 18.5 5.4V17.6C16 17.2 13.5 17.5 12 18.6M12 6.5V18.6"/></g><g transform="translate(1713.50,64.50) scale(0.7083)" stroke="#AFC2D6" stroke-width="2.400" fill="none" stroke-linecap="round" stroke-linejoin="round"><circle cx="10.5" cy="10.5" r="5.5"/><path d="M14.6 14.6L19 19"/></g><g transform="translate(1743.50,64.50) scale(0.7083)" stroke="#AFC2D6" stroke-width="2.400" fill="none" stroke-linecap="round" stroke-linejoin="round"><path d="M12 4.5L12 14.5M8.4 8L12 4.4L15.6 8"/><path d="M6 13v5.5a1 1 0 0 0 1 1h10a1 1 0 0 0 1-1V13"/></g><g transform="translate(1773.50,64.50) scale(0.7083)" stroke="#AFC2D6" stroke-width="2.400" fill="none" stroke-linecap="round" stroke-linejoin="round"><rect x="4" y="5" width="16" height="14" rx="2"/><path d="M15 5v14"/></g><g transform="translate(1803.50,64.50) scale(0.7083)" stroke="#AFC2D6" stroke-width="2.400" fill="none" stroke-linecap="round" stroke-linejoin="round"><circle cx="7" cy="14" r="3.2"/><circle cx="17" cy="14" r="3.2"/><path d="M10.2 13.5c.9-1 2.7-1 3.6 0M4 12l1.4-5.2a1.6 1.6 0 0 1 1.5-1.1M20 12l-1.4-5.2a1.6 1.6 0 0 0-1.5-1.1"/></g><g transform="translate(1833.50,64.50) scale(0.7083)" stroke="#AFC2D6" stroke-width="2.400" fill="none" stroke-linecap="round" stroke-linejoin="round"><circle cx="12" cy="12" r="8.5"/><path d="M9.6 9.6a2.5 2.5 0 0 1 4.8.9c0 1.7-2.4 2-2.4 3.6"/><circle cx="12" cy="17" r="0.4" fill="#AFC2D6"/></g><rect x="54.00" y="96.00" width="232.00" height="1054.00" rx="0.00" fill="#111A29"/><line x1="286.00" y1="96.00" x2="286.00" y2="1150.00" stroke="#EDF3FA" stroke-width="1" stroke-linecap="round" opacity="0.1"/><path d="M76 108 L264 108 L274 118 L274 184 Q274 194 264 194 L76 194 Q66 194 66 184 L66 118 Q66 108 76 108 Z" fill="#182434" opacity="0.72"/><path d="M76 108 L264 108 L274 118 L274 184 Q274 194 264 194 L76 194 Q66 194 66 184 L66 118 Q66 108 76 108 Z" fill="none" stroke="#EDF3FA" stroke-width="1" stroke-linecap="round" stroke-linejoin="round" opacity="0.14"/><path d="M77.32 117.0 L84.88 117.0 L91.0 123.12 L91.0 130.68 Q91.0 135.0 86.68 135.0 L77.32 135.0 Q73.0 135.0 73.0 130.68 L73.0 121.32 Q73.0 117.0 77.32 117.0 Z" fill="url(#appGrad)"/><path d="M84.88 117.0 L91.0 123.12 L84.88 123.12 Z" fill="#0A101C" fill-opacity="0.28"/><path d="M78.04 127.8 L81.28 123.84 L85.96 128.88" stroke="#0A2A3A" stroke-width="1.08" fill="none" stroke-linecap="round" stroke-linejoin="round" opacity="0.55"/><text x="96.00" y="130.00" font-family="ui-serif, 'New York', Georgia, 'Songti SC', serif" font-size="12.5" font-weight="600" fill="#EDF3FA" text-anchor="start" letter-spacing="0.4">Contract Packet</text><g transform="translate(252.50,118.50) scale(0.6250)" stroke="#7C8FA3" stroke-width="2.720" fill="none" stroke-linecap="round" stroke-linejoin="round"><circle cx="6.5" cy="12" r="1.1" fill="#7C8FA3"/><circle cx="12" cy="12" r="1.1" fill="#7C8FA3"/><circle cx="17.5" cy="12" r="1.1" fill="#7C8FA3"/></g><text x="78.00" y="150.00" font-family="ui-sans-serif, -apple-system, 'SF Pro Text', 'Segoe UI', sans-serif" font-size="10.5" font-weight="500" fill="#7C8FA3" text-anchor="start">4 files · 14 pages · 2 comments</text><rect x="78.00" y="160.00" width="78.00" height="20.00" rx="10.00" fill="#4FC3E8" fill-opacity="0.2"/><g transform="translate(82.50,164.50) scale(0.4583)" stroke="#4FC3E8" stroke-width="4.364" fill="none" stroke-linecap="round" stroke-linejoin="round"><path d="M12 6V18M6 12H18"/></g><text x="98.00" y="173.50" font-family="ui-sans-serif, -apple-system, 'SF Pro Text', 'Segoe UI', sans-serif" font-size="11" font-weight="600" fill="#4FC3E8" text-anchor="start">Add Files</text><line x1="66.00" y1="206.00" x2="274.00" y2="206.00" stroke="#EDF3FA" stroke-width="1" stroke-linecap="round" opacity="0.1"/><text x="72.00" y="224.00" font-family="ui-sans-serif, -apple-system, 'SF Pro Text', 'Segoe UI', sans-serif" font-size="10.5" font-weight="600" fill="#7C8FA3" text-anchor="start" letter-spacing="0.6">DOCUMENTS</text><text x="148.00" y="224.00" font-family="ui-sans-serif, -apple-system, 'SF Pro Text', 'Segoe UI', sans-serif" font-size="10.5" font-weight="500" fill="#7C8FA3" text-anchor="start">· 4</text><rect x="68.00" y="238.00" width="204.00" height="44.00" rx="6.00" fill="#4FC3E8" fill-opacity="0.18" stroke="#4FC3E8" stroke-width="0.75" stroke-opacity="0.25"/><rect x="68.00" y="242.00" width="2.00" height="36.00" rx="1.00" fill="#4FC3E8"/><g transform="translate(77.00,255.00) scale(0.4167)" stroke="#7C8FA3" stroke-width="4.080" fill="none" stroke-linecap="round" stroke-linejoin="round"><path d="M9.5 6l6 6-6 6"/></g><rect x="94.00" y="243.00" width="26.00" height="34.00" rx="3.00" fill="#EAE7DF"/><rect x="94.00" y="243.00" width="26.00" height="34.00" rx="3.00" fill="none" stroke="#EDF3FA" stroke-width="1" stroke-opacity="0.3"/><line x1="98.00" y1="251.00" x2="116.00" y2="251.00" stroke="#B9B3A6" stroke-width="1" stroke-linecap="round" opacity="0.9"/><line x1="98.00" y1="257.00" x2="116.00" y2="257.00" stroke="#B9B3A6" stroke-width="1" stroke-linecap="round" opacity="0.9"/><line x1="98.00" y1="263.00" x2="116.00" y2="263.00" stroke="#B9B3A6" stroke-width="1" stroke-linecap="round" opacity="0.9"/><line x1="98.00" y1="269.00" x2="116.00" y2="269.00" stroke="#B9B3A6" stroke-width="1" stroke-linecap="round" opacity="0.9"/><rect x="92.00" y="268.00" width="16.00" height="8.00" rx="2.00" fill="#EF8A7E"/><text x="100.00" y="274.50" font-family="ui-sans-serif, -apple-system, 'SF Pro Text', 'Segoe UI', sans-serif" font-size="5.5" font-weight="800" fill="#FFFFFF" text-anchor="middle">PDF</text><text x="128.00" y="258.00" font-family="ui-sans-serif, -apple-system, 'SF Pro Text', 'Segoe UI', sans-serif" font-size="12.5" font-weight="600" fill="#EDF3FA" text-anchor="start">Cover Letter</text><text x="128.00" y="273.00" font-family="ui-sans-serif, -apple-system, 'SF Pro Text', 'Segoe UI', sans-serif" font-size="10.5" font-weight="500" fill="#7C8FA3" text-anchor="start">3 pages · 1 comment</text><g transform="translate(255.00,253.00) scale(0.5833)" stroke="#7C8FA3" stroke-width="2.914" fill="none" stroke-linecap="round" stroke-linejoin="round"><circle cx="6.5" cy="12" r="1.1" fill="#7C8FA3"/><circle cx="12" cy="12" r="1.1" fill="#7C8FA3"/><circle cx="17.5" cy="12" r="1.1" fill="#7C8FA3"/></g><g transform="translate(77.00,305.00) scale(0.4167)" stroke="#7C8FA3" stroke-width="4.080" fill="none" stroke-linecap="round" stroke-linejoin="round"><path d="M9.5 6l6 6-6 6"/></g><rect x="94.00" y="293.00" width="26.00" height="34.00" rx="3.00" fill="#EAE7DF"/><rect x="94.00" y="293.00" width="26.00" height="34.00" rx="3.00" fill="none" stroke="#EDF3FA" stroke-width="1" stroke-opacity="0.3"/><line x1="98.00" y1="301.00" x2="116.00" y2="301.00" stroke="#B9B3A6" stroke-width="1" stroke-linecap="round" opacity="0.9"/><line x1="98.00" y1="307.00" x2="116.00" y2="307.00" stroke="#B9B3A6" stroke-width="1" stroke-linecap="round" opacity="0.9"/><line x1="98.00" y1="313.00" x2="116.00" y2="313.00" stroke="#B9B3A6" stroke-width="1" stroke-linecap="round" opacity="0.9"/><line x1="98.00" y1="319.00" x2="116.00" y2="319.00" stroke="#B9B3A6" stroke-width="1" stroke-linecap="round" opacity="0.9"/><rect x="92.00" y="318.00" width="16.00" height="8.00" rx="2.00" fill="#EF8A7E"/><text x="100.00" y="324.50" font-family="ui-sans-serif, -apple-system, 'SF Pro Text', 'Segoe UI', sans-serif" font-size="5.5" font-weight="800" fill="#FFFFFF" text-anchor="middle">PDF</text><text x="128.00" y="308.00" font-family="ui-sans-serif, -apple-system, 'SF Pro Text', 'Segoe UI', sans-serif" font-size="12.5" font-weight="600" fill="#EDF3FA" text-anchor="start">Invoice_Q3.pdf</text><text x="128.00" y="323.00" font-family="ui-sans-serif, -apple-system, 'SF Pro Text', 'Segoe UI', sans-serif" font-size="10.5" font-weight="500" fill="#7C8FA3" text-anchor="start">2 pages</text><g transform="translate(77.00,355.00) scale(0.4167)" stroke="#7C8FA3" stroke-width="4.080" fill="none" stroke-linecap="round" stroke-linejoin="round"><path d="M9.5 6l6 6-6 6"/></g><rect x="94.00" y="343.00" width="26.00" height="34.00" rx="3.00" fill="#EAE7DF"/><rect x="94.00" y="343.00" width="26.00" height="34.00" rx="3.00" fill="none" stroke="#EDF3FA" stroke-width="1" stroke-opacity="0.3"/><line x1="98.00" y1="351.00" x2="116.00" y2="351.00" stroke="#B9B3A6" stroke-width="1" stroke-linecap="round" opacity="0.9"/><line x1="98.00" y1="357.00" x2="116.00" y2="357.00" stroke="#B9B3A6" stroke-width="1" stroke-linecap="round" opacity="0.9"/><line x1="98.00" y1="363.00" x2="116.00" y2="363.00" stroke="#B9B3A6" stroke-width="1" stroke-linecap="round" opacity="0.9"/><line x1="98.00" y1="369.00" x2="116.00" y2="369.00" stroke="#B9B3A6" stroke-width="1" stroke-linecap="round" opacity="0.9"/><rect x="92.00" y="368.00" width="16.00" height="8.00" rx="2.00" fill="#1A9BA6"/><text x="100.00" y="374.50" font-family="ui-sans-serif, -apple-system, 'SF Pro Text', 'Segoe UI', sans-serif" font-size="5.5" font-weight="800" fill="#FFFFFF" text-anchor="middle">IMG</text><text x="128.00" y="358.00" font-family="ui-sans-serif, -apple-system, 'SF Pro Text', 'Segoe UI', sans-serif" font-size="12.5" font-weight="600" fill="#EDF3FA" text-anchor="start">Site-Photos</text><text x="128.00" y="373.00" font-family="ui-sans-serif, -apple-system, 'SF Pro Text', 'Segoe UI', sans-serif" font-size="10.5" font-weight="500" fill="#7C8FA3" text-anchor="start">4 pages</text><g transform="translate(77.00,405.00) scale(0.4167)" stroke="#7C8FA3" stroke-width="4.080" fill="none" stroke-linecap="round" stroke-linejoin="round"><path d="M9.5 6l6 6-6 6"/></g><rect x="94.00" y="393.00" width="26.00" height="34.00" rx="3.00" fill="#EAE7DF"/><rect x="94.00" y="393.00" width="26.00" height="34.00" rx="3.00" fill="none" stroke="#EDF3FA" stroke-width="1" stroke-opacity="0.3"/><line x1="98.00" y1="401.00" x2="116.00" y2="401.00" stroke="#B9B3A6" stroke-width="1" stroke-linecap="round" opacity="0.9"/><line x1="98.00" y1="407.00" x2="116.00" y2="407.00" stroke="#B9B3A6" stroke-width="1" stroke-linecap="round" opacity="0.9"/><line x1="98.00" y1="413.00" x2="116.00" y2="413.00" stroke="#B9B3A6" stroke-width="1" stroke-linecap="round" opacity="0.9"/><line x1="98.00" y1="419.00" x2="116.00" y2="419.00" stroke="#B9B3A6" stroke-width="1" stroke-linecap="round" opacity="0.9"/><rect x="92.00" y="418.00" width="16.00" height="8.00" rx="2.00" fill="#1A4E85"/><text x="100.00" y="424.50" font-family="ui-sans-serif, -apple-system, 'SF Pro Text', 'Segoe UI', sans-serif" font-size="5.5" font-weight="800" fill="#FFFFFF" text-anchor="middle">DOC</text><text x="128.00" y="408.00" font-family="ui-sans-serif, -apple-system, 'SF Pro Text', 'Segoe UI', sans-serif" font-size="12.5" font-weight="600" fill="#EDF3FA" text-anchor="start">Signed_NDA</text><text x="128.00" y="423.00" font-family="ui-sans-serif, -apple-system, 'SF Pro Text', 'Segoe UI', sans-serif" font-size="10.5" font-weight="500" fill="#7C8FA3" text-anchor="start">5 pages</text><rect x="286.00" y="96.00" width="1300.00" height="1054.00" rx="0.00" fill="#0A101C"/><rect x="567.94" y="139.00" width="736.12" height="956.00" rx="4.00" fill="url(#paperGrad)" stroke="#0A0F19" stroke-width="1" stroke-opacity="0.25"/><rect x="567.94" y="139.00" width="736.12" height="956.00" rx="4.00" fill="none" stroke="#000" stroke-width="1" stroke-opacity="0.05"/><circle cx="656.91" cy="248.16" r="9.00" fill="#4FC3E8" opacity="0.9"/><text x="672.91" y="252.16" font-family="ui-serif, 'New York', Georgia, 'Songti SC', serif" font-size="11" font-weight="700" fill="#1C2230" text-anchor="start">NORTHWIND &amp; CO.</text><line x1="648.91" y1="266.16" x2="1223.09" y2="266.16" stroke="#DAD5CB" stroke-width="1" stroke-linecap="round"/><line x1="648.91" y1="286.16" x2="844.13" y2="286.16" stroke="#43485A" stroke-width="3" stroke-linecap="round" opacity="0.75"/><text x="648.91" y="308.16" font-family="ui-sans-serif, -apple-system, 'SF Pro Text', 'Segoe UI', sans-serif" font-size="12" font-weight="700" fill="#1C2230" text-anchor="start"></text><line x1="648.91" y1="304.16" x2="993.42" y2="304.16" stroke="#1C2230" stroke-width="4" stroke-linecap="round" opacity="0.9"/><line x1="648.91" y1="326.16" x2="1223.09" y2="326.16" stroke="#43485A" stroke-width="2.4" stroke-linecap="round" opacity="0.55"/><line x1="648.91" y1="341.16" x2="1188.64" y2="341.16" stroke="#43485A" stroke-width="2.4" stroke-linecap="round" opacity="0.55"/><line x1="648.91" y1="356.16" x2="1205.86" y2="356.16" stroke="#43485A" stroke-width="2.4" stroke-linecap="round" opacity="0.55"/><line x1="648.91" y1="371.16" x2="1004.90" y2="371.16" stroke="#43485A" stroke-width="2.4" stroke-linecap="round" opacity="0.55"/><line x1="648.91" y1="394.16" x2="1223.09" y2="394.16" stroke="#43485A" stroke-width="2.4" stroke-linecap="round" opacity="0.55"/><line x1="648.91" y1="409.16" x2="1165.67" y2="409.16" stroke="#43485A" stroke-width="2.4" stroke-linecap="round" opacity="0.55"/><line x1="648.91" y1="424.16" x2="1211.60" y2="424.16" stroke="#43485A" stroke-width="2.4" stroke-linecap="round" opacity="0.55"/><line x1="648.91" y1="439.16" x2="1154.19" y2="439.16" stroke="#43485A" stroke-width="2.4" stroke-linecap="round" opacity="0.55"/><line x1="648.91" y1="454.16" x2="936.00" y2="454.16" stroke="#43485A" stroke-width="2.4" stroke-linecap="round" opacity="0.55"/><line x1="648.91" y1="942.04" x2="890.07" y2="942.04" stroke="#DAD5CB" stroke-width="1" stroke-linecap="round"/><text x="648.91" y="956.04" font-family="ui-sans-serif, -apple-system, 'SF Pro Text', 'Segoe UI', sans-serif" font-size="10" font-weight="400" fill="#43485A" text-anchor="start"></text><rect x="884.00" y="1120.00" width="104.00" height="22.00" rx="11.00" fill="#182434" fill-opacity="0.9" stroke="#EDF3FA" stroke-width="1" stroke-opacity="0.16"/><text x="936.00" y="1135.00" font-family="ui-sans-serif, -apple-system, 'SF Pro Text', 'Segoe UI', sans-serif" font-size="11" font-weight="500" fill="#AFC2D6" text-anchor="middle">Page 3 of 14</text><rect x="1586.00" y="96.00" width="280.00" height="1054.00" rx="0.00" fill="#111A29"/><line x1="1586.00" y1="96.00" x2="1586.00" y2="1150.00" stroke="#EDF3FA" stroke-width="1" stroke-linecap="round" opacity="0.1"/><text x="1602.00" y="116.00" font-family="ui-sans-serif, -apple-system, 'SF Pro Text', 'Segoe UI', sans-serif" font-size="13" font-weight="600" fill="#EDF3FA" text-anchor="start">Inspector</text><rect x="1602.00" y="130.00" width="248.00" height="28.00" rx="7.00" fill="#182434" fill-opacity="0.6" stroke="#EDF3FA" stroke-width="1" stroke-opacity="0.12"/><g transform="translate(1626.00,137.00) scale(0.5833)" stroke="#7C8FA3" stroke-width="2.914" fill="none" stroke-linecap="round" stroke-linejoin="round"><rect x="5" y="4.5" width="14" height="15" rx="2"/><path d="M8.5 9h7M8.5 12h7M8.5 15h4.5"/></g><rect x="1667.00" y="133.00" width="56.00" height="22.00" rx="5.00" fill="#4FC3E8" fill-opacity="0.2"/><g transform="translate(1688.00,137.00) scale(0.5833)" stroke="#4FC3E8" stroke-width="2.914" fill="none" stroke-linecap="round" stroke-linejoin="round"><path d="M6 18.5l1.5-3 7.8-7.8 3 3-7.8 7.8-3 1.5z"/><path d="M13.5 6.2l2.3-2.3a1.4 1.4 0 0 1 2 0l1.5 1.5a1.4 1.4 0 0 1 0 2l-2.3 2.3"/><path d="M6 18.5l3 -1.5" stroke-width="4.114"/></g><g transform="translate(1750.00,137.00) scale(0.5833)" stroke="#7C8FA3" stroke-width="2.914" fill="none" stroke-linecap="round" stroke-linejoin="round"><path d="M5 7.5a2.5 2.5 0 0 1 2.5-2.5h9A2.5 2.5 0 0 1 19 7.5v5A2.5 2.5 0 0 1 16.5 15H11l-4 4v-4h-.5A2.5 2.5 0 0 1 5 12.5z"/><path d="M8.5 8.8h7M8.5 11.4h4.5"/></g><g transform="translate(1812.00,137.00) scale(0.5833)" stroke="#7C8FA3" stroke-width="2.914" fill="none" stroke-linecap="round" stroke-linejoin="round"><path d="M12 4l1.9 1.4 2.3-.3 .9 2.2 2 1.2-.7 2.3.7 2.3-2 1.2-.9 2.2-2.3-.3L12 20l-1.9-1.4-2.3.3-.9-2.2-2-1.2.7-2.3-.7-2.3 2-1.2.9-2.2 2.3.3z"/><path d="M9.5 12l1.8 1.8 3.4-3.6"/></g><path d="M1540 1077.2 L1557.6 1096.4 L1540 1115.6 L1522.4 1096.4 Z" fill="#5FA9C9"/><path d="M1540 1077.2 L1557.6 1096.4 L1540 1096.4 Z" fill="#4A8FB0" opacity="0.6"/><path d="M1522.4 1096.4 L1516.0 1083.6 L1530.4 1091.6 Z" fill="#4A8FB0"/><path d="M1557.6 1096.4 L1564.0 1083.6 L1549.6 1091.6 Z" fill="#4A8FB0"/><path d="M1534.4 1102.8 L1545.6 1102.8 L1540 1112.4 Z" fill="#EAF4F9"/><circle cx="1534.40" cy="1096.40" r="1.92" fill="#12303F"/><circle cx="1545.60" cy="1096.40" r="1.92" fill="#12303F"/><circle cx="1540.00" cy="1105.20" r="1.44" fill="#12303F"/><rect x="1602.00" y="170.00" width="248.00" height="32.00" rx="7.00" fill="#182434" fill-opacity="0.6" stroke="#EDF3FA" stroke-width="1" stroke-opacity="0.1"/><rect x="1612.00" y="181.00" width="10.00" height="10.00" rx="2.00" fill="#FBE382"/><text x="1630.00" y="190.00" font-family="ui-sans-serif, -apple-system, 'SF Pro Text', 'Segoe UI', sans-serif" font-size="12" font-weight="500" fill="#AFC2D6" text-anchor="start">Highlight</text><text x="1838.00" y="190.00" font-family="ui-sans-serif, -apple-system, 'SF Pro Text', 'Segoe UI', sans-serif" font-size="10.5" font-weight="500" fill="#7C8FA3" text-anchor="end">p.2</text><rect x="1602.00" y="210.00" width="248.00" height="32.00" rx="7.00" fill="#182434" fill-opacity="0.6" stroke="#EDF3FA" stroke-width="1" stroke-opacity="0.1"/><rect x="1612.00" y="221.00" width="10.00" height="10.00" rx="2.00" fill="#EF8A7E"/><text x="1630.00" y="230.00" font-family="ui-sans-serif, -apple-system, 'SF Pro Text', 'Segoe UI', sans-serif" font-size="12" font-weight="500" fill="#AFC2D6" text-anchor="start">Highlight</text><text x="1838.00" y="230.00" font-family="ui-sans-serif, -apple-system, 'SF Pro Text', 'Segoe UI', sans-serif" font-size="10.5" font-weight="500" fill="#7C8FA3" text-anchor="end">p.3</text><rect x="1602.00" y="250.00" width="248.00" height="32.00" rx="7.00" fill="#182434" fill-opacity="0.6" stroke="#EDF3FA" stroke-width="1" stroke-opacity="0.1"/><rect x="1612.00" y="261.00" width="10.00" height="10.00" rx="2.00" fill="#8DC2AB"/><text x="1630.00" y="270.00" font-family="ui-sans-serif, -apple-system, 'SF Pro Text', 'Segoe UI', sans-serif" font-size="12" font-weight="500" fill="#AFC2D6" text-anchor="start">Underline</text><text x="1838.00" y="270.00" font-family="ui-sans-serif, -apple-system, 'SF Pro Text', 'Segoe UI', sans-serif" font-size="10.5" font-weight="500" fill="#7C8FA3" text-anchor="end">p.4</text><line x1="170.00" y1="1144.00" x2="170.00" y2="1108.00" stroke="#4FC3E8" stroke-width="1.4" stroke-linecap="round" opacity="0.5"/><g filter="url(#softShadow)"><rect x="64.50" y="1108.00" width="271.00" height="52.00" rx="10.00" fill="#111A29"/><rect x="64.50" y="1108.00" width="271.00" height="52.00" rx="10.00" fill="none" stroke="#4FC3E8" stroke-width="1" stroke-opacity="0.28"/></g><circle cx="82.50" cy="1126.00" r="15.00" fill="#4FC3E8"/><text x="82.50" y="1131.00" font-family="ui-sans-serif, -apple-system, 'SF Pro Text', 'Segoe UI', sans-serif" font-size="15" font-weight="800" fill="#0A101C" text-anchor="middle">1</text><text x="100.50" y="1130.00" font-family="ui-sans-serif, -apple-system, 'SF Pro Text', 'Segoe UI', sans-serif" font-size="15" font-weight="700" fill="#EDF3FA" text-anchor="start">Sidebar</text><text x="82.50" y="1148.00" font-family="ui-sans-serif, -apple-system, 'SF Pro Text', 'Segoe UI', sans-serif" font-size="11.5" font-weight="400" fill="#7C8FA3" text-anchor="start">Documents &amp; pages — drag to reorder</text><line x1="426.97" y1="136.00" x2="960.00" y2="98.00" stroke="#4FC3E8" stroke-width="1.4" stroke-linecap="round" opacity="0.45"/><g filter="url(#softShadow)"><rect x="317.87" y="136.00" width="218.20" height="52.00" rx="10.00" fill="#111A29"/><rect x="317.87" y="136.00" width="218.20" height="52.00" rx="10.00" fill="none" stroke="#4FC3E8" stroke-width="1" stroke-opacity="0.28"/></g><circle cx="335.87" cy="154.00" r="15.00" fill="#4FC3E8"/><text x="335.87" y="159.00" font-family="ui-sans-serif, -apple-system, 'SF Pro Text', 'Segoe UI', sans-serif" font-size="15" font-weight="800" fill="#0A101C" text-anchor="middle">2</text><text x="353.87" y="158.00" font-family="ui-sans-serif, -apple-system, 'SF Pro Text', 'Segoe UI', sans-serif" font-size="15" font-weight="700" fill="#EDF3FA" text-anchor="start">Annotation toolbar</text><text x="335.87" y="176.00" font-family="ui-sans-serif, -apple-system, 'SF Pro Text', 'Segoe UI', sans-serif" font-size="11.5" font-weight="400" fill="#7C8FA3" text-anchor="start">Highlight, ink, sign, stamp</text><line x1="1304.06" y1="617.00" x2="1445.03" y2="617.00" stroke="#4FC3E8" stroke-width="1.4" stroke-linecap="round" opacity="0.45"/><g filter="url(#softShadow)"><rect x="1332.63" y="591.00" width="224.80" height="52.00" rx="10.00" fill="#111A29"/><rect x="1332.63" y="591.00" width="224.80" height="52.00" rx="10.00" fill="none" stroke="#4FC3E8" stroke-width="1" stroke-opacity="0.28"/></g><circle cx="1350.63" cy="609.00" r="15.00" fill="#4FC3E8"/><text x="1350.63" y="614.00" font-family="ui-sans-serif, -apple-system, 'SF Pro Text', 'Segoe UI', sans-serif" font-size="15" font-weight="800" fill="#0A101C" text-anchor="middle">3</text><text x="1368.63" y="613.00" font-family="ui-sans-serif, -apple-system, 'SF Pro Text', 'Segoe UI', sans-serif" font-size="15" font-weight="700" fill="#EDF3FA" text-anchor="start">Canvas</text><text x="1350.63" y="631.00" font-family="ui-sans-serif, -apple-system, 'SF Pro Text', 'Segoe UI', sans-serif" font-size="11.5" font-weight="400" fill="#7C8FA3" text-anchor="start">Read, edit text, sign &amp; fill</text><line x1="1726.00" y1="1144.00" x2="1726.00" y2="1108.00" stroke="#4FC3E8" stroke-width="1.4" stroke-linecap="round" opacity="0.5"/><g filter="url(#softShadow)"><rect x="1603.70" y="1108.00" width="244.60" height="52.00" rx="10.00" fill="#111A29"/><rect x="1603.70" y="1108.00" width="244.60" height="52.00" rx="10.00" fill="none" stroke="#4FC3E8" stroke-width="1" stroke-opacity="0.28"/></g><circle cx="1621.70" cy="1126.00" r="15.00" fill="#4FC3E8"/><text x="1621.70" y="1131.00" font-family="ui-sans-serif, -apple-system, 'SF Pro Text', 'Segoe UI', sans-serif" font-size="15" font-weight="800" fill="#0A101C" text-anchor="middle">4</text><text x="1639.70" y="1130.00" font-family="ui-sans-serif, -apple-system, 'SF Pro Text', 'Segoe UI', sans-serif" font-size="15" font-weight="700" fill="#EDF3FA" text-anchor="start">Inspector</text><text x="1621.70" y="1148.00" font-family="ui-sans-serif, -apple-system, 'SF Pro Text', 'Segoe UI', sans-serif" font-size="11.5" font-weight="400" fill="#7C8FA3" text-anchor="start">Details, annotations &amp; comments</text></svg>